G04 #@! TF.GenerationSoftware,KiCad,Pcbnew,6.0.2+dfsg-1*
G04 #@! TF.CreationDate,2024-05-15T15:08:28+02:00*
G04 #@! TF.ProjectId,PowerPolePCB,506f7765-7250-46f6-9c65-5043422e6b69,rev?*
G04 #@! TF.SameCoordinates,Original*
G04 #@! TF.FileFunction,Copper,L1,Top*
G04 #@! TF.FilePolarity,Positive*
%FSLAX46Y46*%
G04 Gerber Fmt 4.6, Leading zero omitted, Abs format (unit mm)*
G04 Created by KiCad (PCBNEW 6.0.2+dfsg-1) date 2024-05-15 15:08:28*
%MOMM*%
%LPD*%
G01*
G04 APERTURE LIST*
G04 Aperture macros list*
%AMRoundRect*
0 Rectangle with rounded corners*
0 $1 Rounding radius*
0 $2 $3 $4 $5 $6 $7 $8 $9 X,Y pos of 4 corners*
0 Add a 4 corners polygon primitive as box body*
4,1,4,$2,$3,$4,$5,$6,$7,$8,$9,$2,$3,0*
0 Add four circle primitives for the rounded corners*
1,1,$1+$1,$2,$3*
1,1,$1+$1,$4,$5*
1,1,$1+$1,$6,$7*
1,1,$1+$1,$8,$9*
0 Add four rect primitives between the rounded corners*
20,1,$1+$1,$2,$3,$4,$5,0*
20,1,$1+$1,$4,$5,$6,$7,0*
20,1,$1+$1,$6,$7,$8,$9,0*
20,1,$1+$1,$8,$9,$2,$3,0*%
%AMOutline5P*
0 Free polygon, 5 corners , with rotation*
0 The origin of the aperture is its center*
0 number of corners: always 5*
0 $1 to $10 corner X, Y*
0 $11 Rotation angle, in degrees counterclockwise*
0 create outline with 5 corners*
4,1,5,$1,$2,$3,$4,$5,$6,$7,$8,$9,$10,$1,$2,$11*%
%AMOutline6P*
0 Free polygon, 6 corners , with rotation*
0 The origin of the aperture is its center*
0 number of corners: always 6*
0 $1 to $12 corner X, Y*
0 $13 Rotation angle, in degrees counterclockwise*
0 create outline with 6 corners*
4,1,6,$1,$2,$3,$4,$5,$6,$7,$8,$9,$10,$11,$12,$1,$2,$13*%
%AMOutline7P*
0 Free polygon, 7 corners , with rotation*
0 The origin of the aperture is its center*
0 number of corners: always 7*
0 $1 to $14 corner X, Y*
0 $15 Rotation angle, in degrees counterclockwise*
0 create outline with 7 corners*
4,1,7,$1,$2,$3,$4,$5,$6,$7,$8,$9,$10,$11,$12,$13,$14,$1,$2,$15*%
%AMOutline8P*
0 Free polygon, 8 corners , with rotation*
0 The origin of the aperture is its center*
0 number of corners: always 8*
0 $1 to $16 corner X, Y*
0 $17 Rotation angle, in degrees counterclockwise*
0 create outline with 8 corners*
4,1,8,$1,$2,$3,$4,$5,$6,$7,$8,$9,$10,$11,$12,$13,$14,$15,$16,$1,$2,$17*%
G04 Aperture macros list end*
G04 #@! TA.AperFunction,SMDPad,CuDef*
%ADD10RoundRect,0.150000X0.275000X0.000000X0.275000X0.000000X-0.275000X0.000000X-0.275000X0.000000X0*%
G04 #@! TD*
G04 #@! TA.AperFunction,SMDPad,CuDef*
%ADD11R,1.750000X1.550000*%
G04 #@! TD*
G04 #@! TA.AperFunction,SMDPad,CuDef*
%ADD12Outline5P,-0.287500X0.150000X0.197500X0.150000X0.287500X0.060000X0.287500X-0.150000X-0.287500X-0.150000X90.000000*%
G04 #@! TD*
G04 #@! TA.AperFunction,SMDPad,CuDef*
%ADD13R,0.300000X0.575000*%
G04 #@! TD*
G04 #@! TA.AperFunction,SMDPad,CuDef*
%ADD14R,0.575000X0.300000*%
G04 #@! TD*
G04 #@! TA.AperFunction,SMDPad,CuDef*
%ADD15RoundRect,0.200000X-0.200000X-0.275000X0.200000X-0.275000X0.200000X0.275000X-0.200000X0.275000X0*%
G04 #@! TD*
G04 #@! TA.AperFunction,SMDPad,CuDef*
%ADD16RoundRect,0.225000X0.225000X0.250000X-0.225000X0.250000X-0.225000X-0.250000X0.225000X-0.250000X0*%
G04 #@! TD*
G04 #@! TA.AperFunction,SMDPad,CuDef*
%ADD17R,0.800000X0.550000*%
G04 #@! TD*
G04 #@! TA.AperFunction,ComponentPad*
%ADD18R,0.800000X0.800000*%
G04 #@! TD*
G04 #@! TA.AperFunction,ComponentPad*
%ADD19O,0.800000X0.800000*%
G04 #@! TD*
G04 #@! TA.AperFunction,ComponentPad*
%ADD20C,0.800000*%
G04 #@! TD*
G04 #@! TA.AperFunction,SMDPad,CuDef*
%ADD21RoundRect,0.200000X0.200000X0.275000X-0.200000X0.275000X-0.200000X-0.275000X0.200000X-0.275000X0*%
G04 #@! TD*
G04 #@! TA.AperFunction,SMDPad,CuDef*
%ADD22RoundRect,0.225000X-0.225000X-0.250000X0.225000X-0.250000X0.225000X0.250000X-0.225000X0.250000X0*%
G04 #@! TD*
G04 #@! TA.AperFunction,SMDPad,CuDef*
%ADD23R,0.700000X0.400000*%
G04 #@! TD*
G04 #@! TA.AperFunction,SMDPad,CuDef*
%ADD24R,0.400000X0.700000*%
G04 #@! TD*
G04 #@! TA.AperFunction,SMDPad,CuDef*
%ADD25R,1.000000X0.700000*%
G04 #@! TD*
G04 #@! TA.AperFunction,SMDPad,CuDef*
%ADD26R,1.250000X1.900000*%
G04 #@! TD*
G04 #@! TA.AperFunction,ComponentPad*
%ADD27C,0.600000*%
G04 #@! TD*
G04 #@! TA.AperFunction,ViaPad*
%ADD28C,0.600000*%
G04 #@! TD*
G04 #@! TA.AperFunction,Conductor*
%ADD29C,0.100000*%
G04 #@! TD*
G04 #@! TA.AperFunction,Conductor*
%ADD30C,0.300000*%
G04 #@! TD*
G04 APERTURE END LIST*
D10*
X117475000Y-109350000D03*
X117475000Y-109850000D03*
X117475000Y-110350000D03*
X117475000Y-110850000D03*
X120475000Y-110850000D03*
X120475000Y-110350000D03*
X120475000Y-109850000D03*
X120475000Y-109350000D03*
D11*
X118975000Y-110100000D03*
D12*
X123350000Y-102237500D03*
D13*
X123850000Y-102237500D03*
X124350000Y-102237500D03*
X124850000Y-102237500D03*
D14*
X125012500Y-101575000D03*
X125012500Y-101075000D03*
X125012500Y-100575000D03*
D13*
X124850000Y-99912500D03*
X124350000Y-99912500D03*
X123850000Y-99912500D03*
X123350000Y-99912500D03*
D14*
X123187500Y-100575000D03*
X123187500Y-101075000D03*
X123187500Y-101575000D03*
D15*
X123225000Y-104250000D03*
X124875000Y-104250000D03*
D16*
X124875000Y-98100000D03*
X123325000Y-98100000D03*
D17*
X124868837Y-105650000D03*
X124868837Y-106550000D03*
X123268837Y-106550000D03*
X123268837Y-105650000D03*
D18*
X124861300Y-109662700D03*
D19*
X123845300Y-109662700D03*
X122829300Y-109662700D03*
D20*
X121813300Y-109662700D03*
D21*
X124275000Y-110950000D03*
X122625000Y-110950000D03*
D16*
X124825000Y-108300000D03*
X123275000Y-108300000D03*
D18*
X112495000Y-111200000D03*
D20*
X113511000Y-111200000D03*
X114527000Y-111200000D03*
X115543000Y-111200000D03*
D22*
X111825000Y-109850000D03*
X113375000Y-109850000D03*
X114625000Y-109850000D03*
X116175000Y-109850000D03*
D23*
X112717000Y-97638000D03*
X112717000Y-98338000D03*
X112717000Y-99038000D03*
X112717000Y-99738000D03*
X112717000Y-100438000D03*
X112717000Y-101138000D03*
X112717000Y-101838000D03*
X112717000Y-102538000D03*
X112717000Y-103238000D03*
X112717000Y-103938000D03*
X112717000Y-104638000D03*
D24*
X114167000Y-105488000D03*
X114867000Y-105488000D03*
X115567000Y-105488000D03*
X116267000Y-105488000D03*
X116967000Y-105488000D03*
X117667000Y-105488000D03*
X118367000Y-105488000D03*
X119067000Y-105488000D03*
X119767000Y-105488000D03*
D23*
X121217000Y-104638000D03*
X121217000Y-103938000D03*
X121217000Y-103238000D03*
X121217000Y-102538000D03*
X121217000Y-101838000D03*
X121217000Y-101138000D03*
X121217000Y-100438000D03*
X121217000Y-99738000D03*
X121217000Y-99038000D03*
X121217000Y-98338000D03*
X121217000Y-97638000D03*
X113717000Y-97638000D03*
X113717000Y-98338000D03*
X113717000Y-99038000D03*
X113717000Y-99738000D03*
X113717000Y-100438000D03*
X113717000Y-101138000D03*
X113717000Y-101838000D03*
X113717000Y-102538000D03*
X113717000Y-103238000D03*
X113717000Y-103938000D03*
X113717000Y-104638000D03*
D24*
X114867000Y-104488000D03*
X115567000Y-104488000D03*
X116267000Y-104488000D03*
X116967000Y-104488000D03*
X117667000Y-104488000D03*
X118367000Y-104488000D03*
X119067000Y-104488000D03*
D23*
X120217000Y-104638000D03*
X120217000Y-103938000D03*
X120217000Y-103238000D03*
X120217000Y-102538000D03*
X120217000Y-101838000D03*
X120217000Y-101138000D03*
X120217000Y-100438000D03*
X120217000Y-99738000D03*
X120217000Y-99038000D03*
X120217000Y-98338000D03*
X120217000Y-97638000D03*
D25*
X112867000Y-105488000D03*
X121067000Y-105488000D03*
D26*
X116197000Y-100688000D03*
X116197000Y-98488000D03*
X117747000Y-98488000D03*
X117747000Y-100688000D03*
D27*
X112300000Y-106450000D03*
X116650000Y-106750000D03*
X122100000Y-106500000D03*
X120950000Y-107050000D03*
D28*
X119400000Y-107761923D03*
X116520000Y-110890000D03*
X124050000Y-104950000D03*
X117544450Y-107761923D03*
X119000000Y-101700000D03*
X118520000Y-109730000D03*
X116181389Y-100711000D03*
X112776270Y-108099699D03*
X111800000Y-102350000D03*
X120150000Y-106450000D03*
X117754400Y-98501200D03*
X124100000Y-101100000D03*
X116154200Y-98526600D03*
X111800500Y-104078859D03*
X119366444Y-110493556D03*
X111750000Y-98450000D03*
X122150000Y-98550000D03*
X117729000Y-100685600D03*
X125000000Y-99100000D03*
X117650000Y-103050000D03*
X125100890Y-103275978D03*
X116400000Y-102900000D03*
X124304551Y-103024502D03*
X124137701Y-98862299D03*
X117000000Y-102137502D03*
X122100000Y-100529124D03*
X119150000Y-103300000D03*
X114850000Y-106400000D03*
X114977567Y-98472433D03*
X114900000Y-99700000D03*
X114288543Y-107111457D03*
X119148720Y-106363403D03*
X124900000Y-107300000D03*
X111800000Y-103250000D03*
X114400237Y-108000263D03*
X114611444Y-100661444D03*
X115549989Y-102850000D03*
X123350000Y-103050000D03*
X115888056Y-103610944D03*
X122561444Y-103361444D03*
X118350000Y-103600000D03*
X122100000Y-101350000D03*
X121725500Y-110949411D03*
X118250000Y-106350000D03*
D29*
X117067577Y-107212423D02*
X116980000Y-107300000D01*
X116100489Y-106977616D02*
X116100489Y-106522384D01*
X116422873Y-107300000D02*
X116100489Y-106977616D01*
X116980000Y-107300000D02*
X116422873Y-107300000D01*
X119638837Y-107212423D02*
X117067577Y-107212423D01*
X120325445Y-107899031D02*
X119638837Y-107212423D01*
X121927383Y-107899031D02*
X120325445Y-107899031D01*
X124250000Y-105650000D02*
X124000000Y-105900000D01*
X123799511Y-107074511D02*
X122751904Y-107074511D01*
X124000000Y-106874022D02*
X123799511Y-107074511D01*
X122751904Y-107074511D02*
X121927383Y-107899031D01*
X124000000Y-105900000D02*
X124000000Y-106874022D01*
X124750000Y-105650000D02*
X124250000Y-105650000D01*
X116100489Y-106522384D02*
X116250000Y-106372873D01*
X116250000Y-106372873D02*
X116250000Y-105505000D01*
X114850000Y-106400000D02*
X114850000Y-106473586D01*
X114850000Y-106473586D02*
X116687848Y-108311434D01*
X116687848Y-108311434D02*
X121938566Y-108311434D01*
X121938566Y-108311434D02*
X122875969Y-107374031D01*
X122875969Y-107374031D02*
X123899031Y-107374031D01*
X123899031Y-107374031D02*
X124825000Y-108300000D01*
D30*
X112717000Y-104638000D02*
X112167978Y-104638000D01*
X112167978Y-104638000D02*
X111650489Y-105155489D01*
X111650489Y-105155489D02*
X111650489Y-106719037D01*
X111825000Y-106893548D02*
X111825000Y-109850000D01*
X111650489Y-106719037D02*
X111825000Y-106893548D01*
D29*
X124125000Y-104950000D02*
X124825000Y-104250000D01*
D30*
X116560000Y-110850000D02*
X117475000Y-110850000D01*
X112495000Y-110520000D02*
X111825000Y-109850000D01*
X116520000Y-110890000D02*
X116560000Y-110850000D01*
D29*
X119361923Y-107800000D02*
X117582527Y-107800000D01*
X117582527Y-107800000D02*
X117544450Y-107761923D01*
D30*
X117475000Y-110350000D02*
X117475000Y-110850000D01*
D29*
X124050000Y-104950000D02*
X124125000Y-104950000D01*
X119400000Y-107761923D02*
X119361923Y-107800000D01*
D30*
X112495000Y-111200000D02*
X112495000Y-110520000D01*
D29*
X124275000Y-110950000D02*
X124861300Y-110363700D01*
D30*
X120150000Y-106450000D02*
X120550000Y-106450000D01*
X114527000Y-111200000D02*
X114527000Y-109948000D01*
X121788000Y-97638000D02*
X122150000Y-98000000D01*
D29*
X124350000Y-101325000D02*
X124100000Y-101075000D01*
X122150000Y-98550000D02*
X123225000Y-98550000D01*
D30*
X121867000Y-99738000D02*
X121217000Y-99738000D01*
X122150000Y-98000000D02*
X122150000Y-98550000D01*
X120550000Y-106450000D02*
X121056400Y-105943600D01*
D29*
X124350000Y-102237500D02*
X124350000Y-101325000D01*
D30*
X111800500Y-104078859D02*
X111941359Y-103938000D01*
D29*
X125012500Y-101075000D02*
X124100000Y-101075000D01*
X123850000Y-102237500D02*
X123850000Y-101325000D01*
D30*
X111800000Y-102350000D02*
X111988000Y-102538000D01*
D29*
X123850000Y-101325000D02*
X124100000Y-101075000D01*
X125012500Y-100575000D02*
X124600000Y-100575000D01*
D30*
X122150000Y-99455000D02*
X121867000Y-99738000D01*
X112212000Y-97638000D02*
X112717000Y-97638000D01*
X113511000Y-109986000D02*
X113375000Y-109850000D01*
X111750000Y-98450000D02*
X111750000Y-98100000D01*
X112949511Y-105570511D02*
X112949511Y-106719037D01*
X119510000Y-110350000D02*
X120475000Y-110350000D01*
X111988000Y-102538000D02*
X112717000Y-102538000D01*
X111750000Y-98100000D02*
X112212000Y-97638000D01*
X119366444Y-110493556D02*
X119510000Y-110350000D01*
X112867000Y-105488000D02*
X112949511Y-105570511D01*
X112776270Y-106892278D02*
X112776270Y-108099699D01*
X121056400Y-105943600D02*
X121056400Y-105511600D01*
X121217000Y-97638000D02*
X121788000Y-97638000D01*
D29*
X124861300Y-110363700D02*
X124861300Y-109662700D01*
D30*
X114527000Y-109948000D02*
X114625000Y-109850000D01*
D29*
X124600000Y-100575000D02*
X124100000Y-101075000D01*
D30*
X112949511Y-106719037D02*
X112776270Y-106892278D01*
X111941359Y-103938000D02*
X112717000Y-103938000D01*
X113511000Y-111200000D02*
X113511000Y-109986000D01*
X122150000Y-98550000D02*
X122150000Y-99455000D01*
D29*
X114167000Y-106283000D02*
X114167000Y-105488000D01*
D30*
X115543000Y-111200000D02*
X115543000Y-110482000D01*
X116675000Y-109350000D02*
X116175000Y-109850000D01*
D29*
X114131441Y-108650000D02*
X113400000Y-107918559D01*
X115125000Y-108650000D02*
X114131441Y-108650000D01*
D30*
X115543000Y-110482000D02*
X116175000Y-109850000D01*
D29*
X113400000Y-107918559D02*
X113400000Y-107050000D01*
D30*
X117475000Y-109850000D02*
X117475000Y-109350000D01*
X117475000Y-109350000D02*
X116675000Y-109350000D01*
D29*
X116175000Y-109850000D02*
X116175000Y-109700000D01*
X113400000Y-107050000D02*
X114167000Y-106283000D01*
X116175000Y-109700000D02*
X115125000Y-108650000D01*
D30*
X121217000Y-99038000D02*
X121217000Y-98338000D01*
D29*
X124850000Y-99912500D02*
X124850000Y-99250000D01*
X117650000Y-103050000D02*
X117667000Y-103067000D01*
X125249511Y-101812011D02*
X125012500Y-101575000D01*
X125000000Y-99100000D02*
X124900000Y-99000000D01*
X125100890Y-103275978D02*
X125249511Y-103127357D01*
X124900000Y-99000000D02*
X124900000Y-98575000D01*
X117667000Y-103067000D02*
X117667000Y-104488000D01*
X124850000Y-99250000D02*
X125000000Y-99100000D01*
X125249511Y-103127357D02*
X125249511Y-101812011D01*
X124900000Y-98575000D02*
X124875000Y-98550000D01*
X124353820Y-103024502D02*
X124850000Y-102528322D01*
X124850000Y-102528322D02*
X124850000Y-102237500D01*
X116437567Y-102937567D02*
X116400000Y-102900000D01*
X116267000Y-104009127D02*
X116437567Y-103838560D01*
X116267000Y-104488000D02*
X116267000Y-104009127D01*
X124304551Y-103024502D02*
X124353820Y-103024502D01*
X116437567Y-103838560D02*
X116437567Y-102937567D01*
X124350000Y-99074598D02*
X124137701Y-98862299D01*
X117000000Y-102137502D02*
X116967000Y-102170502D01*
X116967000Y-102170502D02*
X116967000Y-104488000D01*
X124350000Y-99912500D02*
X124350000Y-99074598D01*
X122100000Y-100529124D02*
X122145876Y-100575000D01*
X119150000Y-103300000D02*
X119067000Y-103383000D01*
X119067000Y-103383000D02*
X119067000Y-104488000D01*
X122145876Y-100575000D02*
X123187500Y-100575000D01*
X114143134Y-97638000D02*
X113717000Y-97638000D01*
X124825000Y-108300000D02*
X123845300Y-109279700D01*
X114977567Y-98472433D02*
X114143134Y-97638000D01*
X123845300Y-109279700D02*
X123845300Y-109462700D01*
X116113603Y-108650011D02*
X114575049Y-107111457D01*
X122829300Y-109462700D02*
X123275000Y-109017000D01*
X122765000Y-108660000D02*
X121334186Y-108660000D01*
X123275000Y-109017000D02*
X123275000Y-108150000D01*
X123275000Y-108150000D02*
X122765000Y-108660000D01*
X121334186Y-108660000D02*
X121324196Y-108650011D01*
X114066022Y-98338000D02*
X113717000Y-98338000D01*
X114900000Y-99700000D02*
X114900000Y-99171978D01*
X114900000Y-99171978D02*
X114066022Y-98338000D01*
X121324196Y-108650011D02*
X116113603Y-108650011D01*
X114575049Y-107111457D02*
X114288543Y-107111457D01*
X124900000Y-106581163D02*
X124868837Y-106550000D01*
X119067000Y-105938000D02*
X119067000Y-105488000D01*
X124900000Y-107300000D02*
X124900000Y-106581163D01*
X119148720Y-106019720D02*
X119067000Y-105938000D01*
X119148720Y-106363403D02*
X119148720Y-106019720D01*
X123150000Y-106550000D02*
X122852829Y-106550000D01*
X118012903Y-106912903D02*
X117667000Y-106567000D01*
X121803318Y-107599511D02*
X120449511Y-107599511D01*
X120449511Y-107599511D02*
X119762903Y-106912903D01*
X119762903Y-106912903D02*
X118012903Y-106912903D01*
X122852829Y-106550000D02*
X121803318Y-107599511D01*
X117667000Y-106567000D02*
X117667000Y-105488000D01*
X123268837Y-104293837D02*
X123225000Y-104250000D01*
X123268837Y-105650000D02*
X123268837Y-104293837D01*
X120950000Y-107050000D02*
X121272873Y-106727127D01*
X121850000Y-105972873D02*
X121850000Y-104821000D01*
X121850000Y-104821000D02*
X121667000Y-104638000D01*
X121272873Y-106727127D02*
X121272873Y-106550000D01*
X121272873Y-106550000D02*
X121850000Y-105972873D01*
X121667000Y-104638000D02*
X121217000Y-104638000D01*
X122500000Y-104871978D02*
X121566022Y-103938000D01*
X122500000Y-106100000D02*
X122500000Y-104871978D01*
X122100000Y-106500000D02*
X122500000Y-106100000D01*
X121566022Y-103938000D02*
X121217000Y-103938000D01*
X111800000Y-103250000D02*
X111812000Y-103238000D01*
X111812000Y-103238000D02*
X112717000Y-103238000D01*
X116650000Y-106750000D02*
X116967000Y-106433000D01*
X116967000Y-106433000D02*
X116967000Y-105488000D01*
X114238000Y-99738000D02*
X113717000Y-99738000D01*
X114611444Y-100661444D02*
X114611444Y-100311444D01*
X115040269Y-108000263D02*
X115989537Y-108949531D01*
X114350489Y-99850489D02*
X114238000Y-99738000D01*
X114350489Y-100050489D02*
X114350489Y-99850489D01*
X115989537Y-108949531D02*
X121200131Y-108949531D01*
X114611444Y-100311444D02*
X114350489Y-100050489D01*
X114400237Y-108000263D02*
X115040269Y-108000263D01*
X121200131Y-108949531D02*
X121813300Y-109562700D01*
X121902211Y-110312211D02*
X122540000Y-110950000D01*
X121150000Y-109917948D02*
X121544263Y-110312211D01*
X120475000Y-109350000D02*
X120815006Y-109350000D01*
X120815006Y-109350000D02*
X121150000Y-109684994D01*
X121150000Y-109684994D02*
X121150000Y-109917948D01*
X122540000Y-110950000D02*
X122625000Y-110950000D01*
X121544263Y-110312211D02*
X121902211Y-110312211D01*
X115549989Y-102850000D02*
X114867000Y-103532989D01*
X123350000Y-103050000D02*
X123350000Y-102237500D01*
X114867000Y-103532989D02*
X114867000Y-104488000D01*
X122800480Y-101599520D02*
X123187500Y-101599520D01*
X115567000Y-103932000D02*
X115888056Y-103610944D01*
X115567000Y-104038000D02*
X115567000Y-104488000D01*
X122561444Y-103361444D02*
X122561444Y-101838556D01*
X122561444Y-101838556D02*
X122800480Y-101599520D01*
X115567000Y-104038000D02*
X115567000Y-103932000D01*
X118350000Y-103600000D02*
X118367000Y-103617000D01*
X122100000Y-101350000D02*
X122375000Y-101075000D01*
X118367000Y-103617000D02*
X118367000Y-104488000D01*
X122375000Y-101075000D02*
X123187500Y-101075000D01*
X121725500Y-110949411D02*
X121626089Y-110850000D01*
X121626089Y-110850000D02*
X120475000Y-110850000D01*
X118367000Y-105488000D02*
X118367000Y-106233000D01*
X118367000Y-106233000D02*
X118250000Y-106350000D01*
M02*
