G04 #@! TF.GenerationSoftware,KiCad,Pcbnew,6.0.2+dfsg-1*
G04 #@! TF.CreationDate,2024-05-15T15:08:28+02:00*
G04 #@! TF.ProjectId,PowerPolePCB,506f7765-7250-46f6-9c65-5043422e6b69,rev?*
G04 #@! TF.SameCoordinates,Original*
G04 #@! TF.FileFunction,Copper,L3,Inr*
G04 #@! TF.FilePolarity,Positive*
%FSLAX46Y46*%
G04 Gerber Fmt 4.6, Leading zero omitted, Abs format (unit mm)*
G04 Created by KiCad (PCBNEW 6.0.2+dfsg-1) date 2024-05-15 15:08:28*
%MOMM*%
%LPD*%
G01*
G04 APERTURE LIST*
G04 #@! TA.AperFunction,ComponentPad*
%ADD10R,0.800000X0.800000*%
G04 #@! TD*
G04 #@! TA.AperFunction,ComponentPad*
%ADD11O,0.800000X0.800000*%
G04 #@! TD*
G04 #@! TA.AperFunction,ComponentPad*
%ADD12C,0.800000*%
G04 #@! TD*
G04 #@! TA.AperFunction,ComponentPad*
%ADD13C,0.600000*%
G04 #@! TD*
G04 #@! TA.AperFunction,ViaPad*
%ADD14C,0.600000*%
G04 #@! TD*
G04 APERTURE END LIST*
D10*
X124861300Y-109662700D03*
D11*
X123845300Y-109662700D03*
X122829300Y-109662700D03*
D12*
X121813300Y-109662700D03*
D10*
X112495000Y-111200000D03*
D12*
X113511000Y-111200000D03*
X114527000Y-111200000D03*
X115543000Y-111200000D03*
D13*
X112300000Y-106450000D03*
X116650000Y-106750000D03*
X122100000Y-106500000D03*
X120950000Y-107050000D03*
D14*
X116520000Y-110890000D03*
X119000000Y-101700000D03*
X118520000Y-109730000D03*
X116181389Y-100711000D03*
X112776270Y-108099699D03*
X111800000Y-102350000D03*
X120150000Y-106450000D03*
X117754400Y-98501200D03*
X124100000Y-101100000D03*
X116154200Y-98526600D03*
X111800500Y-104078859D03*
X119366444Y-110493556D03*
X111750000Y-98450000D03*
X122150000Y-98550000D03*
X117729000Y-100685600D03*
G04 #@! TA.AperFunction,Conductor*
G36*
X125184121Y-97200402D02*
G01*
X125230614Y-97254058D01*
X125242000Y-97306400D01*
X125242000Y-98299657D01*
X125221998Y-98367778D01*
X125168342Y-98414271D01*
X125100209Y-98424664D01*
X125093034Y-98423758D01*
X125085663Y-98421906D01*
X125078063Y-98421866D01*
X125078061Y-98421866D01*
X125008918Y-98421505D01*
X124921442Y-98421047D01*
X124914063Y-98422819D01*
X124914059Y-98422819D01*
X124778312Y-98455409D01*
X124707404Y-98451862D01*
X124654511Y-98416302D01*
X124650389Y-98410304D01*
X124602659Y-98367778D01*
X124533445Y-98306109D01*
X124533441Y-98306106D01*
X124527774Y-98301057D01*
X124382639Y-98224213D01*
X124223364Y-98184205D01*
X124215766Y-98184165D01*
X124215764Y-98184165D01*
X124145008Y-98183795D01*
X124059143Y-98183346D01*
X124051764Y-98185118D01*
X124051760Y-98185118D01*
X123951355Y-98209224D01*
X123899458Y-98221683D01*
X123753527Y-98297003D01*
X123747807Y-98301993D01*
X123747804Y-98301995D01*
X123635499Y-98399965D01*
X123635496Y-98399968D01*
X123629774Y-98404960D01*
X123535345Y-98539319D01*
X123475691Y-98692324D01*
X123474700Y-98699851D01*
X123455246Y-98847611D01*
X123455246Y-98847615D01*
X123454255Y-98855142D01*
X123455089Y-98862692D01*
X123465694Y-98958751D01*
X123472276Y-99018373D01*
X123474885Y-99025504D01*
X123474886Y-99025506D01*
X123480820Y-99041721D01*
X123528713Y-99172594D01*
X123620308Y-99308901D01*
X123625926Y-99314013D01*
X123736151Y-99414311D01*
X123736155Y-99414314D01*
X123741772Y-99419425D01*
X123748445Y-99423048D01*
X123748449Y-99423051D01*
X123879421Y-99494162D01*
X123886094Y-99497785D01*
X124044942Y-99539458D01*
X124129984Y-99540794D01*
X124201546Y-99541919D01*
X124201549Y-99541919D01*
X124209144Y-99542038D01*
X124216548Y-99540342D01*
X124216550Y-99540342D01*
X124361243Y-99507203D01*
X124432109Y-99511492D01*
X124482125Y-99545885D01*
X124482607Y-99546602D01*
X124488224Y-99551713D01*
X124598450Y-99652012D01*
X124598454Y-99652015D01*
X124604071Y-99657126D01*
X124610744Y-99660749D01*
X124610748Y-99660752D01*
X124741720Y-99731863D01*
X124748393Y-99735486D01*
X124907241Y-99777159D01*
X124992283Y-99778495D01*
X125063845Y-99779620D01*
X125063848Y-99779620D01*
X125071443Y-99779739D01*
X125078851Y-99778042D01*
X125078854Y-99778042D01*
X125087873Y-99775977D01*
X125158739Y-99780267D01*
X125216037Y-99822190D01*
X125241573Y-99888435D01*
X125242000Y-99898797D01*
X125242000Y-102471514D01*
X125221998Y-102539635D01*
X125168342Y-102586128D01*
X125115342Y-102597512D01*
X125022332Y-102597025D01*
X125014952Y-102598797D01*
X125014950Y-102598797D01*
X124992179Y-102604264D01*
X124943662Y-102615912D01*
X124872756Y-102612365D01*
X124820476Y-102577216D01*
X124817239Y-102572507D01*
X124780345Y-102539635D01*
X124700295Y-102468312D01*
X124700291Y-102468309D01*
X124694624Y-102463260D01*
X124549489Y-102386416D01*
X124390214Y-102346408D01*
X124382616Y-102346368D01*
X124382614Y-102346368D01*
X124311858Y-102345998D01*
X124225993Y-102345549D01*
X124218614Y-102347321D01*
X124218610Y-102347321D01*
X124119786Y-102371047D01*
X124066308Y-102383886D01*
X123920377Y-102459206D01*
X123894908Y-102481424D01*
X123830427Y-102511130D01*
X123760120Y-102501260D01*
X123743548Y-102491854D01*
X123740073Y-102488758D01*
X123594938Y-102411914D01*
X123435663Y-102371906D01*
X123428065Y-102371866D01*
X123428063Y-102371866D01*
X123357307Y-102371496D01*
X123271442Y-102371047D01*
X123264063Y-102372819D01*
X123264059Y-102372819D01*
X123192630Y-102389968D01*
X123111757Y-102409384D01*
X122965826Y-102484704D01*
X122960106Y-102489694D01*
X122960103Y-102489696D01*
X122847798Y-102587666D01*
X122847795Y-102587669D01*
X122842073Y-102592661D01*
X122837708Y-102598871D01*
X122837705Y-102598875D01*
X122808439Y-102640517D01*
X122752904Y-102684749D01*
X122682272Y-102691934D01*
X122674656Y-102690270D01*
X122663836Y-102687552D01*
X122647107Y-102683350D01*
X122639509Y-102683310D01*
X122639507Y-102683310D01*
X122568751Y-102682940D01*
X122482886Y-102682491D01*
X122475507Y-102684263D01*
X122475503Y-102684263D01*
X122375098Y-102708369D01*
X122323201Y-102720828D01*
X122177270Y-102796148D01*
X122171550Y-102801138D01*
X122171547Y-102801140D01*
X122059242Y-102899110D01*
X122059239Y-102899113D01*
X122053517Y-102904105D01*
X121959088Y-103038464D01*
X121899434Y-103191469D01*
X121898443Y-103198996D01*
X121878989Y-103346756D01*
X121878989Y-103346760D01*
X121877998Y-103354287D01*
X121885184Y-103419377D01*
X121893710Y-103496602D01*
X121896019Y-103517518D01*
X121898628Y-103524649D01*
X121898629Y-103524651D01*
X121918617Y-103579270D01*
X121952456Y-103671739D01*
X121956693Y-103678045D01*
X121956695Y-103678048D01*
X121990023Y-103727644D01*
X122044051Y-103808046D01*
X122049669Y-103813158D01*
X122159894Y-103913456D01*
X122159898Y-103913459D01*
X122165515Y-103918570D01*
X122172188Y-103922193D01*
X122172192Y-103922196D01*
X122303164Y-103993307D01*
X122309837Y-103996930D01*
X122468685Y-104038603D01*
X122553727Y-104039939D01*
X122625289Y-104041064D01*
X122625292Y-104041064D01*
X122632887Y-104041183D01*
X122792966Y-104004520D01*
X122939678Y-103930732D01*
X123017393Y-103864357D01*
X123058782Y-103829007D01*
X123058783Y-103829006D01*
X123064554Y-103824077D01*
X123072400Y-103813158D01*
X123103181Y-103770323D01*
X123159176Y-103726676D01*
X123229879Y-103720230D01*
X123237475Y-103721974D01*
X123249887Y-103725230D01*
X123249889Y-103725230D01*
X123257241Y-103727159D01*
X123343668Y-103728517D01*
X123413845Y-103729620D01*
X123413848Y-103729620D01*
X123421443Y-103729739D01*
X123581522Y-103693076D01*
X123728234Y-103619288D01*
X123734007Y-103614357D01*
X123734012Y-103614354D01*
X123760224Y-103591967D01*
X123825014Y-103562936D01*
X123895214Y-103573541D01*
X123907738Y-103580824D01*
X123908622Y-103581628D01*
X123915295Y-103585251D01*
X123915299Y-103585254D01*
X124046271Y-103656365D01*
X124052944Y-103659988D01*
X124211792Y-103701661D01*
X124296834Y-103702997D01*
X124368396Y-103704122D01*
X124368399Y-103704122D01*
X124375994Y-103704241D01*
X124383398Y-103702545D01*
X124383400Y-103702545D01*
X124463093Y-103684293D01*
X124533960Y-103688582D01*
X124583460Y-103722621D01*
X124583497Y-103722580D01*
X124589115Y-103727692D01*
X124699340Y-103827990D01*
X124699344Y-103827993D01*
X124704961Y-103833104D01*
X124711634Y-103836727D01*
X124711638Y-103836730D01*
X124806078Y-103888006D01*
X124849283Y-103911464D01*
X125008131Y-103953137D01*
X125114729Y-103954812D01*
X125117980Y-103954863D01*
X125185778Y-103975932D01*
X125231422Y-104030312D01*
X125242000Y-104080847D01*
X125242000Y-106524731D01*
X125221998Y-106592852D01*
X125168342Y-106639345D01*
X125098068Y-106649449D01*
X125085314Y-106646937D01*
X124985663Y-106621906D01*
X124978065Y-106621866D01*
X124978063Y-106621866D01*
X124907307Y-106621496D01*
X124821442Y-106621047D01*
X124814063Y-106622819D01*
X124814059Y-106622819D01*
X124745225Y-106639345D01*
X124661757Y-106659384D01*
X124515826Y-106734704D01*
X124510106Y-106739694D01*
X124510103Y-106739696D01*
X124397798Y-106837666D01*
X124397795Y-106837669D01*
X124392073Y-106842661D01*
X124376363Y-106865014D01*
X124306544Y-106964357D01*
X124297644Y-106977020D01*
X124237990Y-107130025D01*
X124236999Y-107137552D01*
X124217545Y-107285312D01*
X124217545Y-107285316D01*
X124216554Y-107292843D01*
X124221958Y-107341794D01*
X124232881Y-107440727D01*
X124234575Y-107456074D01*
X124237184Y-107463205D01*
X124237185Y-107463207D01*
X124241948Y-107476222D01*
X124291012Y-107610295D01*
X124295249Y-107616601D01*
X124295251Y-107616604D01*
X124332365Y-107671834D01*
X124382607Y-107746602D01*
X124388225Y-107751714D01*
X124498450Y-107852012D01*
X124498454Y-107852015D01*
X124504071Y-107857126D01*
X124510744Y-107860749D01*
X124510748Y-107860752D01*
X124640683Y-107931300D01*
X124648393Y-107935486D01*
X124807241Y-107977159D01*
X124892283Y-107978495D01*
X124963845Y-107979620D01*
X124963848Y-107979620D01*
X124971443Y-107979739D01*
X124978847Y-107978043D01*
X124978849Y-107978043D01*
X125087871Y-107953074D01*
X125158738Y-107957363D01*
X125216036Y-107999286D01*
X125241573Y-108065530D01*
X125242000Y-108075894D01*
X125242000Y-108628700D01*
X125221998Y-108696821D01*
X125168342Y-108743314D01*
X125150117Y-108747278D01*
X125150798Y-108749596D01*
X125118176Y-108759175D01*
X125116971Y-108760565D01*
X125115300Y-108768248D01*
X125115300Y-110353732D01*
X125101998Y-110410081D01*
X124620864Y-111372349D01*
X124572509Y-111424333D01*
X124508166Y-111442000D01*
X122445238Y-111442000D01*
X122377117Y-111421998D01*
X122330624Y-111368342D01*
X122320520Y-111298068D01*
X122328331Y-111269004D01*
X122382860Y-111133359D01*
X122382860Y-111133358D01*
X122385694Y-111126309D01*
X122408833Y-110963725D01*
X122408983Y-110949411D01*
X122404382Y-110911385D01*
X122400925Y-110882818D01*
X122389254Y-110786377D01*
X122348284Y-110677953D01*
X122342916Y-110607162D01*
X122376673Y-110544705D01*
X122438839Y-110510413D01*
X122509676Y-110515174D01*
X122517397Y-110518309D01*
X122540979Y-110528808D01*
X122547012Y-110531494D01*
X122640412Y-110551347D01*
X122727356Y-110569828D01*
X122727361Y-110569828D01*
X122733813Y-110571200D01*
X122924787Y-110571200D01*
X122931239Y-110569828D01*
X122931244Y-110569828D01*
X123018187Y-110551347D01*
X123111588Y-110531494D01*
X123122783Y-110526510D01*
X123188129Y-110497416D01*
X123286052Y-110453818D01*
X123356418Y-110444384D01*
X123388547Y-110453818D01*
X123388548Y-110453818D01*
X123486471Y-110497416D01*
X123551818Y-110526510D01*
X123563012Y-110531494D01*
X123656412Y-110551347D01*
X123743356Y-110569828D01*
X123743361Y-110569828D01*
X123749813Y-110571200D01*
X123940787Y-110571200D01*
X123947239Y-110569828D01*
X123947244Y-110569828D01*
X124094872Y-110538448D01*
X124127588Y-110531494D01*
X124143030Y-110524619D01*
X124213396Y-110515186D01*
X124238505Y-110521745D01*
X124343691Y-110561178D01*
X124358949Y-110564805D01*
X124409814Y-110570331D01*
X124416628Y-110570700D01*
X124589185Y-110570700D01*
X124604424Y-110566225D01*
X124605629Y-110564835D01*
X124607300Y-110557152D01*
X124607300Y-110193637D01*
X124624181Y-110130637D01*
X124624505Y-110130077D01*
X124679827Y-110034256D01*
X124738842Y-109852628D01*
X124758804Y-109662700D01*
X124738842Y-109472772D01*
X124679827Y-109291144D01*
X124624181Y-109194762D01*
X124607300Y-109131763D01*
X124607300Y-108772816D01*
X124602825Y-108757577D01*
X124601435Y-108756372D01*
X124593752Y-108754701D01*
X124416631Y-108754701D01*
X124409810Y-108755071D01*
X124358948Y-108760595D01*
X124343694Y-108764222D01*
X124238505Y-108803655D01*
X124167698Y-108808838D01*
X124143031Y-108800782D01*
X124127588Y-108793906D01*
X124085960Y-108785058D01*
X123947244Y-108755572D01*
X123947239Y-108755572D01*
X123940787Y-108754200D01*
X123749813Y-108754200D01*
X123743361Y-108755572D01*
X123743356Y-108755572D01*
X123662232Y-108772816D01*
X123563012Y-108793906D01*
X123388548Y-108871582D01*
X123318182Y-108881016D01*
X123286053Y-108871582D01*
X123286052Y-108871582D01*
X123111588Y-108793906D01*
X123012368Y-108772816D01*
X122931244Y-108755572D01*
X122931239Y-108755572D01*
X122924787Y-108754200D01*
X122733813Y-108754200D01*
X122727361Y-108755572D01*
X122727356Y-108755572D01*
X122646232Y-108772816D01*
X122547012Y-108793906D01*
X122372548Y-108871582D01*
X122302182Y-108881016D01*
X122270053Y-108871582D01*
X122270052Y-108871582D01*
X122095588Y-108793906D01*
X121996368Y-108772816D01*
X121915244Y-108755572D01*
X121915239Y-108755572D01*
X121908787Y-108754200D01*
X121717813Y-108754200D01*
X121711361Y-108755572D01*
X121711356Y-108755572D01*
X121630232Y-108772816D01*
X121531012Y-108793906D01*
X121524982Y-108796591D01*
X121524981Y-108796591D01*
X121362578Y-108868897D01*
X121362576Y-108868898D01*
X121356548Y-108871582D01*
X121202047Y-108983834D01*
X121074260Y-109125756D01*
X120978773Y-109291144D01*
X120919758Y-109472772D01*
X120899796Y-109662700D01*
X120919758Y-109852628D01*
X120978773Y-110034256D01*
X121074260Y-110199644D01*
X121078678Y-110204551D01*
X121078679Y-110204552D01*
X121202047Y-110341566D01*
X121200043Y-110343371D01*
X121230996Y-110393637D01*
X121229630Y-110464620D01*
X121212526Y-110499253D01*
X121162572Y-110570331D01*
X121123144Y-110626431D01*
X121063490Y-110779436D01*
X121062499Y-110786963D01*
X121043045Y-110934723D01*
X121043045Y-110934727D01*
X121042054Y-110942254D01*
X121059711Y-111102189D01*
X121059711Y-111102190D01*
X121060075Y-111105485D01*
X121059526Y-111105546D01*
X121055896Y-111171254D01*
X121014277Y-111228772D01*
X120948168Y-111254659D01*
X120921350Y-111254148D01*
X120892487Y-111250502D01*
X120821231Y-111241500D01*
X120724390Y-111241500D01*
X120589745Y-111256603D01*
X120418448Y-111316255D01*
X120412476Y-111319986D01*
X120412471Y-111319989D01*
X120387553Y-111335560D01*
X120319184Y-111354696D01*
X120252527Y-111334617D01*
X120237685Y-111325052D01*
X120231762Y-111321235D01*
X120181193Y-111302829D01*
X120067934Y-111261606D01*
X120067933Y-111261606D01*
X120061315Y-111259197D01*
X119921231Y-111241500D01*
X119824390Y-111241500D01*
X119689745Y-111256603D01*
X119518448Y-111316255D01*
X119512476Y-111319986D01*
X119512471Y-111319989D01*
X119487553Y-111335560D01*
X119419184Y-111354696D01*
X119352527Y-111334617D01*
X119337685Y-111325052D01*
X119331762Y-111321235D01*
X119281193Y-111302829D01*
X119167934Y-111261606D01*
X119167933Y-111261606D01*
X119161315Y-111259197D01*
X119021231Y-111241500D01*
X118924390Y-111241500D01*
X118789745Y-111256603D01*
X118618448Y-111316255D01*
X118612476Y-111319986D01*
X118612471Y-111319989D01*
X118587553Y-111335560D01*
X118519184Y-111354696D01*
X118452527Y-111334617D01*
X118437685Y-111325052D01*
X118431762Y-111321235D01*
X118381193Y-111302829D01*
X118267934Y-111261606D01*
X118267933Y-111261606D01*
X118261315Y-111259197D01*
X118121231Y-111241500D01*
X118024390Y-111241500D01*
X117889745Y-111256603D01*
X117718448Y-111316255D01*
X117712476Y-111319986D01*
X117712471Y-111319989D01*
X117687553Y-111335560D01*
X117619184Y-111354696D01*
X117552527Y-111334617D01*
X117537685Y-111325052D01*
X117531762Y-111321235D01*
X117511711Y-111313937D01*
X117378905Y-111265599D01*
X117321734Y-111223504D01*
X117296396Y-111157183D01*
X117304213Y-111102452D01*
X117305554Y-111098921D01*
X117308055Y-111092338D01*
X117322787Y-110987516D01*
X117332748Y-110916639D01*
X117332748Y-110916636D01*
X117333299Y-110912717D01*
X117333616Y-110890000D01*
X117313397Y-110709745D01*
X117297138Y-110663056D01*
X117256064Y-110545106D01*
X117256062Y-110545103D01*
X117253745Y-110538448D01*
X117233046Y-110505323D01*
X117161359Y-110390598D01*
X117157626Y-110384624D01*
X117152664Y-110379627D01*
X117034778Y-110260915D01*
X117034774Y-110260912D01*
X117029815Y-110255918D01*
X117018697Y-110248862D01*
X116932131Y-110193926D01*
X116876666Y-110158727D01*
X116797780Y-110130637D01*
X116712425Y-110100243D01*
X116712420Y-110100242D01*
X116705790Y-110097881D01*
X116698802Y-110097048D01*
X116698799Y-110097047D01*
X116575698Y-110082368D01*
X116525680Y-110076404D01*
X116518677Y-110077140D01*
X116518676Y-110077140D01*
X116352288Y-110094628D01*
X116352286Y-110094629D01*
X116345288Y-110095364D01*
X116173579Y-110153818D01*
X116159457Y-110162506D01*
X116025090Y-110245169D01*
X116025087Y-110245171D01*
X116019088Y-110248862D01*
X115961630Y-110305129D01*
X115898966Y-110338498D01*
X115834536Y-110334937D01*
X115831323Y-110333893D01*
X115825288Y-110331206D01*
X115780039Y-110321588D01*
X115644944Y-110292872D01*
X115644939Y-110292872D01*
X115638487Y-110291500D01*
X115447513Y-110291500D01*
X115441061Y-110292872D01*
X115441056Y-110292872D01*
X115354112Y-110311353D01*
X115260712Y-110331206D01*
X115254682Y-110333891D01*
X115254681Y-110333891D01*
X115207786Y-110354770D01*
X115086248Y-110408882D01*
X115085063Y-110406221D01*
X115028416Y-110419938D01*
X114983216Y-110409190D01*
X114815159Y-110334366D01*
X114802680Y-110330311D01*
X114628893Y-110293373D01*
X114615832Y-110292000D01*
X114438168Y-110292000D01*
X114425107Y-110293373D01*
X114251320Y-110330311D01*
X114238841Y-110334366D01*
X114104367Y-110394239D01*
X114103819Y-110394704D01*
X114081360Y-110404703D01*
X114108095Y-110421885D01*
X114611414Y-110925204D01*
X114645440Y-110987516D01*
X114647629Y-111027469D01*
X114637241Y-111126309D01*
X114629496Y-111200000D01*
X114639804Y-111298068D01*
X114640304Y-111302829D01*
X114627532Y-111372668D01*
X114579030Y-111424514D01*
X114514994Y-111442000D01*
X114229980Y-111442000D01*
X114161859Y-111421998D01*
X114115366Y-111368342D01*
X114105262Y-111298068D01*
X114134756Y-111233488D01*
X114140885Y-111226905D01*
X114154978Y-111212812D01*
X114162592Y-111198868D01*
X114162461Y-111197035D01*
X114158210Y-111190420D01*
X114031812Y-111064022D01*
X114017868Y-111056408D01*
X114016035Y-111056539D01*
X114009420Y-111060790D01*
X113883022Y-111187188D01*
X113875408Y-111201132D01*
X113875539Y-111202965D01*
X113879790Y-111209580D01*
X113897115Y-111226905D01*
X113931141Y-111289217D01*
X113926076Y-111360032D01*
X113883529Y-111416868D01*
X113817009Y-111441679D01*
X113808020Y-111442000D01*
X113529500Y-111442000D01*
X113461379Y-111421998D01*
X113414886Y-111368342D01*
X113403500Y-111316000D01*
X113403500Y-111000480D01*
X113423502Y-110932359D01*
X113440405Y-110911385D01*
X113929905Y-110421885D01*
X113957502Y-110406816D01*
X113943740Y-110398739D01*
X113799159Y-110334366D01*
X113786680Y-110330311D01*
X113612893Y-110293373D01*
X113599832Y-110292000D01*
X113422168Y-110292000D01*
X113409107Y-110293373D01*
X113235328Y-110330310D01*
X113222834Y-110334370D01*
X113214590Y-110338040D01*
X113144223Y-110347474D01*
X113119113Y-110340915D01*
X113012718Y-110301029D01*
X113012712Y-110301027D01*
X113005316Y-110298255D01*
X112943134Y-110291500D01*
X112046866Y-110291500D01*
X111984684Y-110298255D01*
X111848295Y-110349385D01*
X111841109Y-110354770D01*
X111841110Y-110354770D01*
X111831500Y-110361972D01*
X111764992Y-110386818D01*
X111695610Y-110371764D01*
X111645382Y-110321588D01*
X111641930Y-110314794D01*
X111569993Y-110161928D01*
X111558000Y-110108278D01*
X111558000Y-107157444D01*
X111578002Y-107089323D01*
X111631658Y-107042830D01*
X111701932Y-107032726D01*
X111766512Y-107062220D01*
X111774634Y-107069914D01*
X111781382Y-107076902D01*
X111801123Y-107089820D01*
X111862563Y-107130025D01*
X111933159Y-107176222D01*
X111939763Y-107178678D01*
X111939765Y-107178679D01*
X112096558Y-107236990D01*
X112096560Y-107236990D01*
X112103168Y-107239448D01*
X112186995Y-107250633D01*
X112275980Y-107262507D01*
X112275984Y-107262507D01*
X112282961Y-107263438D01*
X112289972Y-107262800D01*
X112289976Y-107262800D01*
X112432459Y-107249832D01*
X112463600Y-107246998D01*
X112470302Y-107244820D01*
X112470304Y-107244820D01*
X112629409Y-107193124D01*
X112629412Y-107193123D01*
X112636108Y-107190947D01*
X112760209Y-107116968D01*
X112781460Y-107104300D01*
X113605097Y-107104300D01*
X113607646Y-107127389D01*
X113621441Y-107252338D01*
X113623118Y-107267531D01*
X113625727Y-107274662D01*
X113625728Y-107274664D01*
X113639577Y-107312507D01*
X113679555Y-107421752D01*
X113683792Y-107428058D01*
X113683794Y-107428061D01*
X113725181Y-107489650D01*
X113771150Y-107558059D01*
X113773236Y-107559957D01*
X113801762Y-107622737D01*
X113794404Y-107686201D01*
X113738227Y-107830288D01*
X113737236Y-107837815D01*
X113717782Y-107985575D01*
X113717782Y-107985579D01*
X113716791Y-107993106D01*
X113734812Y-108156337D01*
X113737421Y-108163468D01*
X113737422Y-108163470D01*
X113745012Y-108184211D01*
X113791249Y-108310558D01*
X113795486Y-108316864D01*
X113795488Y-108316867D01*
X113805127Y-108331211D01*
X113882844Y-108446865D01*
X113888462Y-108451977D01*
X113998687Y-108552275D01*
X113998691Y-108552278D01*
X114004308Y-108557389D01*
X114010981Y-108561012D01*
X114010985Y-108561015D01*
X114135647Y-108628700D01*
X114148630Y-108635749D01*
X114307478Y-108677422D01*
X114392520Y-108678758D01*
X114464082Y-108679883D01*
X114464085Y-108679883D01*
X114471680Y-108680002D01*
X114631759Y-108643339D01*
X114778471Y-108569551D01*
X114903347Y-108462896D01*
X114999178Y-108329533D01*
X115005449Y-108313935D01*
X115057597Y-108184211D01*
X115057597Y-108184210D01*
X115060431Y-108177161D01*
X115083570Y-108014577D01*
X115083720Y-108000263D01*
X115081237Y-107979739D01*
X115070076Y-107887512D01*
X115063991Y-107837229D01*
X115005942Y-107683608D01*
X114961812Y-107619399D01*
X114917227Y-107554527D01*
X114917226Y-107554526D01*
X114912925Y-107548268D01*
X114913795Y-107547670D01*
X114886695Y-107489650D01*
X114894347Y-107423655D01*
X114948737Y-107288355D01*
X114962600Y-107190947D01*
X114968146Y-107151981D01*
X114997547Y-107087358D01*
X115057218Y-107048890D01*
X115064761Y-107046915D01*
X115070270Y-107045653D01*
X115081522Y-107043076D01*
X115228234Y-106969288D01*
X115319535Y-106891309D01*
X115347338Y-106867563D01*
X115347339Y-106867562D01*
X115353110Y-106862633D01*
X115442208Y-106738640D01*
X115836463Y-106738640D01*
X115854163Y-106919160D01*
X115911418Y-107091273D01*
X115915065Y-107097295D01*
X115915066Y-107097297D01*
X116001720Y-107240380D01*
X116005380Y-107246424D01*
X116010269Y-107251487D01*
X116010270Y-107251488D01*
X116067546Y-107310798D01*
X116131382Y-107376902D01*
X116137278Y-107380760D01*
X116252370Y-107456074D01*
X116283159Y-107476222D01*
X116289763Y-107478678D01*
X116289765Y-107478679D01*
X116446558Y-107536990D01*
X116446560Y-107536990D01*
X116453168Y-107539448D01*
X116536995Y-107550633D01*
X116625980Y-107562507D01*
X116625984Y-107562507D01*
X116632961Y-107563438D01*
X116639972Y-107562800D01*
X116639976Y-107562800D01*
X116732357Y-107554392D01*
X116802010Y-107568137D01*
X116853175Y-107617358D01*
X116869606Y-107686427D01*
X116868700Y-107696314D01*
X116866194Y-107715344D01*
X116861996Y-107747235D01*
X116861004Y-107754766D01*
X116865239Y-107793124D01*
X116873002Y-107863438D01*
X116879025Y-107917997D01*
X116881634Y-107925128D01*
X116881635Y-107925130D01*
X116889225Y-107945871D01*
X116935462Y-108072218D01*
X116939699Y-108078524D01*
X116939701Y-108078527D01*
X116952356Y-108097359D01*
X117027057Y-108208525D01*
X117032675Y-108213637D01*
X117142900Y-108313935D01*
X117142904Y-108313938D01*
X117148521Y-108319049D01*
X117155194Y-108322672D01*
X117155198Y-108322675D01*
X117286170Y-108393786D01*
X117292843Y-108397409D01*
X117451691Y-108439082D01*
X117536733Y-108440418D01*
X117608295Y-108441543D01*
X117608298Y-108441543D01*
X117615893Y-108441662D01*
X117775972Y-108404999D01*
X117922684Y-108331211D01*
X118047560Y-108224556D01*
X118143391Y-108091193D01*
X118153708Y-108065530D01*
X118201810Y-107945871D01*
X118201810Y-107945870D01*
X118204644Y-107938821D01*
X118225380Y-107793124D01*
X118227202Y-107780321D01*
X118227202Y-107780317D01*
X118227783Y-107776237D01*
X118227933Y-107761923D01*
X118208204Y-107598889D01*
X118150155Y-107445268D01*
X118129088Y-107414616D01*
X118061440Y-107316187D01*
X118061439Y-107316186D01*
X118057138Y-107309928D01*
X117957394Y-107221059D01*
X117919840Y-107160809D01*
X117920821Y-107089820D01*
X117960025Y-107030629D01*
X118025007Y-107002031D01*
X118073187Y-107005108D01*
X118157241Y-107027159D01*
X118242283Y-107028495D01*
X118313845Y-107029620D01*
X118313848Y-107029620D01*
X118321443Y-107029739D01*
X118481522Y-106993076D01*
X118628234Y-106919288D01*
X118629089Y-106920988D01*
X118687399Y-106902896D01*
X118752560Y-106920954D01*
X118752791Y-106920529D01*
X118754628Y-106921527D01*
X118754630Y-106921528D01*
X118758398Y-106923573D01*
X118758402Y-106923576D01*
X118890440Y-106995266D01*
X118897113Y-106998889D01*
X118904453Y-107000815D01*
X118904459Y-107000817D01*
X118932459Y-107008162D01*
X118993275Y-107044795D01*
X119024631Y-107108492D01*
X119016572Y-107179030D01*
X118983318Y-107224986D01*
X118892073Y-107304584D01*
X118861546Y-107348019D01*
X118809621Y-107421902D01*
X118797644Y-107438943D01*
X118737990Y-107591948D01*
X118736999Y-107599475D01*
X118717545Y-107747235D01*
X118717545Y-107747236D01*
X118716554Y-107754766D01*
X118720789Y-107793124D01*
X118728552Y-107863438D01*
X118734575Y-107917997D01*
X118737184Y-107925128D01*
X118737185Y-107925130D01*
X118744775Y-107945871D01*
X118791012Y-108072218D01*
X118795249Y-108078524D01*
X118795251Y-108078527D01*
X118807906Y-108097359D01*
X118882607Y-108208525D01*
X118888225Y-108213637D01*
X118998450Y-108313935D01*
X118998454Y-108313938D01*
X119004071Y-108319049D01*
X119010744Y-108322672D01*
X119010748Y-108322675D01*
X119141720Y-108393786D01*
X119148393Y-108397409D01*
X119307241Y-108439082D01*
X119392283Y-108440418D01*
X119463845Y-108441543D01*
X119463848Y-108441543D01*
X119471443Y-108441662D01*
X119631522Y-108404999D01*
X119778234Y-108331211D01*
X119903110Y-108224556D01*
X119998941Y-108091193D01*
X120009258Y-108065530D01*
X120057360Y-107945871D01*
X120057360Y-107945870D01*
X120060194Y-107938821D01*
X120080930Y-107793124D01*
X120082752Y-107780321D01*
X120082752Y-107780317D01*
X120083333Y-107776237D01*
X120083483Y-107761923D01*
X120075756Y-107698069D01*
X120065792Y-107615727D01*
X120077465Y-107545696D01*
X120125147Y-107493094D01*
X120193698Y-107474622D01*
X120261354Y-107496143D01*
X120298655Y-107535320D01*
X120305380Y-107546424D01*
X120310269Y-107551487D01*
X120310270Y-107551488D01*
X120373881Y-107617358D01*
X120431382Y-107676902D01*
X120583159Y-107776222D01*
X120589763Y-107778678D01*
X120589765Y-107778679D01*
X120746558Y-107836990D01*
X120746560Y-107836990D01*
X120753168Y-107839448D01*
X120836995Y-107850633D01*
X120925980Y-107862507D01*
X120925984Y-107862507D01*
X120932961Y-107863438D01*
X120939972Y-107862800D01*
X120939976Y-107862800D01*
X121082459Y-107849832D01*
X121113600Y-107846998D01*
X121120302Y-107844820D01*
X121120304Y-107844820D01*
X121279409Y-107793124D01*
X121279412Y-107793123D01*
X121286108Y-107790947D01*
X121441912Y-107698069D01*
X121573266Y-107572982D01*
X121673643Y-107421902D01*
X121692663Y-107371834D01*
X121701709Y-107348019D01*
X121744598Y-107291441D01*
X121811267Y-107267032D01*
X121863416Y-107274665D01*
X121896563Y-107286992D01*
X121896566Y-107286993D01*
X121903168Y-107289448D01*
X121910149Y-107290379D01*
X121910151Y-107290380D01*
X122075980Y-107312507D01*
X122075984Y-107312507D01*
X122082961Y-107313438D01*
X122089972Y-107312800D01*
X122089976Y-107312800D01*
X122235087Y-107299593D01*
X122263600Y-107296998D01*
X122270302Y-107294820D01*
X122270304Y-107294820D01*
X122429409Y-107243124D01*
X122429412Y-107243123D01*
X122436108Y-107240947D01*
X122551157Y-107172364D01*
X122585860Y-107151677D01*
X122585862Y-107151676D01*
X122591912Y-107148069D01*
X122723266Y-107022982D01*
X122823643Y-106871902D01*
X122877083Y-106731221D01*
X122885555Y-106708920D01*
X122885556Y-106708918D01*
X122888055Y-106702338D01*
X122890679Y-106683669D01*
X122912748Y-106526639D01*
X122912748Y-106526636D01*
X122913299Y-106522717D01*
X122913616Y-106500000D01*
X122893397Y-106319745D01*
X122890542Y-106311547D01*
X122836064Y-106155106D01*
X122836062Y-106155103D01*
X122833745Y-106148448D01*
X122789112Y-106077020D01*
X122741359Y-106000598D01*
X122737626Y-105994624D01*
X122701139Y-105957881D01*
X122614778Y-105870915D01*
X122614774Y-105870912D01*
X122609815Y-105865918D01*
X122598697Y-105858862D01*
X122525079Y-105812143D01*
X122456666Y-105768727D01*
X122412174Y-105752884D01*
X122292425Y-105710243D01*
X122292420Y-105710242D01*
X122285790Y-105707881D01*
X122278802Y-105707048D01*
X122278799Y-105707047D01*
X122155698Y-105692368D01*
X122105680Y-105686404D01*
X122098677Y-105687140D01*
X122098676Y-105687140D01*
X121932288Y-105704628D01*
X121932286Y-105704629D01*
X121925288Y-105705364D01*
X121753579Y-105763818D01*
X121697843Y-105798107D01*
X121605095Y-105855166D01*
X121605092Y-105855168D01*
X121599088Y-105858862D01*
X121594053Y-105863793D01*
X121594050Y-105863795D01*
X121497973Y-105957881D01*
X121469493Y-105985771D01*
X121371235Y-106138238D01*
X121368824Y-106144862D01*
X121368823Y-106144864D01*
X121348466Y-106200795D01*
X121306372Y-106257967D01*
X121240051Y-106283305D01*
X121187799Y-106276400D01*
X121142428Y-106260244D01*
X121142422Y-106260243D01*
X121135790Y-106257881D01*
X121128802Y-106257048D01*
X121128799Y-106257047D01*
X121005698Y-106242368D01*
X120955680Y-106236404D01*
X120948677Y-106237140D01*
X120948676Y-106237140D01*
X120782288Y-106254628D01*
X120782286Y-106254629D01*
X120775288Y-106255364D01*
X120603579Y-106313818D01*
X120572721Y-106332802D01*
X120455095Y-106405166D01*
X120455092Y-106405168D01*
X120449088Y-106408862D01*
X120444053Y-106413793D01*
X120444050Y-106413795D01*
X120328818Y-106526639D01*
X120319493Y-106535771D01*
X120221235Y-106688238D01*
X120218826Y-106694858D01*
X120218824Y-106694861D01*
X120161606Y-106852066D01*
X120159197Y-106858685D01*
X120136463Y-107038640D01*
X120154163Y-107219160D01*
X120157520Y-107229250D01*
X120157987Y-107230654D01*
X120160510Y-107301606D01*
X120124274Y-107362659D01*
X120060782Y-107394428D01*
X119990194Y-107386829D01*
X119934589Y-107341794D01*
X119916990Y-107316187D01*
X119916989Y-107316186D01*
X119912688Y-107309928D01*
X119903348Y-107301606D01*
X119795744Y-107205733D01*
X119795740Y-107205730D01*
X119790073Y-107200681D01*
X119678753Y-107141741D01*
X119651647Y-107127389D01*
X119651646Y-107127389D01*
X119644938Y-107123837D01*
X119637576Y-107121988D01*
X119637574Y-107121987D01*
X119617592Y-107116968D01*
X119556396Y-107080973D01*
X119524375Y-107017608D01*
X119531695Y-106946990D01*
X119566456Y-106898953D01*
X119646058Y-106830966D01*
X119646059Y-106830965D01*
X119651830Y-106826036D01*
X119747661Y-106692673D01*
X119776439Y-106621087D01*
X119806080Y-106547351D01*
X119806080Y-106547350D01*
X119808914Y-106540301D01*
X119827432Y-106410189D01*
X119831472Y-106381801D01*
X119831472Y-106381797D01*
X119832053Y-106377717D01*
X119832203Y-106363403D01*
X119830542Y-106349672D01*
X119820064Y-106263091D01*
X119812474Y-106200369D01*
X119754425Y-106046748D01*
X119715167Y-105989627D01*
X119665710Y-105917667D01*
X119665709Y-105917666D01*
X119661408Y-105911408D01*
X119655737Y-105906355D01*
X119544464Y-105807213D01*
X119544460Y-105807210D01*
X119538793Y-105802161D01*
X119393658Y-105725317D01*
X119234383Y-105685309D01*
X119226785Y-105685269D01*
X119226783Y-105685269D01*
X119156027Y-105684899D01*
X119070162Y-105684450D01*
X119062783Y-105686222D01*
X119062779Y-105686222D01*
X118973598Y-105707633D01*
X118910477Y-105722787D01*
X118797262Y-105781221D01*
X118767328Y-105796671D01*
X118697621Y-105810140D01*
X118640659Y-105789280D01*
X118640073Y-105788758D01*
X118516760Y-105723468D01*
X118501647Y-105715466D01*
X118501646Y-105715466D01*
X118494938Y-105711914D01*
X118335663Y-105671906D01*
X118328065Y-105671866D01*
X118328063Y-105671866D01*
X118257307Y-105671496D01*
X118171442Y-105671047D01*
X118164063Y-105672819D01*
X118164059Y-105672819D01*
X118063654Y-105696925D01*
X118011757Y-105709384D01*
X117865826Y-105784704D01*
X117860106Y-105789694D01*
X117860103Y-105789696D01*
X117747798Y-105887666D01*
X117747795Y-105887669D01*
X117742073Y-105892661D01*
X117724499Y-105917667D01*
X117655135Y-106016362D01*
X117647644Y-106027020D01*
X117587990Y-106180025D01*
X117586999Y-106187552D01*
X117574501Y-106282480D01*
X117545778Y-106347407D01*
X117486513Y-106386498D01*
X117415521Y-106387343D01*
X117355343Y-106349672D01*
X117342725Y-106332802D01*
X117330409Y-106313091D01*
X117287626Y-106244624D01*
X117280603Y-106237552D01*
X117164778Y-106120915D01*
X117164774Y-106120912D01*
X117159815Y-106115918D01*
X117148697Y-106108862D01*
X117088725Y-106070803D01*
X117006666Y-106018727D01*
X116938977Y-105994624D01*
X116842425Y-105960243D01*
X116842420Y-105960242D01*
X116835790Y-105957881D01*
X116828802Y-105957048D01*
X116828799Y-105957047D01*
X116705698Y-105942368D01*
X116655680Y-105936404D01*
X116648677Y-105937140D01*
X116648676Y-105937140D01*
X116482288Y-105954628D01*
X116482286Y-105954629D01*
X116475288Y-105955364D01*
X116303579Y-106013818D01*
X116260225Y-106040490D01*
X116155095Y-106105166D01*
X116155092Y-106105168D01*
X116149088Y-106108862D01*
X116144053Y-106113793D01*
X116144050Y-106113795D01*
X116024525Y-106230843D01*
X116019493Y-106235771D01*
X115921235Y-106388238D01*
X115918826Y-106394858D01*
X115918824Y-106394861D01*
X115865023Y-106542678D01*
X115859197Y-106558685D01*
X115836463Y-106738640D01*
X115442208Y-106738640D01*
X115448941Y-106729270D01*
X115462571Y-106695366D01*
X115507360Y-106583948D01*
X115507360Y-106583947D01*
X115510194Y-106576898D01*
X115533333Y-106414314D01*
X115533483Y-106400000D01*
X115531952Y-106387343D01*
X115522433Y-106308685D01*
X115513754Y-106236966D01*
X115455705Y-106083345D01*
X115435434Y-106053851D01*
X115366990Y-105954264D01*
X115366989Y-105954263D01*
X115362688Y-105948005D01*
X115351084Y-105937666D01*
X115245744Y-105843810D01*
X115245740Y-105843807D01*
X115240073Y-105838758D01*
X115094938Y-105761914D01*
X114935663Y-105721906D01*
X114928065Y-105721866D01*
X114928063Y-105721866D01*
X114857307Y-105721496D01*
X114771442Y-105721047D01*
X114764063Y-105722819D01*
X114764059Y-105722819D01*
X114670792Y-105745211D01*
X114611757Y-105759384D01*
X114465826Y-105834704D01*
X114460106Y-105839694D01*
X114460103Y-105839696D01*
X114347798Y-105937666D01*
X114347795Y-105937669D01*
X114342073Y-105942661D01*
X114331551Y-105957633D01*
X114273318Y-106040490D01*
X114247644Y-106077020D01*
X114187990Y-106230025D01*
X114186999Y-106237552D01*
X114171048Y-106358710D01*
X114142325Y-106423637D01*
X114083060Y-106462728D01*
X114075537Y-106464782D01*
X114057690Y-106469066D01*
X114057684Y-106469068D01*
X114050300Y-106470841D01*
X113904369Y-106546161D01*
X113898649Y-106551151D01*
X113898646Y-106551153D01*
X113786341Y-106649123D01*
X113786338Y-106649126D01*
X113780616Y-106654118D01*
X113686187Y-106788477D01*
X113626533Y-106941482D01*
X113625542Y-106949009D01*
X113606088Y-107096769D01*
X113606088Y-107096773D01*
X113605097Y-107104300D01*
X112781460Y-107104300D01*
X112785860Y-107101677D01*
X112785862Y-107101676D01*
X112791912Y-107098069D01*
X112923266Y-106972982D01*
X113023643Y-106821902D01*
X113075411Y-106685624D01*
X113085555Y-106658920D01*
X113085556Y-106658918D01*
X113088055Y-106652338D01*
X113097667Y-106583948D01*
X113112748Y-106476639D01*
X113112748Y-106476636D01*
X113113299Y-106472717D01*
X113113616Y-106450000D01*
X113093397Y-106269745D01*
X113091080Y-106263091D01*
X113036064Y-106105106D01*
X113036062Y-106105103D01*
X113033745Y-106098448D01*
X113027365Y-106088238D01*
X112941359Y-105950598D01*
X112937626Y-105944624D01*
X112932664Y-105939627D01*
X112814778Y-105820915D01*
X112814774Y-105820912D01*
X112809815Y-105815918D01*
X112800711Y-105810140D01*
X112720731Y-105759384D01*
X112656666Y-105718727D01*
X112617071Y-105704628D01*
X112492425Y-105660243D01*
X112492420Y-105660242D01*
X112485790Y-105657881D01*
X112478802Y-105657048D01*
X112478799Y-105657047D01*
X112355698Y-105642368D01*
X112305680Y-105636404D01*
X112298677Y-105637140D01*
X112298676Y-105637140D01*
X112132288Y-105654628D01*
X112132286Y-105654629D01*
X112125288Y-105655364D01*
X111953579Y-105713818D01*
X111929114Y-105728869D01*
X111805095Y-105805166D01*
X111805092Y-105805168D01*
X111799088Y-105808862D01*
X111794053Y-105813793D01*
X111794050Y-105813795D01*
X111788061Y-105819660D01*
X111772187Y-105835206D01*
X111772158Y-105835234D01*
X111709493Y-105868605D01*
X111638734Y-105862799D01*
X111582347Y-105819660D01*
X111558234Y-105752884D01*
X111558000Y-105745211D01*
X111558000Y-104942843D01*
X123366554Y-104942843D01*
X123384575Y-105106074D01*
X123387184Y-105113205D01*
X123387185Y-105113207D01*
X123394775Y-105133948D01*
X123441012Y-105260295D01*
X123445249Y-105266601D01*
X123445251Y-105266604D01*
X123457906Y-105285436D01*
X123532607Y-105396602D01*
X123538225Y-105401714D01*
X123648450Y-105502012D01*
X123648454Y-105502015D01*
X123654071Y-105507126D01*
X123660744Y-105510749D01*
X123660748Y-105510752D01*
X123791720Y-105581863D01*
X123798393Y-105585486D01*
X123957241Y-105627159D01*
X124042283Y-105628495D01*
X124113845Y-105629620D01*
X124113848Y-105629620D01*
X124121443Y-105629739D01*
X124281522Y-105593076D01*
X124428234Y-105519288D01*
X124553110Y-105412633D01*
X124648941Y-105279270D01*
X124710194Y-105126898D01*
X124733333Y-104964314D01*
X124733483Y-104950000D01*
X124713754Y-104786966D01*
X124655705Y-104633345D01*
X124562688Y-104498005D01*
X124551084Y-104487666D01*
X124445744Y-104393810D01*
X124445740Y-104393807D01*
X124440073Y-104388758D01*
X124294938Y-104311914D01*
X124135663Y-104271906D01*
X124128065Y-104271866D01*
X124128063Y-104271866D01*
X124057307Y-104271496D01*
X123971442Y-104271047D01*
X123964063Y-104272819D01*
X123964059Y-104272819D01*
X123889652Y-104290683D01*
X123811757Y-104309384D01*
X123665826Y-104384704D01*
X123660106Y-104389694D01*
X123660103Y-104389696D01*
X123547798Y-104487666D01*
X123547795Y-104487669D01*
X123542073Y-104492661D01*
X123447644Y-104627020D01*
X123387990Y-104780025D01*
X123386999Y-104787552D01*
X123367545Y-104935312D01*
X123367545Y-104935316D01*
X123366554Y-104942843D01*
X111558000Y-104942843D01*
X111558000Y-104050231D01*
X111578002Y-103982110D01*
X111631658Y-103935617D01*
X111700728Y-103925450D01*
X111707241Y-103927159D01*
X111793668Y-103928517D01*
X111863845Y-103929620D01*
X111863848Y-103929620D01*
X111871443Y-103929739D01*
X112031522Y-103893076D01*
X112178234Y-103819288D01*
X112283815Y-103729113D01*
X112297338Y-103717563D01*
X112297339Y-103717562D01*
X112303110Y-103712633D01*
X112398941Y-103579270D01*
X112405508Y-103562936D01*
X112457360Y-103433948D01*
X112457360Y-103433947D01*
X112460194Y-103426898D01*
X112483333Y-103264314D01*
X112483483Y-103250000D01*
X112463754Y-103086966D01*
X112405705Y-102933345D01*
X112382176Y-102899110D01*
X112343505Y-102842843D01*
X114866543Y-102842843D01*
X114875204Y-102921290D01*
X114882839Y-102990448D01*
X114884564Y-103006074D01*
X114941001Y-103160295D01*
X114945238Y-103166601D01*
X114945240Y-103166604D01*
X114961949Y-103191469D01*
X115032596Y-103296602D01*
X115038214Y-103301714D01*
X115148439Y-103402012D01*
X115148443Y-103402015D01*
X115154060Y-103407126D01*
X115160737Y-103410751D01*
X115162262Y-103411835D01*
X115206202Y-103467601D01*
X115214194Y-103530987D01*
X115205601Y-103596255D01*
X115205601Y-103596260D01*
X115204610Y-103603787D01*
X115211324Y-103664603D01*
X115221423Y-103756074D01*
X115222631Y-103767018D01*
X115225240Y-103774149D01*
X115225241Y-103774151D01*
X115232831Y-103794892D01*
X115279068Y-103921239D01*
X115283305Y-103927545D01*
X115283307Y-103927548D01*
X115319972Y-103982110D01*
X115370663Y-104057546D01*
X115376281Y-104062658D01*
X115486506Y-104162956D01*
X115486510Y-104162959D01*
X115492127Y-104168070D01*
X115498800Y-104171693D01*
X115498804Y-104171696D01*
X115629776Y-104242807D01*
X115636449Y-104246430D01*
X115795297Y-104288103D01*
X115880339Y-104289439D01*
X115951901Y-104290564D01*
X115951904Y-104290564D01*
X115959499Y-104290683D01*
X116119578Y-104254020D01*
X116266290Y-104180232D01*
X116391166Y-104073577D01*
X116486997Y-103940214D01*
X116492198Y-103927278D01*
X116545416Y-103794892D01*
X116545416Y-103794891D01*
X116548250Y-103787842D01*
X116570070Y-103634529D01*
X116599470Y-103569907D01*
X116638197Y-103539719D01*
X116723926Y-103496602D01*
X116771451Y-103472700D01*
X116771454Y-103472698D01*
X116778234Y-103469288D01*
X116884189Y-103378793D01*
X116948979Y-103349762D01*
X117019179Y-103360367D01*
X117070601Y-103404328D01*
X117132607Y-103496602D01*
X117138225Y-103501714D01*
X117248450Y-103602012D01*
X117248454Y-103602015D01*
X117254071Y-103607126D01*
X117260744Y-103610749D01*
X117260748Y-103610752D01*
X117359931Y-103664603D01*
X117398393Y-103685486D01*
X117557241Y-103727159D01*
X117564836Y-103727278D01*
X117564841Y-103727279D01*
X117588084Y-103727644D01*
X117655882Y-103748714D01*
X117701525Y-103803094D01*
X117704427Y-103810322D01*
X117741012Y-103910295D01*
X117745249Y-103916601D01*
X117745251Y-103916604D01*
X117771534Y-103955717D01*
X117832607Y-104046602D01*
X117838225Y-104051714D01*
X117948450Y-104152012D01*
X117948454Y-104152015D01*
X117954071Y-104157126D01*
X117960744Y-104160749D01*
X117960748Y-104160752D01*
X118091720Y-104231863D01*
X118098393Y-104235486D01*
X118257241Y-104277159D01*
X118342283Y-104278495D01*
X118413845Y-104279620D01*
X118413848Y-104279620D01*
X118421443Y-104279739D01*
X118581522Y-104243076D01*
X118728234Y-104169288D01*
X118834524Y-104078507D01*
X118847338Y-104067563D01*
X118847339Y-104067562D01*
X118853110Y-104062633D01*
X118862022Y-104050231D01*
X118886633Y-104015982D01*
X118942628Y-103972335D01*
X119013331Y-103965889D01*
X119020927Y-103967633D01*
X119049887Y-103975230D01*
X119049889Y-103975230D01*
X119057241Y-103977159D01*
X119143668Y-103978517D01*
X119213845Y-103979620D01*
X119213848Y-103979620D01*
X119221443Y-103979739D01*
X119381522Y-103943076D01*
X119528234Y-103869288D01*
X119653110Y-103762633D01*
X119748941Y-103629270D01*
X119766636Y-103585254D01*
X119807360Y-103483948D01*
X119807360Y-103483947D01*
X119810194Y-103476898D01*
X119833333Y-103314314D01*
X119833483Y-103300000D01*
X119828666Y-103260189D01*
X119819493Y-103184395D01*
X119813754Y-103136966D01*
X119755705Y-102983345D01*
X119713479Y-102921906D01*
X119666990Y-102854264D01*
X119666989Y-102854263D01*
X119662688Y-102848005D01*
X119657017Y-102842952D01*
X119545744Y-102743810D01*
X119545740Y-102743807D01*
X119540073Y-102738758D01*
X119394938Y-102661914D01*
X119235663Y-102621906D01*
X119228065Y-102621866D01*
X119228063Y-102621866D01*
X119157307Y-102621496D01*
X119071442Y-102621047D01*
X119064063Y-102622819D01*
X119064059Y-102622819D01*
X118963654Y-102646925D01*
X118911757Y-102659384D01*
X118765826Y-102734704D01*
X118760106Y-102739694D01*
X118760103Y-102739696D01*
X118647798Y-102837666D01*
X118647795Y-102837669D01*
X118642073Y-102842661D01*
X118637705Y-102848875D01*
X118637704Y-102848877D01*
X118613557Y-102883234D01*
X118558022Y-102927465D01*
X118487390Y-102934650D01*
X118479776Y-102932986D01*
X118443034Y-102923757D01*
X118443030Y-102923757D01*
X118435663Y-102921906D01*
X118428064Y-102921866D01*
X118428062Y-102921866D01*
X118413337Y-102921789D01*
X118345322Y-102901430D01*
X118299111Y-102847532D01*
X118296131Y-102840329D01*
X118258389Y-102740448D01*
X118255705Y-102733345D01*
X118222620Y-102685206D01*
X118166990Y-102604264D01*
X118166989Y-102604263D01*
X118162688Y-102598005D01*
X118149358Y-102586128D01*
X118045744Y-102493810D01*
X118045740Y-102493807D01*
X118040073Y-102488758D01*
X117894938Y-102411914D01*
X117798405Y-102387666D01*
X117764929Y-102379257D01*
X117703733Y-102343262D01*
X117671713Y-102279896D01*
X117670882Y-102239299D01*
X117677631Y-102191884D01*
X117683333Y-102151816D01*
X117683483Y-102137502D01*
X117681945Y-102124788D01*
X117670237Y-102028043D01*
X117663754Y-101974468D01*
X117605705Y-101820847D01*
X117512688Y-101685507D01*
X117501084Y-101675168D01*
X117395744Y-101581312D01*
X117395740Y-101581309D01*
X117390073Y-101576260D01*
X117244938Y-101499416D01*
X117085663Y-101459408D01*
X117078065Y-101459368D01*
X117078063Y-101459368D01*
X117007307Y-101458998D01*
X116921442Y-101458549D01*
X116914063Y-101460321D01*
X116914059Y-101460321D01*
X116813654Y-101484427D01*
X116761757Y-101496886D01*
X116615826Y-101572206D01*
X116610106Y-101577196D01*
X116610103Y-101577198D01*
X116497798Y-101675168D01*
X116497795Y-101675171D01*
X116492073Y-101680163D01*
X116452061Y-101737094D01*
X116403304Y-101806469D01*
X116397644Y-101814522D01*
X116337990Y-101967527D01*
X116316554Y-102130345D01*
X116315627Y-102130223D01*
X116296816Y-102191884D01*
X116242675Y-102237810D01*
X116220954Y-102245172D01*
X116161757Y-102259384D01*
X116076774Y-102303247D01*
X116007070Y-102316715D01*
X115947076Y-102294744D01*
X115945732Y-102293810D01*
X115940062Y-102288758D01*
X115843837Y-102237810D01*
X115801636Y-102215466D01*
X115801635Y-102215466D01*
X115794927Y-102211914D01*
X115635652Y-102171906D01*
X115628054Y-102171866D01*
X115628052Y-102171866D01*
X115557296Y-102171496D01*
X115471431Y-102171047D01*
X115464052Y-102172819D01*
X115464048Y-102172819D01*
X115363643Y-102196925D01*
X115311746Y-102209384D01*
X115165815Y-102284704D01*
X115160095Y-102289694D01*
X115160092Y-102289696D01*
X115047787Y-102387666D01*
X115047784Y-102387669D01*
X115042062Y-102392661D01*
X115002050Y-102449592D01*
X114958801Y-102511130D01*
X114947633Y-102527020D01*
X114887979Y-102680025D01*
X114886988Y-102687552D01*
X114867534Y-102835312D01*
X114867534Y-102835316D01*
X114866543Y-102842843D01*
X112343505Y-102842843D01*
X112316990Y-102804264D01*
X112316989Y-102804263D01*
X112312688Y-102798005D01*
X112306695Y-102792665D01*
X112195744Y-102693810D01*
X112195740Y-102693807D01*
X112190073Y-102688758D01*
X112063810Y-102621906D01*
X112051647Y-102615466D01*
X112051646Y-102615466D01*
X112044938Y-102611914D01*
X111885663Y-102571906D01*
X111878065Y-102571866D01*
X111878063Y-102571866D01*
X111807307Y-102571496D01*
X111721442Y-102571047D01*
X111714059Y-102572820D01*
X111714055Y-102572820D01*
X111713409Y-102572975D01*
X111712924Y-102572951D01*
X111706508Y-102573693D01*
X111706384Y-102572623D01*
X111642501Y-102569425D01*
X111584769Y-102528103D01*
X111558542Y-102462128D01*
X111558000Y-102450455D01*
X111558000Y-101342843D01*
X121416554Y-101342843D01*
X121425564Y-101424458D01*
X121433636Y-101497567D01*
X121434575Y-101506074D01*
X121437184Y-101513205D01*
X121437185Y-101513207D01*
X121444775Y-101533948D01*
X121491012Y-101660295D01*
X121495249Y-101666601D01*
X121495251Y-101666604D01*
X121537490Y-101729461D01*
X121582607Y-101796602D01*
X121588225Y-101801714D01*
X121698450Y-101902012D01*
X121698454Y-101902015D01*
X121704071Y-101907126D01*
X121710744Y-101910749D01*
X121710748Y-101910752D01*
X121841720Y-101981863D01*
X121848393Y-101985486D01*
X122007241Y-102027159D01*
X122092283Y-102028495D01*
X122163845Y-102029620D01*
X122163848Y-102029620D01*
X122171443Y-102029739D01*
X122331522Y-101993076D01*
X122478234Y-101919288D01*
X122603110Y-101812633D01*
X122698941Y-101679270D01*
X122743381Y-101568723D01*
X122757360Y-101533948D01*
X122757360Y-101533947D01*
X122760194Y-101526898D01*
X122783333Y-101364314D01*
X122783483Y-101350000D01*
X122776623Y-101293307D01*
X122767578Y-101218570D01*
X122763754Y-101186966D01*
X122705705Y-101033345D01*
X122691097Y-101012090D01*
X122668998Y-100944620D01*
X122686884Y-100875913D01*
X122692614Y-100867200D01*
X122694508Y-100864564D01*
X122694510Y-100864560D01*
X122698941Y-100858394D01*
X122704035Y-100845724D01*
X122757360Y-100713072D01*
X122757360Y-100713071D01*
X122760194Y-100706022D01*
X122783333Y-100543438D01*
X122783483Y-100529124D01*
X122763754Y-100366090D01*
X122705705Y-100212469D01*
X122629192Y-100101142D01*
X122616990Y-100083388D01*
X122616989Y-100083387D01*
X122612688Y-100077129D01*
X122581804Y-100049612D01*
X122495744Y-99972934D01*
X122495740Y-99972931D01*
X122490073Y-99967882D01*
X122378753Y-99908942D01*
X122351647Y-99894590D01*
X122351646Y-99894590D01*
X122344938Y-99891038D01*
X122185663Y-99851030D01*
X122178065Y-99850990D01*
X122178063Y-99850990D01*
X122107307Y-99850620D01*
X122021442Y-99850171D01*
X122014063Y-99851943D01*
X122014059Y-99851943D01*
X121941443Y-99869377D01*
X121861757Y-99888508D01*
X121715826Y-99963828D01*
X121710106Y-99968818D01*
X121710103Y-99968820D01*
X121597798Y-100066790D01*
X121597795Y-100066793D01*
X121592073Y-100071785D01*
X121571441Y-100101142D01*
X121502588Y-100199110D01*
X121497644Y-100206144D01*
X121437990Y-100359149D01*
X121436999Y-100366676D01*
X121417545Y-100514436D01*
X121417545Y-100514440D01*
X121416554Y-100521967D01*
X121425564Y-100603582D01*
X121433533Y-100675758D01*
X121434575Y-100685198D01*
X121437184Y-100692329D01*
X121437185Y-100692331D01*
X121444775Y-100713072D01*
X121491012Y-100839419D01*
X121510400Y-100868271D01*
X121531793Y-100935964D01*
X121513190Y-101004481D01*
X121508905Y-101010997D01*
X121497644Y-101027020D01*
X121437990Y-101180025D01*
X121436999Y-101187552D01*
X121417545Y-101335312D01*
X121417545Y-101335316D01*
X121416554Y-101342843D01*
X111558000Y-101342843D01*
X111558000Y-100654287D01*
X113927998Y-100654287D01*
X113946019Y-100817518D01*
X113948628Y-100824649D01*
X113948629Y-100824651D01*
X113963235Y-100864564D01*
X114002456Y-100971739D01*
X114006693Y-100978045D01*
X114006695Y-100978048D01*
X114019350Y-100996880D01*
X114094051Y-101108046D01*
X114099669Y-101113158D01*
X114209894Y-101213456D01*
X114209898Y-101213459D01*
X114215515Y-101218570D01*
X114222188Y-101222193D01*
X114222192Y-101222196D01*
X114353164Y-101293307D01*
X114359837Y-101296930D01*
X114518685Y-101338603D01*
X114603727Y-101339939D01*
X114675289Y-101341064D01*
X114675292Y-101341064D01*
X114682887Y-101341183D01*
X114842966Y-101304520D01*
X114989678Y-101230732D01*
X115114554Y-101124077D01*
X115210385Y-100990714D01*
X115232395Y-100935964D01*
X115268804Y-100845392D01*
X115268804Y-100845391D01*
X115271638Y-100838342D01*
X115286105Y-100736689D01*
X115294196Y-100679842D01*
X115294196Y-100679838D01*
X115294777Y-100675758D01*
X115294927Y-100661444D01*
X115275198Y-100498410D01*
X115241763Y-100409927D01*
X115236395Y-100339134D01*
X115270153Y-100276676D01*
X115278606Y-100269724D01*
X115278234Y-100269288D01*
X115397338Y-100167563D01*
X115397339Y-100167562D01*
X115403110Y-100162633D01*
X115498941Y-100029270D01*
X115525249Y-99963828D01*
X115557360Y-99883948D01*
X115557360Y-99883947D01*
X115560194Y-99876898D01*
X115580320Y-99735486D01*
X115582752Y-99718398D01*
X115582752Y-99718394D01*
X115583333Y-99714314D01*
X115583483Y-99700000D01*
X115563754Y-99536966D01*
X115505705Y-99383345D01*
X115412688Y-99248005D01*
X115401089Y-99237670D01*
X115374477Y-99213960D01*
X115336921Y-99153710D01*
X115337902Y-99082720D01*
X115376465Y-99024074D01*
X115474901Y-98940001D01*
X115474909Y-98939993D01*
X115480677Y-98935066D01*
X115576508Y-98801703D01*
X115637761Y-98649331D01*
X115660900Y-98486747D01*
X115661050Y-98472433D01*
X115641321Y-98309399D01*
X115583272Y-98155778D01*
X115490255Y-98020438D01*
X115478651Y-98010099D01*
X115373311Y-97916243D01*
X115373307Y-97916240D01*
X115367640Y-97911191D01*
X115222505Y-97834347D01*
X115063230Y-97794339D01*
X115055632Y-97794299D01*
X115055630Y-97794299D01*
X114984874Y-97793929D01*
X114899009Y-97793480D01*
X114891630Y-97795252D01*
X114891626Y-97795252D01*
X114792861Y-97818964D01*
X114739324Y-97831817D01*
X114593393Y-97907137D01*
X114587673Y-97912127D01*
X114587670Y-97912129D01*
X114475365Y-98010099D01*
X114475362Y-98010102D01*
X114469640Y-98015094D01*
X114375211Y-98149453D01*
X114315557Y-98302458D01*
X114314566Y-98309985D01*
X114295112Y-98457745D01*
X114295112Y-98457749D01*
X114294121Y-98465276D01*
X114312142Y-98628507D01*
X114314751Y-98635638D01*
X114314752Y-98635640D01*
X114322342Y-98656381D01*
X114368579Y-98782728D01*
X114372816Y-98789034D01*
X114372818Y-98789037D01*
X114385473Y-98807869D01*
X114460174Y-98919035D01*
X114503823Y-98958753D01*
X114540745Y-99019391D01*
X114539022Y-99090367D01*
X114501854Y-99146893D01*
X114392073Y-99242661D01*
X114297644Y-99377020D01*
X114237990Y-99530025D01*
X114236999Y-99537552D01*
X114217545Y-99685312D01*
X114217545Y-99685316D01*
X114216554Y-99692843D01*
X114234575Y-99856074D01*
X114270031Y-99952962D01*
X114274658Y-100023806D01*
X114240248Y-100085907D01*
X114228669Y-100095426D01*
X114227270Y-100096148D01*
X114170642Y-100145548D01*
X114109242Y-100199110D01*
X114109239Y-100199113D01*
X114103517Y-100204105D01*
X114009088Y-100338464D01*
X113949434Y-100491469D01*
X113948443Y-100498996D01*
X113928989Y-100646756D01*
X113928989Y-100646760D01*
X113927998Y-100654287D01*
X111558000Y-100654287D01*
X111558000Y-97306400D01*
X111578002Y-97238279D01*
X111631658Y-97191786D01*
X111684000Y-97180400D01*
X125116000Y-97180400D01*
X125184121Y-97200402D01*
G37*
G04 #@! TD.AperFunction*
M02*
