G04 This is an RS-274x file exported by *
G04 gerbv version  *
G04 More information is available about gerbv at *
G04 https://gerbv.github.io/ *
G04 --End of header info--*
%MOIN*%
%FSLAX36Y36*%
%IPPOS*%
G04 --Define apertures--*
%AMMACRO10*
4,1,4,0.010827,0.000000,0.010827,0.000000,-0.010827,0.000000,-0.010827,0.000000,0.010827,0.000000,0.000000*
1,1,0.011811,0.010827,0.000000*
1,1,0.011811,0.010827,0.000000*
1,1,0.011811,-0.010827,0.000000*
1,1,0.011811,-0.010827,0.000000*
20,1,0.011811,0.010827,0.000000,0.010827,0.000000,0.000000*
20,1,0.011811,0.010827,0.000000,-0.010827,0.000000,0.000000*
20,1,0.011811,-0.010827,0.000000,-0.010827,0.000000,0.000000*
20,1,0.011811,-0.010827,0.000000,0.010827,0.000000,0.000000*
%
%ADD10MACRO10*%
%ADD11R,0.0689X0.0610*%
%ADD12C,0.0353*%
%AMMACRO13*
4,1,5,-0.011319,0.005906,0.007776,0.005906,0.011319,0.002362,0.011319,-0.005906,-0.011319,-0.005906,-0.011319,0.005906,90.000000*
%
%ADD13MACRO13*%
%ADD14R,0.0118X0.0226*%
%ADD15R,0.0226X0.0118*%
%ADD16C,0.0570*%
%AMMACRO17*
4,1,4,-0.007874,-0.010827,0.007874,-0.010827,0.007874,0.010827,-0.007874,0.010827,-0.007874,-0.010827,0.000000*
1,1,0.015748,-0.007874,-0.010827*
1,1,0.015748,0.007874,-0.010827*
1,1,0.015748,0.007874,0.010827*
1,1,0.015748,-0.007874,0.010827*
20,1,0.015748,-0.007874,-0.010827,0.007874,-0.010827,0.000000*
20,1,0.015748,0.007874,-0.010827,0.007874,0.010827,0.000000*
20,1,0.015748,0.007874,0.010827,-0.007874,0.010827,0.000000*
20,1,0.015748,-0.007874,0.010827,-0.007874,-0.010827,0.000000*
%
%ADD17MACRO17*%
%AMMACRO18*
4,1,4,0.008858,0.009843,-0.008858,0.009843,-0.008858,-0.009843,0.008858,-0.009843,0.008858,0.009843,0.000000*
1,1,0.017717,0.008858,0.009843*
1,1,0.017717,-0.008858,0.009843*
1,1,0.017717,-0.008858,-0.009843*
1,1,0.017717,0.008858,-0.009843*
20,1,0.017717,0.008858,0.009843,-0.008858,0.009843,0.000000*
20,1,0.017717,-0.008858,0.009843,-0.008858,-0.009843,0.000000*
20,1,0.017717,-0.008858,-0.009843,0.008858,-0.009843,0.000000*
20,1,0.017717,0.008858,-0.009843,0.008858,0.009843,0.000000*
%
%ADD18MACRO18*%
%ADD19R,0.0315X0.0217*%
%ADD20R,0.0315X0.0315*%
%ADD21O,0.0315X0.0315*%
%ADD22C,0.0315*%
%AMMACRO23*
4,1,4,0.007874,0.010827,-0.007874,0.010827,-0.007874,-0.010827,0.007874,-0.010827,0.007874,0.010827,0.000000*
1,1,0.015748,0.007874,0.010827*
1,1,0.015748,-0.007874,0.010827*
1,1,0.015748,-0.007874,-0.010827*
1,1,0.015748,0.007874,-0.010827*
20,1,0.015748,0.007874,0.010827,-0.007874,0.010827,0.000000*
20,1,0.015748,-0.007874,0.010827,-0.007874,-0.010827,0.000000*
20,1,0.015748,-0.007874,-0.010827,0.007874,-0.010827,0.000000*
20,1,0.015748,0.007874,-0.010827,0.007874,0.010827,0.000000*
%
%ADD23MACRO23*%
%AMMACRO24*
4,1,4,-0.008858,-0.009843,0.008858,-0.009843,0.008858,0.009843,-0.008858,0.009843,-0.008858,-0.009843,0.000000*
1,1,0.017717,-0.008858,-0.009843*
1,1,0.017717,0.008858,-0.009843*
1,1,0.017717,0.008858,0.009843*
1,1,0.017717,-0.008858,0.009843*
20,1,0.017717,-0.008858,-0.009843,0.008858,-0.009843,0.000000*
20,1,0.017717,0.008858,-0.009843,0.008858,0.009843,0.000000*
20,1,0.017717,0.008858,0.009843,-0.008858,0.009843,0.000000*
20,1,0.017717,-0.008858,0.009843,-0.008858,-0.009843,0.000000*
%
%ADD24MACRO24*%
%ADD25R,0.0276X0.0157*%
%ADD26R,0.0157X0.0276*%
%ADD27R,0.0394X0.0276*%
%ADD28R,0.0492X0.0748*%
%ADD29C,0.0236*%
G04 --Start main section--*
G54D10*
G01X4625000Y-4305118D03*
G01X4625000Y-4324803D03*
G01X4625000Y-4344488D03*
G01X4625000Y-4364173D03*
G01X4743110Y-4364173D03*
G01X4743110Y-4344488D03*
G01X4743110Y-4324803D03*
G01X4743110Y-4305118D03*
G54D11*
G01X4684055Y-4334646D03*
G54D12*
G01X4612992Y-4411417D03*
G01X4683858Y-4411417D03*
G01X4648425Y-4411417D03*
G01X4719291Y-4411417D03*
G01X4754724Y-4411417D03*
G54D13*
G01X4856299Y-4025098D03*
G54D14*
G01X4875984Y-4025098D03*
G01X4895669Y-4025098D03*
G01X4915354Y-4025098D03*
G54D15*
G01X4921752Y-3999016D03*
G01X4921752Y-3979331D03*
G01X4921752Y-3959646D03*
G54D14*
G01X4915354Y-3933563D03*
G01X4895669Y-3933563D03*
G01X4875984Y-3933563D03*
G01X4856299Y-3933563D03*
G54D15*
G01X4849902Y-3959646D03*
G01X4849902Y-3979331D03*
G01X4849902Y-3999016D03*
G54D16*
G01X4685039Y-4494094D03*
G54D17*
G01X4851378Y-4104331D03*
G01X4916339Y-4104331D03*
G54D18*
G01X4916339Y-3862205D03*
G01X4855315Y-3862205D03*
G54D16*
G01X4293307Y-3738189D03*
G54D19*
G01X4916096Y-4159449D03*
G01X4916096Y-4194882D03*
G01X4853104Y-4194882D03*
G01X4853104Y-4159449D03*
G54D12*
G01X4372047Y-3564961D03*
G01X4372047Y-3529528D03*
G01X4372047Y-3600394D03*
G01X4950787Y-3759843D03*
G01X4950787Y-3724409D03*
G01X4950787Y-3795276D03*
G01X4372047Y-3759843D03*
G01X4372047Y-3724409D03*
G01X4372047Y-3795276D03*
G01X4950787Y-3564961D03*
G01X4950787Y-3529528D03*
G01X4950787Y-3600394D03*
G54D20*
G01X4915799Y-4317429D03*
G54D21*
G01X4875799Y-4317429D03*
G01X4835799Y-4317429D03*
G54D22*
G01X4795799Y-4317429D03*
G54D16*
G01X5029528Y-3736220D03*
G54D23*
G01X4892717Y-4368110D03*
G01X4827756Y-4368110D03*
G54D18*
G01X4914370Y-4263780D03*
G01X4853346Y-4263780D03*
G54D12*
G01X4950787Y-4498031D03*
G01X4950787Y-4462598D03*
G01X4950787Y-4533465D03*
G54D20*
G01X4428937Y-4377953D03*
G54D22*
G01X4468937Y-4377953D03*
G01X4508937Y-4377953D03*
G01X4548937Y-4377953D03*
G54D24*
G01X4402559Y-4324803D03*
G01X4463583Y-4324803D03*
G01X4512795Y-4324803D03*
G01X4573819Y-4324803D03*
G54D12*
G01X4374016Y-4498031D03*
G01X4374016Y-4462598D03*
G01X4374016Y-4533465D03*
G54D25*
G01X4437677Y-3844016D03*
G01X4437677Y-3871575D03*
G01X4437677Y-3899134D03*
G01X4437677Y-3926693D03*
G01X4437677Y-3954252D03*
G01X4437677Y-3981811D03*
G01X4437677Y-4009370D03*
G01X4437677Y-4036929D03*
G01X4437677Y-4064488D03*
G01X4437677Y-4092047D03*
G01X4437677Y-4119606D03*
G54D26*
G01X4494764Y-4153071D03*
G01X4522323Y-4153071D03*
G01X4549882Y-4153071D03*
G01X4577441Y-4153071D03*
G01X4605000Y-4153071D03*
G01X4632559Y-4153071D03*
G01X4660118Y-4153071D03*
G01X4687677Y-4153071D03*
G01X4715236Y-4153071D03*
G54D25*
G01X4772323Y-4119606D03*
G01X4772323Y-4092047D03*
G01X4772323Y-4064488D03*
G01X4772323Y-4036929D03*
G01X4772323Y-4009370D03*
G01X4772323Y-3981811D03*
G01X4772323Y-3954252D03*
G01X4772323Y-3926693D03*
G01X4772323Y-3899134D03*
G01X4772323Y-3871575D03*
G01X4772323Y-3844016D03*
G01X4477047Y-3844016D03*
G01X4477047Y-3871575D03*
G01X4477047Y-3899134D03*
G01X4477047Y-3926693D03*
G01X4477047Y-3954252D03*
G01X4477047Y-3981811D03*
G01X4477047Y-4009370D03*
G01X4477047Y-4036929D03*
G01X4477047Y-4064488D03*
G01X4477047Y-4092047D03*
G01X4477047Y-4119606D03*
G54D26*
G01X4522323Y-4113701D03*
G01X4549882Y-4113701D03*
G01X4577441Y-4113701D03*
G01X4605000Y-4113701D03*
G01X4632559Y-4113701D03*
G01X4660118Y-4113701D03*
G01X4687677Y-4113701D03*
G54D25*
G01X4732953Y-4119606D03*
G01X4732953Y-4092047D03*
G01X4732953Y-4064488D03*
G01X4732953Y-4036929D03*
G01X4732953Y-4009370D03*
G01X4732953Y-3981811D03*
G01X4732953Y-3954252D03*
G01X4732953Y-3926693D03*
G01X4732953Y-3899134D03*
G01X4732953Y-3871575D03*
G01X4732953Y-3844016D03*
G54D27*
G01X4443583Y-4153071D03*
G01X4766417Y-4153071D03*
G54D28*
G01X4574685Y-3964094D03*
G01X4574685Y-3877480D03*
G01X4635709Y-3877480D03*
G01X4635709Y-3964094D03*
G54D29*
G01X4421260Y-4190945D03*
G01X4592520Y-4202756D03*
G01X4807087Y-4192913D03*
G01X4761811Y-4214567D03*
G01X4666142Y-4320079D03*
G01X4574070Y-3965000D03*
G01X4636000Y-3878000D03*
G01X4573000Y-3879000D03*
G01X4699466Y-4350140D03*
G01X4635000Y-3964000D03*
M02*
