%FSLAX45Y45*%
G04 Gerber Fmt 4.5, Leading zero omitted, Abs format (unit mm)*
G04 Created by KiCad (PCBNEW 6.0.2+dfsg-1) date 2024-05-15 15:08:56*
%MOMM*%
%LPD*%
G01*
G04 APERTURE LIST*
%TA.AperFunction,Profile*%
%ADD10C,0.100000*%
%TD*%
%ADD11C,0.200000*%
%ADD12C,0.030000*%
%ADD13C,0.050000*%
G04 APERTURE END LIST*
D10*
X12575000Y-9705000D02*
X12665000Y-9785000D01*
X12575000Y-11025000D02*
X12575000Y-9705000D01*
X11010000Y-9785000D02*
X11010000Y-11275000D01*
X11175000Y-9290000D02*
X11105000Y-9400000D01*
X10760000Y-11575000D02*
X12910000Y-11575000D01*
X12910000Y-11575000D02*
X12910000Y-8905000D01*
X12910000Y-8905000D02*
X10760000Y-8905000D01*
X10760000Y-8905000D02*
X10760000Y-11575000D01*
X11105000Y-9400000D02*
X11015000Y-9280000D01*
X12665000Y-11275000D02*
X12200000Y-11275000D01*
X12575000Y-9400000D02*
X12490000Y-9290000D01*
X12490000Y-11195000D02*
X12140000Y-11195000D01*
X11590000Y-11275000D02*
X11655000Y-11195000D01*
X11015000Y-9280000D02*
X11015000Y-9205000D01*
X12575000Y-9400000D02*
X12665000Y-9270000D01*
X11655000Y-11195000D02*
X11185000Y-11195000D01*
X11105000Y-9700000D02*
X11105000Y-11025000D01*
X12490000Y-11195000D02*
X12575000Y-11025000D01*
X11105000Y-11025000D02*
X11185000Y-11195000D01*
X11015000Y-9205000D02*
X12665000Y-9205000D01*
X12665000Y-9270000D02*
X12665000Y-9205000D01*
X12665000Y-9785000D02*
X12665000Y-11275000D01*
X12490000Y-9290000D02*
X11175000Y-9290000D01*
X11105000Y-9700000D02*
X11010000Y-9785000D01*
X11590000Y-11275000D02*
X11010000Y-11275000D01*
X12200000Y-11275000D02*
X12140000Y-11195000D01*
D11*
D12*
X11160000Y-9830000D02*
X11190000Y-9860000D01*
X11190000Y-9830000D02*
X11160000Y-9860000D01*
X11165000Y-10220000D02*
X11195000Y-10250000D01*
X11195000Y-10220000D02*
X11165000Y-10250000D01*
X11165000Y-10310000D02*
X11195000Y-10340000D01*
X11195000Y-10310000D02*
X11165000Y-10340000D01*
X11165050Y-10392886D02*
X11195050Y-10422886D01*
X11195050Y-10392886D02*
X11165050Y-10422886D01*
X11262627Y-10794970D02*
X11292627Y-10824970D01*
X11292627Y-10794970D02*
X11262627Y-10824970D01*
X11413854Y-10696146D02*
X11443854Y-10726146D01*
X11443854Y-10696146D02*
X11413854Y-10726146D01*
X11425024Y-10785026D02*
X11455024Y-10815026D01*
X11455024Y-10785026D02*
X11425024Y-10815026D01*
X11446144Y-10051144D02*
X11476144Y-10081144D01*
X11476144Y-10051144D02*
X11446144Y-10081144D01*
X11470000Y-10625000D02*
X11500000Y-10655000D01*
X11500000Y-10625000D02*
X11470000Y-10655000D01*
X11475000Y-9955000D02*
X11505000Y-9985000D01*
X11505000Y-9955000D02*
X11475000Y-9985000D01*
X11482757Y-9832243D02*
X11512757Y-9862243D01*
X11512757Y-9832243D02*
X11482757Y-9862243D01*
X11539999Y-10270000D02*
X11569999Y-10300000D01*
X11569999Y-10270000D02*
X11539999Y-10300000D01*
X11573806Y-10346094D02*
X11603806Y-10376094D01*
X11603806Y-10346094D02*
X11573806Y-10376094D01*
X11600420Y-9837660D02*
X11630420Y-9867660D01*
X11630420Y-9837660D02*
X11600420Y-9867660D01*
X11603139Y-10056100D02*
X11633139Y-10086100D01*
X11633139Y-10056100D02*
X11603139Y-10086100D01*
X11625000Y-10275000D02*
X11655000Y-10305000D01*
X11655000Y-10275000D02*
X11625000Y-10305000D01*
X11637000Y-11074000D02*
X11667000Y-11104000D01*
X11667000Y-11074000D02*
X11637000Y-11104000D01*
X11685000Y-10198750D02*
X11715000Y-10228750D01*
X11715000Y-10198750D02*
X11685000Y-10228750D01*
X11739445Y-10761192D02*
X11769445Y-10791192D01*
X11769445Y-10761192D02*
X11739445Y-10791192D01*
X11750000Y-10290000D02*
X11780000Y-10320000D01*
X11780000Y-10290000D02*
X11750000Y-10320000D01*
X11757900Y-10053560D02*
X11787900Y-10083560D01*
X11787900Y-10053560D02*
X11757900Y-10083560D01*
X11760440Y-9835120D02*
X11790440Y-9865120D01*
X11790440Y-9835120D02*
X11760440Y-9865120D01*
X11810000Y-10620000D02*
X11840000Y-10650000D01*
X11840000Y-10620000D02*
X11810000Y-10650000D01*
X11820000Y-10345000D02*
X11850000Y-10375000D01*
X11850000Y-10345000D02*
X11820000Y-10375000D01*
X11837000Y-10958000D02*
X11867000Y-10988000D01*
X11867000Y-10958000D02*
X11837000Y-10988000D01*
X11885000Y-10155000D02*
X11915000Y-10185000D01*
X11915000Y-10155000D02*
X11885000Y-10185000D01*
X11899872Y-10621340D02*
X11929872Y-10651340D01*
X11929872Y-10621340D02*
X11899872Y-10651340D01*
X11900000Y-10315000D02*
X11930000Y-10345000D01*
X11930000Y-10315000D02*
X11900000Y-10345000D01*
X11921644Y-11034356D02*
X11951644Y-11064356D01*
X11951644Y-11034356D02*
X11921644Y-11064356D01*
X11925000Y-10761192D02*
X11955000Y-10791192D01*
X11955000Y-10761192D02*
X11925000Y-10791192D01*
X12000000Y-10630000D02*
X12030000Y-10660000D01*
X12030000Y-10630000D02*
X12000000Y-10660000D01*
X12157550Y-11079941D02*
X12187550Y-11109941D01*
X12187550Y-11079941D02*
X12157550Y-11109941D01*
X12195000Y-10037912D02*
X12225000Y-10067912D01*
X12225000Y-10037912D02*
X12195000Y-10067912D01*
X12195000Y-10120000D02*
X12225000Y-10150000D01*
X12225000Y-10120000D02*
X12195000Y-10150000D01*
X12200000Y-9840000D02*
X12230000Y-9870000D01*
X12230000Y-9840000D02*
X12200000Y-9870000D01*
X12241144Y-10321144D02*
X12271144Y-10351144D01*
X12271144Y-10321144D02*
X12241144Y-10351144D01*
X12320000Y-10290000D02*
X12350000Y-10320000D01*
X12350000Y-10290000D02*
X12320000Y-10320000D01*
X12390000Y-10480000D02*
X12420000Y-10510000D01*
X12420000Y-10480000D02*
X12390000Y-10510000D01*
X12395000Y-10095000D02*
X12425000Y-10125000D01*
X12425000Y-10095000D02*
X12395000Y-10125000D01*
X12398770Y-9871230D02*
X12428770Y-9901230D01*
X12428770Y-9871230D02*
X12398770Y-9901230D01*
X12415455Y-10287450D02*
X12445455Y-10317450D01*
X12445455Y-10287450D02*
X12415455Y-10317450D01*
X12475000Y-10715000D02*
X12505000Y-10745000D01*
X12505000Y-10715000D02*
X12475000Y-10745000D01*
X12485000Y-9895000D02*
X12515000Y-9925000D01*
X12515000Y-9895000D02*
X12485000Y-9925000D01*
X12495089Y-10312598D02*
X12525089Y-10342598D01*
X12525089Y-10312598D02*
X12495089Y-10342598D01*
X11245000Y-10645000D02*
G75*
G03*
X11245000Y-10645000I-15000J0D01*
G01*
X11680000Y-10675000D02*
G75*
G03*
X11680000Y-10675000I-15000J0D01*
G01*
X12110000Y-10705000D02*
G75*
G03*
X12110000Y-10705000I-15000J0D01*
G01*
X12225000Y-10650000D02*
G75*
G03*
X12225000Y-10650000I-15000J0D01*
G01*
D13*
X11249500Y-11095000D02*
X11249500Y-11145000D01*
X11224500Y-11120000D02*
X11274500Y-11120000D01*
X11351100Y-11095000D02*
X11351100Y-11145000D01*
X11326100Y-11120000D02*
X11376100Y-11120000D01*
X11452700Y-11095000D02*
X11452700Y-11145000D01*
X11427700Y-11120000D02*
X11477700Y-11120000D01*
X11554300Y-11095000D02*
X11554300Y-11145000D01*
X11529300Y-11120000D02*
X11579300Y-11120000D01*
X12181330Y-10941270D02*
X12181330Y-10991270D01*
X12156330Y-10966270D02*
X12206330Y-10966270D01*
X12282930Y-10941270D02*
X12282930Y-10991270D01*
X12257930Y-10966270D02*
X12307930Y-10966270D01*
X12384530Y-10941270D02*
X12384530Y-10991270D01*
X12359530Y-10966270D02*
X12409530Y-10966270D01*
X12486130Y-10941270D02*
X12486130Y-10991270D01*
X12461130Y-10966270D02*
X12511130Y-10966270D01*
D11*
X11012619Y-11890476D02*
X11012619Y-11690476D01*
X11060238Y-11690476D01*
X11088810Y-11700000D01*
X11107857Y-11719048D01*
X11117381Y-11738095D01*
X11126905Y-11776190D01*
X11126905Y-11804762D01*
X11117381Y-11842857D01*
X11107857Y-11861905D01*
X11088810Y-11880952D01*
X11060238Y-11890476D01*
X11012619Y-11890476D01*
X11212619Y-11890476D02*
X11212619Y-11757143D01*
X11212619Y-11795238D02*
X11222143Y-11776190D01*
X11231667Y-11766667D01*
X11250714Y-11757143D01*
X11269762Y-11757143D01*
X11336428Y-11890476D02*
X11336428Y-11757143D01*
X11336428Y-11690476D02*
X11326905Y-11700000D01*
X11336428Y-11709524D01*
X11345952Y-11700000D01*
X11336428Y-11690476D01*
X11336428Y-11709524D01*
X11460238Y-11890476D02*
X11441190Y-11880952D01*
X11431667Y-11861905D01*
X11431667Y-11690476D01*
X11565000Y-11890476D02*
X11545952Y-11880952D01*
X11536428Y-11861905D01*
X11536428Y-11690476D01*
X11793571Y-11890476D02*
X11793571Y-11690476D01*
X11860238Y-11833333D01*
X11926905Y-11690476D01*
X11926905Y-11890476D01*
X12107857Y-11890476D02*
X12107857Y-11785714D01*
X12098333Y-11766667D01*
X12079286Y-11757143D01*
X12041190Y-11757143D01*
X12022143Y-11766667D01*
X12107857Y-11880952D02*
X12088809Y-11890476D01*
X12041190Y-11890476D01*
X12022143Y-11880952D01*
X12012619Y-11861905D01*
X12012619Y-11842857D01*
X12022143Y-11823809D01*
X12041190Y-11814286D01*
X12088809Y-11814286D01*
X12107857Y-11804762D01*
X12203095Y-11757143D02*
X12203095Y-11957143D01*
X12203095Y-11766667D02*
X12222143Y-11757143D01*
X12260238Y-11757143D01*
X12279286Y-11766667D01*
X12288809Y-11776190D01*
X12298333Y-11795238D01*
X12298333Y-11852381D01*
X12288809Y-11871428D01*
X12279286Y-11880952D01*
X12260238Y-11890476D01*
X12222143Y-11890476D01*
X12203095Y-11880952D01*
X12384048Y-11871428D02*
X12393571Y-11880952D01*
X12384048Y-11890476D01*
X12374524Y-11880952D01*
X12384048Y-11871428D01*
X12384048Y-11890476D01*
X12384048Y-11766667D02*
X12393571Y-11776190D01*
X12384048Y-11785714D01*
X12374524Y-11776190D01*
X12384048Y-11766667D01*
X12384048Y-11785714D01*
D12*
X10725000Y-12205000D02*
X10755000Y-12235000D01*
X10755000Y-12205000D02*
X10725000Y-12235000D01*
D11*
X11050714Y-12110476D02*
X11069762Y-12110476D01*
X11088810Y-12120000D01*
X11098333Y-12129524D01*
X11107857Y-12148571D01*
X11117381Y-12186667D01*
X11117381Y-12234286D01*
X11107857Y-12272381D01*
X11098333Y-12291428D01*
X11088810Y-12300952D01*
X11069762Y-12310476D01*
X11050714Y-12310476D01*
X11031667Y-12300952D01*
X11022143Y-12291428D01*
X11012619Y-12272381D01*
X11003095Y-12234286D01*
X11003095Y-12186667D01*
X11012619Y-12148571D01*
X11022143Y-12129524D01*
X11031667Y-12120000D01*
X11050714Y-12110476D01*
X11203095Y-12291428D02*
X11212619Y-12300952D01*
X11203095Y-12310476D01*
X11193571Y-12300952D01*
X11203095Y-12291428D01*
X11203095Y-12310476D01*
X11279286Y-12110476D02*
X11403095Y-12110476D01*
X11336428Y-12186667D01*
X11365000Y-12186667D01*
X11384048Y-12196190D01*
X11393571Y-12205714D01*
X11403095Y-12224762D01*
X11403095Y-12272381D01*
X11393571Y-12291428D01*
X11384048Y-12300952D01*
X11365000Y-12310476D01*
X11307857Y-12310476D01*
X11288809Y-12300952D01*
X11279286Y-12291428D01*
X11526905Y-12110476D02*
X11545952Y-12110476D01*
X11565000Y-12120000D01*
X11574524Y-12129524D01*
X11584048Y-12148571D01*
X11593571Y-12186667D01*
X11593571Y-12234286D01*
X11584048Y-12272381D01*
X11574524Y-12291428D01*
X11565000Y-12300952D01*
X11545952Y-12310476D01*
X11526905Y-12310476D01*
X11507857Y-12300952D01*
X11498333Y-12291428D01*
X11488809Y-12272381D01*
X11479286Y-12234286D01*
X11479286Y-12186667D01*
X11488809Y-12148571D01*
X11498333Y-12129524D01*
X11507857Y-12120000D01*
X11526905Y-12110476D01*
X11717381Y-12110476D02*
X11736428Y-12110476D01*
X11755476Y-12120000D01*
X11765000Y-12129524D01*
X11774524Y-12148571D01*
X11784048Y-12186667D01*
X11784048Y-12234286D01*
X11774524Y-12272381D01*
X11765000Y-12291428D01*
X11755476Y-12300952D01*
X11736428Y-12310476D01*
X11717381Y-12310476D01*
X11698333Y-12300952D01*
X11688809Y-12291428D01*
X11679286Y-12272381D01*
X11669762Y-12234286D01*
X11669762Y-12186667D01*
X11679286Y-12148571D01*
X11688809Y-12129524D01*
X11698333Y-12120000D01*
X11717381Y-12110476D01*
X11869762Y-12310476D02*
X11869762Y-12177143D01*
X11869762Y-12196190D02*
X11879286Y-12186667D01*
X11898333Y-12177143D01*
X11926905Y-12177143D01*
X11945952Y-12186667D01*
X11955476Y-12205714D01*
X11955476Y-12310476D01*
X11955476Y-12205714D02*
X11965000Y-12186667D01*
X11984048Y-12177143D01*
X12012619Y-12177143D01*
X12031667Y-12186667D01*
X12041190Y-12205714D01*
X12041190Y-12310476D01*
X12136428Y-12310476D02*
X12136428Y-12177143D01*
X12136428Y-12196190D02*
X12145952Y-12186667D01*
X12165000Y-12177143D01*
X12193571Y-12177143D01*
X12212619Y-12186667D01*
X12222143Y-12205714D01*
X12222143Y-12310476D01*
X12222143Y-12205714D02*
X12231667Y-12186667D01*
X12250714Y-12177143D01*
X12279286Y-12177143D01*
X12298333Y-12186667D01*
X12307857Y-12205714D01*
X12307857Y-12310476D01*
X12698333Y-12100952D02*
X12526905Y-12358095D01*
X12955476Y-12110476D02*
X12974524Y-12110476D01*
X12993571Y-12120000D01*
X13003095Y-12129524D01*
X13012619Y-12148571D01*
X13022143Y-12186667D01*
X13022143Y-12234286D01*
X13012619Y-12272381D01*
X13003095Y-12291428D01*
X12993571Y-12300952D01*
X12974524Y-12310476D01*
X12955476Y-12310476D01*
X12936428Y-12300952D01*
X12926905Y-12291428D01*
X12917381Y-12272381D01*
X12907857Y-12234286D01*
X12907857Y-12186667D01*
X12917381Y-12148571D01*
X12926905Y-12129524D01*
X12936428Y-12120000D01*
X12955476Y-12110476D01*
X13107857Y-12291428D02*
X13117381Y-12300952D01*
X13107857Y-12310476D01*
X13098333Y-12300952D01*
X13107857Y-12291428D01*
X13107857Y-12310476D01*
X13241190Y-12110476D02*
X13260238Y-12110476D01*
X13279286Y-12120000D01*
X13288809Y-12129524D01*
X13298333Y-12148571D01*
X13307857Y-12186667D01*
X13307857Y-12234286D01*
X13298333Y-12272381D01*
X13288809Y-12291428D01*
X13279286Y-12300952D01*
X13260238Y-12310476D01*
X13241190Y-12310476D01*
X13222143Y-12300952D01*
X13212619Y-12291428D01*
X13203095Y-12272381D01*
X13193571Y-12234286D01*
X13193571Y-12186667D01*
X13203095Y-12148571D01*
X13212619Y-12129524D01*
X13222143Y-12120000D01*
X13241190Y-12110476D01*
X13498333Y-12310476D02*
X13384048Y-12310476D01*
X13441190Y-12310476D02*
X13441190Y-12110476D01*
X13422143Y-12139048D01*
X13403095Y-12158095D01*
X13384048Y-12167619D01*
X13688809Y-12310476D02*
X13574524Y-12310476D01*
X13631667Y-12310476D02*
X13631667Y-12110476D01*
X13612619Y-12139048D01*
X13593571Y-12158095D01*
X13574524Y-12167619D01*
X13803095Y-12196190D02*
X13784048Y-12186667D01*
X13774524Y-12177143D01*
X13765000Y-12158095D01*
X13765000Y-12148571D01*
X13774524Y-12129524D01*
X13784048Y-12120000D01*
X13803095Y-12110476D01*
X13841190Y-12110476D01*
X13860238Y-12120000D01*
X13869762Y-12129524D01*
X13879286Y-12148571D01*
X13879286Y-12158095D01*
X13869762Y-12177143D01*
X13860238Y-12186667D01*
X13841190Y-12196190D01*
X13803095Y-12196190D01*
X13784048Y-12205714D01*
X13774524Y-12215238D01*
X13765000Y-12234286D01*
X13765000Y-12272381D01*
X13774524Y-12291428D01*
X13784048Y-12300952D01*
X13803095Y-12310476D01*
X13841190Y-12310476D01*
X13860238Y-12300952D01*
X13869762Y-12291428D01*
X13879286Y-12272381D01*
X13879286Y-12234286D01*
X13869762Y-12215238D01*
X13860238Y-12205714D01*
X13841190Y-12196190D01*
X13955476Y-12110476D02*
X13955476Y-12148571D01*
X14031667Y-12110476D02*
X14031667Y-12148571D01*
X14326905Y-12386667D02*
X14317381Y-12377143D01*
X14298333Y-12348571D01*
X14288809Y-12329524D01*
X14279286Y-12300952D01*
X14269762Y-12253333D01*
X14269762Y-12215238D01*
X14279286Y-12167619D01*
X14288809Y-12139048D01*
X14298333Y-12120000D01*
X14317381Y-12091428D01*
X14326905Y-12081905D01*
X14488809Y-12177143D02*
X14488809Y-12310476D01*
X14441190Y-12100952D02*
X14393571Y-12243809D01*
X14517381Y-12243809D01*
X14679286Y-12177143D02*
X14679286Y-12310476D01*
X14631667Y-12100952D02*
X14584048Y-12243809D01*
X14707857Y-12243809D01*
X14936428Y-12310476D02*
X14936428Y-12110476D01*
X15022143Y-12310476D02*
X15022143Y-12205714D01*
X15012619Y-12186667D01*
X14993571Y-12177143D01*
X14965000Y-12177143D01*
X14945952Y-12186667D01*
X14936428Y-12196190D01*
X15145952Y-12310476D02*
X15126905Y-12300952D01*
X15117381Y-12291428D01*
X15107857Y-12272381D01*
X15107857Y-12215238D01*
X15117381Y-12196190D01*
X15126905Y-12186667D01*
X15145952Y-12177143D01*
X15174524Y-12177143D01*
X15193571Y-12186667D01*
X15203095Y-12196190D01*
X15212619Y-12215238D01*
X15212619Y-12272381D01*
X15203095Y-12291428D01*
X15193571Y-12300952D01*
X15174524Y-12310476D01*
X15145952Y-12310476D01*
X15326905Y-12310476D02*
X15307857Y-12300952D01*
X15298333Y-12281905D01*
X15298333Y-12110476D01*
X15479286Y-12300952D02*
X15460238Y-12310476D01*
X15422143Y-12310476D01*
X15403095Y-12300952D01*
X15393571Y-12281905D01*
X15393571Y-12205714D01*
X15403095Y-12186667D01*
X15422143Y-12177143D01*
X15460238Y-12177143D01*
X15479286Y-12186667D01*
X15488809Y-12205714D01*
X15488809Y-12224762D01*
X15393571Y-12243809D01*
X15565000Y-12300952D02*
X15584048Y-12310476D01*
X15622143Y-12310476D01*
X15641190Y-12300952D01*
X15650714Y-12281905D01*
X15650714Y-12272381D01*
X15641190Y-12253333D01*
X15622143Y-12243809D01*
X15593571Y-12243809D01*
X15574524Y-12234286D01*
X15565000Y-12215238D01*
X15565000Y-12205714D01*
X15574524Y-12186667D01*
X15593571Y-12177143D01*
X15622143Y-12177143D01*
X15641190Y-12186667D01*
X15717381Y-12386667D02*
X15726905Y-12377143D01*
X15745952Y-12348571D01*
X15755476Y-12329524D01*
X15765000Y-12300952D01*
X15774524Y-12253333D01*
X15774524Y-12215238D01*
X15765000Y-12167619D01*
X15755476Y-12139048D01*
X15745952Y-12120000D01*
X15726905Y-12091428D01*
X15717381Y-12081905D01*
D12*
X10755000Y-12484000D02*
G75*
G03*
X10755000Y-12484000I-15000J0D01*
G01*
D11*
X11050714Y-12374476D02*
X11069762Y-12374476D01*
X11088810Y-12384000D01*
X11098333Y-12393524D01*
X11107857Y-12412571D01*
X11117381Y-12450667D01*
X11117381Y-12498286D01*
X11107857Y-12536381D01*
X11098333Y-12555428D01*
X11088810Y-12564952D01*
X11069762Y-12574476D01*
X11050714Y-12574476D01*
X11031667Y-12564952D01*
X11022143Y-12555428D01*
X11012619Y-12536381D01*
X11003095Y-12498286D01*
X11003095Y-12450667D01*
X11012619Y-12412571D01*
X11022143Y-12393524D01*
X11031667Y-12384000D01*
X11050714Y-12374476D01*
X11203095Y-12555428D02*
X11212619Y-12564952D01*
X11203095Y-12574476D01*
X11193571Y-12564952D01*
X11203095Y-12555428D01*
X11203095Y-12574476D01*
X11279286Y-12374476D02*
X11403095Y-12374476D01*
X11336428Y-12450667D01*
X11365000Y-12450667D01*
X11384048Y-12460190D01*
X11393571Y-12469714D01*
X11403095Y-12488762D01*
X11403095Y-12536381D01*
X11393571Y-12555428D01*
X11384048Y-12564952D01*
X11365000Y-12574476D01*
X11307857Y-12574476D01*
X11288809Y-12564952D01*
X11279286Y-12555428D01*
X11526905Y-12374476D02*
X11545952Y-12374476D01*
X11565000Y-12384000D01*
X11574524Y-12393524D01*
X11584048Y-12412571D01*
X11593571Y-12450667D01*
X11593571Y-12498286D01*
X11584048Y-12536381D01*
X11574524Y-12555428D01*
X11565000Y-12564952D01*
X11545952Y-12574476D01*
X11526905Y-12574476D01*
X11507857Y-12564952D01*
X11498333Y-12555428D01*
X11488809Y-12536381D01*
X11479286Y-12498286D01*
X11479286Y-12450667D01*
X11488809Y-12412571D01*
X11498333Y-12393524D01*
X11507857Y-12384000D01*
X11526905Y-12374476D01*
X11717381Y-12374476D02*
X11736428Y-12374476D01*
X11755476Y-12384000D01*
X11765000Y-12393524D01*
X11774524Y-12412571D01*
X11784048Y-12450667D01*
X11784048Y-12498286D01*
X11774524Y-12536381D01*
X11765000Y-12555428D01*
X11755476Y-12564952D01*
X11736428Y-12574476D01*
X11717381Y-12574476D01*
X11698333Y-12564952D01*
X11688809Y-12555428D01*
X11679286Y-12536381D01*
X11669762Y-12498286D01*
X11669762Y-12450667D01*
X11679286Y-12412571D01*
X11688809Y-12393524D01*
X11698333Y-12384000D01*
X11717381Y-12374476D01*
X11869762Y-12574476D02*
X11869762Y-12441143D01*
X11869762Y-12460190D02*
X11879286Y-12450667D01*
X11898333Y-12441143D01*
X11926905Y-12441143D01*
X11945952Y-12450667D01*
X11955476Y-12469714D01*
X11955476Y-12574476D01*
X11955476Y-12469714D02*
X11965000Y-12450667D01*
X11984048Y-12441143D01*
X12012619Y-12441143D01*
X12031667Y-12450667D01*
X12041190Y-12469714D01*
X12041190Y-12574476D01*
X12136428Y-12574476D02*
X12136428Y-12441143D01*
X12136428Y-12460190D02*
X12145952Y-12450667D01*
X12165000Y-12441143D01*
X12193571Y-12441143D01*
X12212619Y-12450667D01*
X12222143Y-12469714D01*
X12222143Y-12574476D01*
X12222143Y-12469714D02*
X12231667Y-12450667D01*
X12250714Y-12441143D01*
X12279286Y-12441143D01*
X12298333Y-12450667D01*
X12307857Y-12469714D01*
X12307857Y-12574476D01*
X12698333Y-12364952D02*
X12526905Y-12622095D01*
X12955476Y-12374476D02*
X12974524Y-12374476D01*
X12993571Y-12384000D01*
X13003095Y-12393524D01*
X13012619Y-12412571D01*
X13022143Y-12450667D01*
X13022143Y-12498286D01*
X13012619Y-12536381D01*
X13003095Y-12555428D01*
X12993571Y-12564952D01*
X12974524Y-12574476D01*
X12955476Y-12574476D01*
X12936428Y-12564952D01*
X12926905Y-12555428D01*
X12917381Y-12536381D01*
X12907857Y-12498286D01*
X12907857Y-12450667D01*
X12917381Y-12412571D01*
X12926905Y-12393524D01*
X12936428Y-12384000D01*
X12955476Y-12374476D01*
X13107857Y-12555428D02*
X13117381Y-12564952D01*
X13107857Y-12574476D01*
X13098333Y-12564952D01*
X13107857Y-12555428D01*
X13107857Y-12574476D01*
X13241190Y-12374476D02*
X13260238Y-12374476D01*
X13279286Y-12384000D01*
X13288809Y-12393524D01*
X13298333Y-12412571D01*
X13307857Y-12450667D01*
X13307857Y-12498286D01*
X13298333Y-12536381D01*
X13288809Y-12555428D01*
X13279286Y-12564952D01*
X13260238Y-12574476D01*
X13241190Y-12574476D01*
X13222143Y-12564952D01*
X13212619Y-12555428D01*
X13203095Y-12536381D01*
X13193571Y-12498286D01*
X13193571Y-12450667D01*
X13203095Y-12412571D01*
X13212619Y-12393524D01*
X13222143Y-12384000D01*
X13241190Y-12374476D01*
X13498333Y-12574476D02*
X13384048Y-12574476D01*
X13441190Y-12574476D02*
X13441190Y-12374476D01*
X13422143Y-12403048D01*
X13403095Y-12422095D01*
X13384048Y-12431619D01*
X13688809Y-12574476D02*
X13574524Y-12574476D01*
X13631667Y-12574476D02*
X13631667Y-12374476D01*
X13612619Y-12403048D01*
X13593571Y-12422095D01*
X13574524Y-12431619D01*
X13803095Y-12460190D02*
X13784048Y-12450667D01*
X13774524Y-12441143D01*
X13765000Y-12422095D01*
X13765000Y-12412571D01*
X13774524Y-12393524D01*
X13784048Y-12384000D01*
X13803095Y-12374476D01*
X13841190Y-12374476D01*
X13860238Y-12384000D01*
X13869762Y-12393524D01*
X13879286Y-12412571D01*
X13879286Y-12422095D01*
X13869762Y-12441143D01*
X13860238Y-12450667D01*
X13841190Y-12460190D01*
X13803095Y-12460190D01*
X13784048Y-12469714D01*
X13774524Y-12479238D01*
X13765000Y-12498286D01*
X13765000Y-12536381D01*
X13774524Y-12555428D01*
X13784048Y-12564952D01*
X13803095Y-12574476D01*
X13841190Y-12574476D01*
X13860238Y-12564952D01*
X13869762Y-12555428D01*
X13879286Y-12536381D01*
X13879286Y-12498286D01*
X13869762Y-12479238D01*
X13860238Y-12469714D01*
X13841190Y-12460190D01*
X13955476Y-12374476D02*
X13955476Y-12412571D01*
X14031667Y-12374476D02*
X14031667Y-12412571D01*
X14326905Y-12650667D02*
X14317381Y-12641143D01*
X14298333Y-12612571D01*
X14288809Y-12593524D01*
X14279286Y-12564952D01*
X14269762Y-12517333D01*
X14269762Y-12479238D01*
X14279286Y-12431619D01*
X14288809Y-12403048D01*
X14298333Y-12384000D01*
X14317381Y-12355428D01*
X14326905Y-12345905D01*
X14488809Y-12441143D02*
X14488809Y-12574476D01*
X14441190Y-12364952D02*
X14393571Y-12507809D01*
X14517381Y-12507809D01*
X14745952Y-12574476D02*
X14745952Y-12374476D01*
X14831667Y-12574476D02*
X14831667Y-12469714D01*
X14822143Y-12450667D01*
X14803095Y-12441143D01*
X14774524Y-12441143D01*
X14755476Y-12450667D01*
X14745952Y-12460190D01*
X14955476Y-12574476D02*
X14936428Y-12564952D01*
X14926905Y-12555428D01*
X14917381Y-12536381D01*
X14917381Y-12479238D01*
X14926905Y-12460190D01*
X14936428Y-12450667D01*
X14955476Y-12441143D01*
X14984048Y-12441143D01*
X15003095Y-12450667D01*
X15012619Y-12460190D01*
X15022143Y-12479238D01*
X15022143Y-12536381D01*
X15012619Y-12555428D01*
X15003095Y-12564952D01*
X14984048Y-12574476D01*
X14955476Y-12574476D01*
X15136428Y-12574476D02*
X15117381Y-12564952D01*
X15107857Y-12545905D01*
X15107857Y-12374476D01*
X15288809Y-12564952D02*
X15269762Y-12574476D01*
X15231667Y-12574476D01*
X15212619Y-12564952D01*
X15203095Y-12545905D01*
X15203095Y-12469714D01*
X15212619Y-12450667D01*
X15231667Y-12441143D01*
X15269762Y-12441143D01*
X15288809Y-12450667D01*
X15298333Y-12469714D01*
X15298333Y-12488762D01*
X15203095Y-12507809D01*
X15374524Y-12564952D02*
X15393571Y-12574476D01*
X15431667Y-12574476D01*
X15450714Y-12564952D01*
X15460238Y-12545905D01*
X15460238Y-12536381D01*
X15450714Y-12517333D01*
X15431667Y-12507809D01*
X15403095Y-12507809D01*
X15384048Y-12498286D01*
X15374524Y-12479238D01*
X15374524Y-12469714D01*
X15384048Y-12450667D01*
X15403095Y-12441143D01*
X15431667Y-12441143D01*
X15450714Y-12450667D01*
X15526905Y-12650667D02*
X15536428Y-12641143D01*
X15555476Y-12612571D01*
X15565000Y-12593524D01*
X15574524Y-12564952D01*
X15584048Y-12517333D01*
X15584048Y-12479238D01*
X15574524Y-12431619D01*
X15565000Y-12403048D01*
X15555476Y-12384000D01*
X15536428Y-12355428D01*
X15526905Y-12345905D01*
D13*
X10730000Y-12723000D02*
X10730000Y-12773000D01*
X10705000Y-12748000D02*
X10755000Y-12748000D01*
D11*
X11050714Y-12638476D02*
X11069762Y-12638476D01*
X11088810Y-12648000D01*
X11098333Y-12657524D01*
X11107857Y-12676571D01*
X11117381Y-12714667D01*
X11117381Y-12762286D01*
X11107857Y-12800381D01*
X11098333Y-12819428D01*
X11088810Y-12828952D01*
X11069762Y-12838476D01*
X11050714Y-12838476D01*
X11031667Y-12828952D01*
X11022143Y-12819428D01*
X11012619Y-12800381D01*
X11003095Y-12762286D01*
X11003095Y-12714667D01*
X11012619Y-12676571D01*
X11022143Y-12657524D01*
X11031667Y-12648000D01*
X11050714Y-12638476D01*
X11203095Y-12819428D02*
X11212619Y-12828952D01*
X11203095Y-12838476D01*
X11193571Y-12828952D01*
X11203095Y-12819428D01*
X11203095Y-12838476D01*
X11393571Y-12638476D02*
X11298333Y-12638476D01*
X11288809Y-12733714D01*
X11298333Y-12724190D01*
X11317381Y-12714667D01*
X11365000Y-12714667D01*
X11384048Y-12724190D01*
X11393571Y-12733714D01*
X11403095Y-12752762D01*
X11403095Y-12800381D01*
X11393571Y-12819428D01*
X11384048Y-12828952D01*
X11365000Y-12838476D01*
X11317381Y-12838476D01*
X11298333Y-12828952D01*
X11288809Y-12819428D01*
X11526905Y-12638476D02*
X11545952Y-12638476D01*
X11565000Y-12648000D01*
X11574524Y-12657524D01*
X11584048Y-12676571D01*
X11593571Y-12714667D01*
X11593571Y-12762286D01*
X11584048Y-12800381D01*
X11574524Y-12819428D01*
X11565000Y-12828952D01*
X11545952Y-12838476D01*
X11526905Y-12838476D01*
X11507857Y-12828952D01*
X11498333Y-12819428D01*
X11488809Y-12800381D01*
X11479286Y-12762286D01*
X11479286Y-12714667D01*
X11488809Y-12676571D01*
X11498333Y-12657524D01*
X11507857Y-12648000D01*
X11526905Y-12638476D01*
X11717381Y-12638476D02*
X11736428Y-12638476D01*
X11755476Y-12648000D01*
X11765000Y-12657524D01*
X11774524Y-12676571D01*
X11784048Y-12714667D01*
X11784048Y-12762286D01*
X11774524Y-12800381D01*
X11765000Y-12819428D01*
X11755476Y-12828952D01*
X11736428Y-12838476D01*
X11717381Y-12838476D01*
X11698333Y-12828952D01*
X11688809Y-12819428D01*
X11679286Y-12800381D01*
X11669762Y-12762286D01*
X11669762Y-12714667D01*
X11679286Y-12676571D01*
X11688809Y-12657524D01*
X11698333Y-12648000D01*
X11717381Y-12638476D01*
X11869762Y-12838476D02*
X11869762Y-12705143D01*
X11869762Y-12724190D02*
X11879286Y-12714667D01*
X11898333Y-12705143D01*
X11926905Y-12705143D01*
X11945952Y-12714667D01*
X11955476Y-12733714D01*
X11955476Y-12838476D01*
X11955476Y-12733714D02*
X11965000Y-12714667D01*
X11984048Y-12705143D01*
X12012619Y-12705143D01*
X12031667Y-12714667D01*
X12041190Y-12733714D01*
X12041190Y-12838476D01*
X12136428Y-12838476D02*
X12136428Y-12705143D01*
X12136428Y-12724190D02*
X12145952Y-12714667D01*
X12165000Y-12705143D01*
X12193571Y-12705143D01*
X12212619Y-12714667D01*
X12222143Y-12733714D01*
X12222143Y-12838476D01*
X12222143Y-12733714D02*
X12231667Y-12714667D01*
X12250714Y-12705143D01*
X12279286Y-12705143D01*
X12298333Y-12714667D01*
X12307857Y-12733714D01*
X12307857Y-12838476D01*
X12698333Y-12628952D02*
X12526905Y-12886095D01*
X12955476Y-12638476D02*
X12974524Y-12638476D01*
X12993571Y-12648000D01*
X13003095Y-12657524D01*
X13012619Y-12676571D01*
X13022143Y-12714667D01*
X13022143Y-12762286D01*
X13012619Y-12800381D01*
X13003095Y-12819428D01*
X12993571Y-12828952D01*
X12974524Y-12838476D01*
X12955476Y-12838476D01*
X12936428Y-12828952D01*
X12926905Y-12819428D01*
X12917381Y-12800381D01*
X12907857Y-12762286D01*
X12907857Y-12714667D01*
X12917381Y-12676571D01*
X12926905Y-12657524D01*
X12936428Y-12648000D01*
X12955476Y-12638476D01*
X13107857Y-12819428D02*
X13117381Y-12828952D01*
X13107857Y-12838476D01*
X13098333Y-12828952D01*
X13107857Y-12819428D01*
X13107857Y-12838476D01*
X13241190Y-12638476D02*
X13260238Y-12638476D01*
X13279286Y-12648000D01*
X13288809Y-12657524D01*
X13298333Y-12676571D01*
X13307857Y-12714667D01*
X13307857Y-12762286D01*
X13298333Y-12800381D01*
X13288809Y-12819428D01*
X13279286Y-12828952D01*
X13260238Y-12838476D01*
X13241190Y-12838476D01*
X13222143Y-12828952D01*
X13212619Y-12819428D01*
X13203095Y-12800381D01*
X13193571Y-12762286D01*
X13193571Y-12714667D01*
X13203095Y-12676571D01*
X13212619Y-12657524D01*
X13222143Y-12648000D01*
X13241190Y-12638476D01*
X13498333Y-12838476D02*
X13384048Y-12838476D01*
X13441190Y-12838476D02*
X13441190Y-12638476D01*
X13422143Y-12667048D01*
X13403095Y-12686095D01*
X13384048Y-12695619D01*
X13593571Y-12838476D02*
X13631667Y-12838476D01*
X13650714Y-12828952D01*
X13660238Y-12819428D01*
X13679286Y-12790857D01*
X13688809Y-12752762D01*
X13688809Y-12676571D01*
X13679286Y-12657524D01*
X13669762Y-12648000D01*
X13650714Y-12638476D01*
X13612619Y-12638476D01*
X13593571Y-12648000D01*
X13584048Y-12657524D01*
X13574524Y-12676571D01*
X13574524Y-12724190D01*
X13584048Y-12743238D01*
X13593571Y-12752762D01*
X13612619Y-12762286D01*
X13650714Y-12762286D01*
X13669762Y-12752762D01*
X13679286Y-12743238D01*
X13688809Y-12724190D01*
X13755476Y-12638476D02*
X13888809Y-12638476D01*
X13803095Y-12838476D01*
X13955476Y-12638476D02*
X13955476Y-12676571D01*
X14031667Y-12638476D02*
X14031667Y-12676571D01*
X14326905Y-12914667D02*
X14317381Y-12905143D01*
X14298333Y-12876571D01*
X14288809Y-12857524D01*
X14279286Y-12828952D01*
X14269762Y-12781333D01*
X14269762Y-12743238D01*
X14279286Y-12695619D01*
X14288809Y-12667048D01*
X14298333Y-12648000D01*
X14317381Y-12619428D01*
X14326905Y-12609905D01*
X14431667Y-12724190D02*
X14412619Y-12714667D01*
X14403095Y-12705143D01*
X14393571Y-12686095D01*
X14393571Y-12676571D01*
X14403095Y-12657524D01*
X14412619Y-12648000D01*
X14431667Y-12638476D01*
X14469762Y-12638476D01*
X14488809Y-12648000D01*
X14498333Y-12657524D01*
X14507857Y-12676571D01*
X14507857Y-12686095D01*
X14498333Y-12705143D01*
X14488809Y-12714667D01*
X14469762Y-12724190D01*
X14431667Y-12724190D01*
X14412619Y-12733714D01*
X14403095Y-12743238D01*
X14393571Y-12762286D01*
X14393571Y-12800381D01*
X14403095Y-12819428D01*
X14412619Y-12828952D01*
X14431667Y-12838476D01*
X14469762Y-12838476D01*
X14488809Y-12828952D01*
X14498333Y-12819428D01*
X14507857Y-12800381D01*
X14507857Y-12762286D01*
X14498333Y-12743238D01*
X14488809Y-12733714D01*
X14469762Y-12724190D01*
X14745952Y-12838476D02*
X14745952Y-12638476D01*
X14831667Y-12838476D02*
X14831667Y-12733714D01*
X14822143Y-12714667D01*
X14803095Y-12705143D01*
X14774524Y-12705143D01*
X14755476Y-12714667D01*
X14745952Y-12724190D01*
X14955476Y-12838476D02*
X14936428Y-12828952D01*
X14926905Y-12819428D01*
X14917381Y-12800381D01*
X14917381Y-12743238D01*
X14926905Y-12724190D01*
X14936428Y-12714667D01*
X14955476Y-12705143D01*
X14984048Y-12705143D01*
X15003095Y-12714667D01*
X15012619Y-12724190D01*
X15022143Y-12743238D01*
X15022143Y-12800381D01*
X15012619Y-12819428D01*
X15003095Y-12828952D01*
X14984048Y-12838476D01*
X14955476Y-12838476D01*
X15136428Y-12838476D02*
X15117381Y-12828952D01*
X15107857Y-12809905D01*
X15107857Y-12638476D01*
X15288809Y-12828952D02*
X15269762Y-12838476D01*
X15231667Y-12838476D01*
X15212619Y-12828952D01*
X15203095Y-12809905D01*
X15203095Y-12733714D01*
X15212619Y-12714667D01*
X15231667Y-12705143D01*
X15269762Y-12705143D01*
X15288809Y-12714667D01*
X15298333Y-12733714D01*
X15298333Y-12752762D01*
X15203095Y-12771809D01*
X15374524Y-12828952D02*
X15393571Y-12838476D01*
X15431667Y-12838476D01*
X15450714Y-12828952D01*
X15460238Y-12809905D01*
X15460238Y-12800381D01*
X15450714Y-12781333D01*
X15431667Y-12771809D01*
X15403095Y-12771809D01*
X15384048Y-12762286D01*
X15374524Y-12743238D01*
X15374524Y-12733714D01*
X15384048Y-12714667D01*
X15403095Y-12705143D01*
X15431667Y-12705143D01*
X15450714Y-12714667D01*
X15526905Y-12914667D02*
X15536428Y-12905143D01*
X15555476Y-12876571D01*
X15565000Y-12857524D01*
X15574524Y-12828952D01*
X15584048Y-12781333D01*
X15584048Y-12743238D01*
X15574524Y-12695619D01*
X15565000Y-12667048D01*
X15555476Y-12648000D01*
X15536428Y-12619428D01*
X15526905Y-12609905D01*
M02*
