%FSLAX45Y45*%
G04 Gerber Fmt 4.5, Leading zero omitted, Abs format (unit mm)*
G04 Created by KiCad (PCBNEW 6.0.2+dfsg-1) date 2024-05-15 15:08:56*
%MOMM*%
%LPD*%
G01*
G04 APERTURE LIST*
%TA.AperFunction,Profile*%
%ADD10C,0.100000*%
%TD*%
%ADD11C,0.200000*%
%ADD12C,0.060000*%
%ADD13C,0.115200*%
G04 APERTURE END LIST*
D10*
X12575000Y-9705000D02*
X12665000Y-9785000D01*
X12575000Y-11025000D02*
X12575000Y-9705000D01*
X11010000Y-9785000D02*
X11010000Y-11275000D01*
X11175000Y-9290000D02*
X11105000Y-9400000D01*
X10760000Y-11575000D02*
X12910000Y-11575000D01*
X12910000Y-11575000D02*
X12910000Y-8905000D01*
X12910000Y-8905000D02*
X10760000Y-8905000D01*
X10760000Y-8905000D02*
X10760000Y-11575000D01*
X11105000Y-9400000D02*
X11015000Y-9280000D01*
X12665000Y-11275000D02*
X12200000Y-11275000D01*
X12575000Y-9400000D02*
X12490000Y-9290000D01*
X12490000Y-11195000D02*
X12140000Y-11195000D01*
X11590000Y-11275000D02*
X11655000Y-11195000D01*
X11015000Y-9280000D02*
X11015000Y-9205000D01*
X12575000Y-9400000D02*
X12665000Y-9270000D01*
X11655000Y-11195000D02*
X11185000Y-11195000D01*
X11105000Y-9700000D02*
X11105000Y-11025000D01*
X12490000Y-11195000D02*
X12575000Y-11025000D01*
X11105000Y-11025000D02*
X11185000Y-11195000D01*
X11015000Y-9205000D02*
X12665000Y-9205000D01*
X12665000Y-9270000D02*
X12665000Y-9205000D01*
X12665000Y-9785000D02*
X12665000Y-11275000D01*
X12490000Y-9290000D02*
X11175000Y-9290000D01*
X11105000Y-9700000D02*
X11010000Y-9785000D01*
X11590000Y-11275000D02*
X11010000Y-11275000D01*
X12200000Y-11275000D02*
X12140000Y-11195000D01*
D11*
D12*
X11075000Y-8935000D02*
X11135000Y-8995000D01*
X11135000Y-8935000D02*
X11075000Y-8995000D01*
X11075000Y-9025000D02*
X11135000Y-9085000D01*
X11135000Y-9025000D02*
X11075000Y-9085000D01*
X11075000Y-9115000D02*
X11135000Y-9175000D01*
X11135000Y-9115000D02*
X11075000Y-9175000D01*
X11075000Y-9430000D02*
X11135000Y-9490000D01*
X11135000Y-9430000D02*
X11075000Y-9490000D01*
X11075000Y-9520000D02*
X11135000Y-9580000D01*
X11135000Y-9520000D02*
X11075000Y-9580000D01*
X11075000Y-9610000D02*
X11135000Y-9670000D01*
X11135000Y-9610000D02*
X11075000Y-9670000D01*
X11080000Y-11305000D02*
X11140000Y-11365000D01*
X11140000Y-11305000D02*
X11080000Y-11365000D01*
X11080000Y-11395000D02*
X11140000Y-11455000D01*
X11140000Y-11395000D02*
X11080000Y-11455000D01*
X11080000Y-11485000D02*
X11140000Y-11545000D01*
X11140000Y-11485000D02*
X11080000Y-11545000D01*
X11687000Y-11175000D02*
X11747000Y-11235000D01*
X11747000Y-11175000D02*
X11687000Y-11235000D01*
X11777000Y-11175000D02*
X11837000Y-11235000D01*
X11837000Y-11175000D02*
X11777000Y-11235000D01*
X11867000Y-11175000D02*
X11927000Y-11235000D01*
X11927000Y-11175000D02*
X11867000Y-11235000D01*
X11957000Y-11175000D02*
X12017000Y-11235000D01*
X12017000Y-11175000D02*
X11957000Y-11235000D01*
X12047000Y-11175000D02*
X12107000Y-11235000D01*
X12107000Y-11175000D02*
X12047000Y-11235000D01*
X12545000Y-8935000D02*
X12605000Y-8995000D01*
X12605000Y-8935000D02*
X12545000Y-8995000D01*
X12545000Y-9025000D02*
X12605000Y-9085000D01*
X12605000Y-9025000D02*
X12545000Y-9085000D01*
X12545000Y-9115000D02*
X12605000Y-9175000D01*
X12605000Y-9115000D02*
X12545000Y-9175000D01*
X12545000Y-9430000D02*
X12605000Y-9490000D01*
X12605000Y-9430000D02*
X12545000Y-9490000D01*
X12545000Y-9520000D02*
X12605000Y-9580000D01*
X12605000Y-9520000D02*
X12545000Y-9580000D01*
X12545000Y-9610000D02*
X12605000Y-9670000D01*
X12605000Y-9610000D02*
X12545000Y-9670000D01*
X12545000Y-11305000D02*
X12605000Y-11365000D01*
X12605000Y-11305000D02*
X12545000Y-11365000D01*
X12545000Y-11395000D02*
X12605000Y-11455000D01*
X12605000Y-11395000D02*
X12545000Y-11455000D01*
X12545000Y-11485000D02*
X12605000Y-11545000D01*
X12605000Y-11485000D02*
X12545000Y-11545000D01*
D13*
X10962600Y-9495000D02*
G75*
G03*
X10962600Y-9495000I-57600J0D01*
G01*
X11957600Y-11415000D02*
G75*
G03*
X11957600Y-11415000I-57600J0D01*
G01*
X12832600Y-9490000D02*
G75*
G03*
X12832600Y-9490000I-57600J0D01*
G01*
D11*
X11012619Y-11890476D02*
X11012619Y-11690476D01*
X11060238Y-11690476D01*
X11088810Y-11700000D01*
X11107857Y-11719048D01*
X11117381Y-11738095D01*
X11126905Y-11776190D01*
X11126905Y-11804762D01*
X11117381Y-11842857D01*
X11107857Y-11861905D01*
X11088810Y-11880952D01*
X11060238Y-11890476D01*
X11012619Y-11890476D01*
X11212619Y-11890476D02*
X11212619Y-11757143D01*
X11212619Y-11795238D02*
X11222143Y-11776190D01*
X11231667Y-11766667D01*
X11250714Y-11757143D01*
X11269762Y-11757143D01*
X11336428Y-11890476D02*
X11336428Y-11757143D01*
X11336428Y-11690476D02*
X11326905Y-11700000D01*
X11336428Y-11709524D01*
X11345952Y-11700000D01*
X11336428Y-11690476D01*
X11336428Y-11709524D01*
X11460238Y-11890476D02*
X11441190Y-11880952D01*
X11431667Y-11861905D01*
X11431667Y-11690476D01*
X11565000Y-11890476D02*
X11545952Y-11880952D01*
X11536428Y-11861905D01*
X11536428Y-11690476D01*
X11793571Y-11890476D02*
X11793571Y-11690476D01*
X11860238Y-11833333D01*
X11926905Y-11690476D01*
X11926905Y-11890476D01*
X12107857Y-11890476D02*
X12107857Y-11785714D01*
X12098333Y-11766667D01*
X12079286Y-11757143D01*
X12041190Y-11757143D01*
X12022143Y-11766667D01*
X12107857Y-11880952D02*
X12088809Y-11890476D01*
X12041190Y-11890476D01*
X12022143Y-11880952D01*
X12012619Y-11861905D01*
X12012619Y-11842857D01*
X12022143Y-11823809D01*
X12041190Y-11814286D01*
X12088809Y-11814286D01*
X12107857Y-11804762D01*
X12203095Y-11757143D02*
X12203095Y-11957143D01*
X12203095Y-11766667D02*
X12222143Y-11757143D01*
X12260238Y-11757143D01*
X12279286Y-11766667D01*
X12288809Y-11776190D01*
X12298333Y-11795238D01*
X12298333Y-11852381D01*
X12288809Y-11871428D01*
X12279286Y-11880952D01*
X12260238Y-11890476D01*
X12222143Y-11890476D01*
X12203095Y-11880952D01*
X12384048Y-11871428D02*
X12393571Y-11880952D01*
X12384048Y-11890476D01*
X12374524Y-11880952D01*
X12384048Y-11871428D01*
X12384048Y-11890476D01*
X12384048Y-11766667D02*
X12393571Y-11776190D01*
X12384048Y-11785714D01*
X12374524Y-11776190D01*
X12384048Y-11766667D01*
X12384048Y-11785714D01*
D12*
X10695000Y-12190000D02*
X10755000Y-12250000D01*
X10755000Y-12190000D02*
X10695000Y-12250000D01*
D11*
X11050714Y-12110476D02*
X11069762Y-12110476D01*
X11088810Y-12120000D01*
X11098333Y-12129524D01*
X11107857Y-12148571D01*
X11117381Y-12186667D01*
X11117381Y-12234286D01*
X11107857Y-12272381D01*
X11098333Y-12291428D01*
X11088810Y-12300952D01*
X11069762Y-12310476D01*
X11050714Y-12310476D01*
X11031667Y-12300952D01*
X11022143Y-12291428D01*
X11012619Y-12272381D01*
X11003095Y-12234286D01*
X11003095Y-12186667D01*
X11012619Y-12148571D01*
X11022143Y-12129524D01*
X11031667Y-12120000D01*
X11050714Y-12110476D01*
X11203095Y-12291428D02*
X11212619Y-12300952D01*
X11203095Y-12310476D01*
X11193571Y-12300952D01*
X11203095Y-12291428D01*
X11203095Y-12310476D01*
X11384048Y-12110476D02*
X11345952Y-12110476D01*
X11326905Y-12120000D01*
X11317381Y-12129524D01*
X11298333Y-12158095D01*
X11288809Y-12196190D01*
X11288809Y-12272381D01*
X11298333Y-12291428D01*
X11307857Y-12300952D01*
X11326905Y-12310476D01*
X11365000Y-12310476D01*
X11384048Y-12300952D01*
X11393571Y-12291428D01*
X11403095Y-12272381D01*
X11403095Y-12224762D01*
X11393571Y-12205714D01*
X11384048Y-12196190D01*
X11365000Y-12186667D01*
X11326905Y-12186667D01*
X11307857Y-12196190D01*
X11298333Y-12205714D01*
X11288809Y-12224762D01*
X11526905Y-12110476D02*
X11545952Y-12110476D01*
X11565000Y-12120000D01*
X11574524Y-12129524D01*
X11584048Y-12148571D01*
X11593571Y-12186667D01*
X11593571Y-12234286D01*
X11584048Y-12272381D01*
X11574524Y-12291428D01*
X11565000Y-12300952D01*
X11545952Y-12310476D01*
X11526905Y-12310476D01*
X11507857Y-12300952D01*
X11498333Y-12291428D01*
X11488809Y-12272381D01*
X11479286Y-12234286D01*
X11479286Y-12186667D01*
X11488809Y-12148571D01*
X11498333Y-12129524D01*
X11507857Y-12120000D01*
X11526905Y-12110476D01*
X11717381Y-12110476D02*
X11736428Y-12110476D01*
X11755476Y-12120000D01*
X11765000Y-12129524D01*
X11774524Y-12148571D01*
X11784048Y-12186667D01*
X11784048Y-12234286D01*
X11774524Y-12272381D01*
X11765000Y-12291428D01*
X11755476Y-12300952D01*
X11736428Y-12310476D01*
X11717381Y-12310476D01*
X11698333Y-12300952D01*
X11688809Y-12291428D01*
X11679286Y-12272381D01*
X11669762Y-12234286D01*
X11669762Y-12186667D01*
X11679286Y-12148571D01*
X11688809Y-12129524D01*
X11698333Y-12120000D01*
X11717381Y-12110476D01*
X11869762Y-12310476D02*
X11869762Y-12177143D01*
X11869762Y-12196190D02*
X11879286Y-12186667D01*
X11898333Y-12177143D01*
X11926905Y-12177143D01*
X11945952Y-12186667D01*
X11955476Y-12205714D01*
X11955476Y-12310476D01*
X11955476Y-12205714D02*
X11965000Y-12186667D01*
X11984048Y-12177143D01*
X12012619Y-12177143D01*
X12031667Y-12186667D01*
X12041190Y-12205714D01*
X12041190Y-12310476D01*
X12136428Y-12310476D02*
X12136428Y-12177143D01*
X12136428Y-12196190D02*
X12145952Y-12186667D01*
X12165000Y-12177143D01*
X12193571Y-12177143D01*
X12212619Y-12186667D01*
X12222143Y-12205714D01*
X12222143Y-12310476D01*
X12222143Y-12205714D02*
X12231667Y-12186667D01*
X12250714Y-12177143D01*
X12279286Y-12177143D01*
X12298333Y-12186667D01*
X12307857Y-12205714D01*
X12307857Y-12310476D01*
X12698333Y-12100952D02*
X12526905Y-12358095D01*
X12955476Y-12110476D02*
X12974524Y-12110476D01*
X12993571Y-12120000D01*
X13003095Y-12129524D01*
X13012619Y-12148571D01*
X13022143Y-12186667D01*
X13022143Y-12234286D01*
X13012619Y-12272381D01*
X13003095Y-12291428D01*
X12993571Y-12300952D01*
X12974524Y-12310476D01*
X12955476Y-12310476D01*
X12936428Y-12300952D01*
X12926905Y-12291428D01*
X12917381Y-12272381D01*
X12907857Y-12234286D01*
X12907857Y-12186667D01*
X12917381Y-12148571D01*
X12926905Y-12129524D01*
X12936428Y-12120000D01*
X12955476Y-12110476D01*
X13107857Y-12291428D02*
X13117381Y-12300952D01*
X13107857Y-12310476D01*
X13098333Y-12300952D01*
X13107857Y-12291428D01*
X13107857Y-12310476D01*
X13241190Y-12110476D02*
X13260238Y-12110476D01*
X13279286Y-12120000D01*
X13288809Y-12129524D01*
X13298333Y-12148571D01*
X13307857Y-12186667D01*
X13307857Y-12234286D01*
X13298333Y-12272381D01*
X13288809Y-12291428D01*
X13279286Y-12300952D01*
X13260238Y-12310476D01*
X13241190Y-12310476D01*
X13222143Y-12300952D01*
X13212619Y-12291428D01*
X13203095Y-12272381D01*
X13193571Y-12234286D01*
X13193571Y-12186667D01*
X13203095Y-12148571D01*
X13212619Y-12129524D01*
X13222143Y-12120000D01*
X13241190Y-12110476D01*
X13384048Y-12129524D02*
X13393571Y-12120000D01*
X13412619Y-12110476D01*
X13460238Y-12110476D01*
X13479286Y-12120000D01*
X13488809Y-12129524D01*
X13498333Y-12148571D01*
X13498333Y-12167619D01*
X13488809Y-12196190D01*
X13374524Y-12310476D01*
X13498333Y-12310476D01*
X13565000Y-12110476D02*
X13688809Y-12110476D01*
X13622143Y-12186667D01*
X13650714Y-12186667D01*
X13669762Y-12196190D01*
X13679286Y-12205714D01*
X13688809Y-12224762D01*
X13688809Y-12272381D01*
X13679286Y-12291428D01*
X13669762Y-12300952D01*
X13650714Y-12310476D01*
X13593571Y-12310476D01*
X13574524Y-12300952D01*
X13565000Y-12291428D01*
X13860238Y-12110476D02*
X13822143Y-12110476D01*
X13803095Y-12120000D01*
X13793571Y-12129524D01*
X13774524Y-12158095D01*
X13765000Y-12196190D01*
X13765000Y-12272381D01*
X13774524Y-12291428D01*
X13784048Y-12300952D01*
X13803095Y-12310476D01*
X13841190Y-12310476D01*
X13860238Y-12300952D01*
X13869762Y-12291428D01*
X13879286Y-12272381D01*
X13879286Y-12224762D01*
X13869762Y-12205714D01*
X13860238Y-12196190D01*
X13841190Y-12186667D01*
X13803095Y-12186667D01*
X13784048Y-12196190D01*
X13774524Y-12205714D01*
X13765000Y-12224762D01*
X13955476Y-12110476D02*
X13955476Y-12148571D01*
X14031667Y-12110476D02*
X14031667Y-12148571D01*
X14326905Y-12386667D02*
X14317381Y-12377143D01*
X14298333Y-12348571D01*
X14288809Y-12329524D01*
X14279286Y-12300952D01*
X14269762Y-12253333D01*
X14269762Y-12215238D01*
X14279286Y-12167619D01*
X14288809Y-12139048D01*
X14298333Y-12120000D01*
X14317381Y-12091428D01*
X14326905Y-12081905D01*
X14393571Y-12129524D02*
X14403095Y-12120000D01*
X14422143Y-12110476D01*
X14469762Y-12110476D01*
X14488809Y-12120000D01*
X14498333Y-12129524D01*
X14507857Y-12148571D01*
X14507857Y-12167619D01*
X14498333Y-12196190D01*
X14384048Y-12310476D01*
X14507857Y-12310476D01*
X14574524Y-12110476D02*
X14698333Y-12110476D01*
X14631667Y-12186667D01*
X14660238Y-12186667D01*
X14679286Y-12196190D01*
X14688809Y-12205714D01*
X14698333Y-12224762D01*
X14698333Y-12272381D01*
X14688809Y-12291428D01*
X14679286Y-12300952D01*
X14660238Y-12310476D01*
X14603095Y-12310476D01*
X14584048Y-12300952D01*
X14574524Y-12291428D01*
X14936428Y-12310476D02*
X14936428Y-12110476D01*
X15022143Y-12310476D02*
X15022143Y-12205714D01*
X15012619Y-12186667D01*
X14993571Y-12177143D01*
X14965000Y-12177143D01*
X14945952Y-12186667D01*
X14936428Y-12196190D01*
X15145952Y-12310476D02*
X15126905Y-12300952D01*
X15117381Y-12291428D01*
X15107857Y-12272381D01*
X15107857Y-12215238D01*
X15117381Y-12196190D01*
X15126905Y-12186667D01*
X15145952Y-12177143D01*
X15174524Y-12177143D01*
X15193571Y-12186667D01*
X15203095Y-12196190D01*
X15212619Y-12215238D01*
X15212619Y-12272381D01*
X15203095Y-12291428D01*
X15193571Y-12300952D01*
X15174524Y-12310476D01*
X15145952Y-12310476D01*
X15326905Y-12310476D02*
X15307857Y-12300952D01*
X15298333Y-12281905D01*
X15298333Y-12110476D01*
X15479286Y-12300952D02*
X15460238Y-12310476D01*
X15422143Y-12310476D01*
X15403095Y-12300952D01*
X15393571Y-12281905D01*
X15393571Y-12205714D01*
X15403095Y-12186667D01*
X15422143Y-12177143D01*
X15460238Y-12177143D01*
X15479286Y-12186667D01*
X15488809Y-12205714D01*
X15488809Y-12224762D01*
X15393571Y-12243809D01*
X15565000Y-12300952D02*
X15584048Y-12310476D01*
X15622143Y-12310476D01*
X15641190Y-12300952D01*
X15650714Y-12281905D01*
X15650714Y-12272381D01*
X15641190Y-12253333D01*
X15622143Y-12243809D01*
X15593571Y-12243809D01*
X15574524Y-12234286D01*
X15565000Y-12215238D01*
X15565000Y-12205714D01*
X15574524Y-12186667D01*
X15593571Y-12177143D01*
X15622143Y-12177143D01*
X15641190Y-12186667D01*
X15717381Y-12386667D02*
X15726905Y-12377143D01*
X15745952Y-12348571D01*
X15755476Y-12329524D01*
X15765000Y-12300952D01*
X15774524Y-12253333D01*
X15774524Y-12215238D01*
X15765000Y-12167619D01*
X15755476Y-12139048D01*
X15745952Y-12120000D01*
X15726905Y-12091428D01*
X15717381Y-12081905D01*
X16079286Y-12386667D02*
X16069762Y-12377143D01*
X16050714Y-12348571D01*
X16041190Y-12329524D01*
X16031667Y-12300952D01*
X16022143Y-12253333D01*
X16022143Y-12215238D01*
X16031667Y-12167619D01*
X16041190Y-12139048D01*
X16050714Y-12120000D01*
X16069762Y-12091428D01*
X16079286Y-12081905D01*
X16155476Y-12177143D02*
X16155476Y-12310476D01*
X16155476Y-12196190D02*
X16165000Y-12186667D01*
X16184048Y-12177143D01*
X16212619Y-12177143D01*
X16231667Y-12186667D01*
X16241190Y-12205714D01*
X16241190Y-12310476D01*
X16365000Y-12310476D02*
X16345952Y-12300952D01*
X16336428Y-12291428D01*
X16326905Y-12272381D01*
X16326905Y-12215238D01*
X16336428Y-12196190D01*
X16345952Y-12186667D01*
X16365000Y-12177143D01*
X16393571Y-12177143D01*
X16412619Y-12186667D01*
X16422143Y-12196190D01*
X16431667Y-12215238D01*
X16431667Y-12272381D01*
X16422143Y-12291428D01*
X16412619Y-12300952D01*
X16393571Y-12310476D01*
X16365000Y-12310476D01*
X16488809Y-12177143D02*
X16565000Y-12177143D01*
X16517381Y-12110476D02*
X16517381Y-12281905D01*
X16526905Y-12300952D01*
X16545952Y-12310476D01*
X16565000Y-12310476D01*
X16784048Y-12177143D02*
X16784048Y-12377143D01*
X16784048Y-12186667D02*
X16803095Y-12177143D01*
X16841190Y-12177143D01*
X16860238Y-12186667D01*
X16869762Y-12196190D01*
X16879286Y-12215238D01*
X16879286Y-12272381D01*
X16869762Y-12291428D01*
X16860238Y-12300952D01*
X16841190Y-12310476D01*
X16803095Y-12310476D01*
X16784048Y-12300952D01*
X16993571Y-12310476D02*
X16974524Y-12300952D01*
X16965000Y-12281905D01*
X16965000Y-12110476D01*
X17155476Y-12310476D02*
X17155476Y-12205714D01*
X17145952Y-12186667D01*
X17126905Y-12177143D01*
X17088810Y-12177143D01*
X17069762Y-12186667D01*
X17155476Y-12300952D02*
X17136429Y-12310476D01*
X17088810Y-12310476D01*
X17069762Y-12300952D01*
X17060238Y-12281905D01*
X17060238Y-12262857D01*
X17069762Y-12243809D01*
X17088810Y-12234286D01*
X17136429Y-12234286D01*
X17155476Y-12224762D01*
X17222143Y-12177143D02*
X17298333Y-12177143D01*
X17250714Y-12110476D02*
X17250714Y-12281905D01*
X17260238Y-12300952D01*
X17279286Y-12310476D01*
X17298333Y-12310476D01*
X17441190Y-12300952D02*
X17422143Y-12310476D01*
X17384048Y-12310476D01*
X17365000Y-12300952D01*
X17355476Y-12281905D01*
X17355476Y-12205714D01*
X17365000Y-12186667D01*
X17384048Y-12177143D01*
X17422143Y-12177143D01*
X17441190Y-12186667D01*
X17450714Y-12205714D01*
X17450714Y-12224762D01*
X17355476Y-12243809D01*
X17622143Y-12310476D02*
X17622143Y-12110476D01*
X17622143Y-12300952D02*
X17603095Y-12310476D01*
X17565000Y-12310476D01*
X17545952Y-12300952D01*
X17536429Y-12291428D01*
X17526905Y-12272381D01*
X17526905Y-12215238D01*
X17536429Y-12196190D01*
X17545952Y-12186667D01*
X17565000Y-12177143D01*
X17603095Y-12177143D01*
X17622143Y-12186667D01*
X17698333Y-12386667D02*
X17707857Y-12377143D01*
X17726905Y-12348571D01*
X17736429Y-12329524D01*
X17745952Y-12300952D01*
X17755476Y-12253333D01*
X17755476Y-12215238D01*
X17745952Y-12167619D01*
X17736429Y-12139048D01*
X17726905Y-12120000D01*
X17707857Y-12091428D01*
X17698333Y-12081905D01*
D13*
X10755000Y-12484000D02*
G75*
G03*
X10755000Y-12484000I-57600J0D01*
G01*
D11*
X11117381Y-12574476D02*
X11003095Y-12574476D01*
X11060238Y-12574476D02*
X11060238Y-12374476D01*
X11041190Y-12403048D01*
X11022143Y-12422095D01*
X11003095Y-12431619D01*
X11203095Y-12555428D02*
X11212619Y-12564952D01*
X11203095Y-12574476D01*
X11193571Y-12564952D01*
X11203095Y-12555428D01*
X11203095Y-12574476D01*
X11403095Y-12574476D02*
X11288809Y-12574476D01*
X11345952Y-12574476D02*
X11345952Y-12374476D01*
X11326905Y-12403048D01*
X11307857Y-12422095D01*
X11288809Y-12431619D01*
X11584048Y-12374476D02*
X11488809Y-12374476D01*
X11479286Y-12469714D01*
X11488809Y-12460190D01*
X11507857Y-12450667D01*
X11555476Y-12450667D01*
X11574524Y-12460190D01*
X11584048Y-12469714D01*
X11593571Y-12488762D01*
X11593571Y-12536381D01*
X11584048Y-12555428D01*
X11574524Y-12564952D01*
X11555476Y-12574476D01*
X11507857Y-12574476D01*
X11488809Y-12564952D01*
X11479286Y-12555428D01*
X11669762Y-12393524D02*
X11679286Y-12384000D01*
X11698333Y-12374476D01*
X11745952Y-12374476D01*
X11765000Y-12384000D01*
X11774524Y-12393524D01*
X11784048Y-12412571D01*
X11784048Y-12431619D01*
X11774524Y-12460190D01*
X11660238Y-12574476D01*
X11784048Y-12574476D01*
X11869762Y-12574476D02*
X11869762Y-12441143D01*
X11869762Y-12460190D02*
X11879286Y-12450667D01*
X11898333Y-12441143D01*
X11926905Y-12441143D01*
X11945952Y-12450667D01*
X11955476Y-12469714D01*
X11955476Y-12574476D01*
X11955476Y-12469714D02*
X11965000Y-12450667D01*
X11984048Y-12441143D01*
X12012619Y-12441143D01*
X12031667Y-12450667D01*
X12041190Y-12469714D01*
X12041190Y-12574476D01*
X12136428Y-12574476D02*
X12136428Y-12441143D01*
X12136428Y-12460190D02*
X12145952Y-12450667D01*
X12165000Y-12441143D01*
X12193571Y-12441143D01*
X12212619Y-12450667D01*
X12222143Y-12469714D01*
X12222143Y-12574476D01*
X12222143Y-12469714D02*
X12231667Y-12450667D01*
X12250714Y-12441143D01*
X12279286Y-12441143D01*
X12298333Y-12450667D01*
X12307857Y-12469714D01*
X12307857Y-12574476D01*
X12698333Y-12364952D02*
X12526905Y-12622095D01*
X12955476Y-12374476D02*
X12974524Y-12374476D01*
X12993571Y-12384000D01*
X13003095Y-12393524D01*
X13012619Y-12412571D01*
X13022143Y-12450667D01*
X13022143Y-12498286D01*
X13012619Y-12536381D01*
X13003095Y-12555428D01*
X12993571Y-12564952D01*
X12974524Y-12574476D01*
X12955476Y-12574476D01*
X12936428Y-12564952D01*
X12926905Y-12555428D01*
X12917381Y-12536381D01*
X12907857Y-12498286D01*
X12907857Y-12450667D01*
X12917381Y-12412571D01*
X12926905Y-12393524D01*
X12936428Y-12384000D01*
X12955476Y-12374476D01*
X13107857Y-12555428D02*
X13117381Y-12564952D01*
X13107857Y-12574476D01*
X13098333Y-12564952D01*
X13107857Y-12555428D01*
X13107857Y-12574476D01*
X13241190Y-12374476D02*
X13260238Y-12374476D01*
X13279286Y-12384000D01*
X13288809Y-12393524D01*
X13298333Y-12412571D01*
X13307857Y-12450667D01*
X13307857Y-12498286D01*
X13298333Y-12536381D01*
X13288809Y-12555428D01*
X13279286Y-12564952D01*
X13260238Y-12574476D01*
X13241190Y-12574476D01*
X13222143Y-12564952D01*
X13212619Y-12555428D01*
X13203095Y-12536381D01*
X13193571Y-12498286D01*
X13193571Y-12450667D01*
X13203095Y-12412571D01*
X13212619Y-12393524D01*
X13222143Y-12384000D01*
X13241190Y-12374476D01*
X13479286Y-12441143D02*
X13479286Y-12574476D01*
X13431667Y-12364952D02*
X13384048Y-12507809D01*
X13507857Y-12507809D01*
X13679286Y-12374476D02*
X13584048Y-12374476D01*
X13574524Y-12469714D01*
X13584048Y-12460190D01*
X13603095Y-12450667D01*
X13650714Y-12450667D01*
X13669762Y-12460190D01*
X13679286Y-12469714D01*
X13688809Y-12488762D01*
X13688809Y-12536381D01*
X13679286Y-12555428D01*
X13669762Y-12564952D01*
X13650714Y-12574476D01*
X13603095Y-12574476D01*
X13584048Y-12564952D01*
X13574524Y-12555428D01*
X13860238Y-12441143D02*
X13860238Y-12574476D01*
X13812619Y-12364952D02*
X13765000Y-12507809D01*
X13888809Y-12507809D01*
X13955476Y-12374476D02*
X13955476Y-12412571D01*
X14031667Y-12374476D02*
X14031667Y-12412571D01*
X14326905Y-12650667D02*
X14317381Y-12641143D01*
X14298333Y-12612571D01*
X14288809Y-12593524D01*
X14279286Y-12564952D01*
X14269762Y-12517333D01*
X14269762Y-12479238D01*
X14279286Y-12431619D01*
X14288809Y-12403048D01*
X14298333Y-12384000D01*
X14317381Y-12355428D01*
X14326905Y-12345905D01*
X14384048Y-12374476D02*
X14507857Y-12374476D01*
X14441190Y-12450667D01*
X14469762Y-12450667D01*
X14488809Y-12460190D01*
X14498333Y-12469714D01*
X14507857Y-12488762D01*
X14507857Y-12536381D01*
X14498333Y-12555428D01*
X14488809Y-12564952D01*
X14469762Y-12574476D01*
X14412619Y-12574476D01*
X14393571Y-12564952D01*
X14384048Y-12555428D01*
X14745952Y-12574476D02*
X14745952Y-12374476D01*
X14831667Y-12574476D02*
X14831667Y-12469714D01*
X14822143Y-12450667D01*
X14803095Y-12441143D01*
X14774524Y-12441143D01*
X14755476Y-12450667D01*
X14745952Y-12460190D01*
X14955476Y-12574476D02*
X14936428Y-12564952D01*
X14926905Y-12555428D01*
X14917381Y-12536381D01*
X14917381Y-12479238D01*
X14926905Y-12460190D01*
X14936428Y-12450667D01*
X14955476Y-12441143D01*
X14984048Y-12441143D01*
X15003095Y-12450667D01*
X15012619Y-12460190D01*
X15022143Y-12479238D01*
X15022143Y-12536381D01*
X15012619Y-12555428D01*
X15003095Y-12564952D01*
X14984048Y-12574476D01*
X14955476Y-12574476D01*
X15136428Y-12574476D02*
X15117381Y-12564952D01*
X15107857Y-12545905D01*
X15107857Y-12374476D01*
X15288809Y-12564952D02*
X15269762Y-12574476D01*
X15231667Y-12574476D01*
X15212619Y-12564952D01*
X15203095Y-12545905D01*
X15203095Y-12469714D01*
X15212619Y-12450667D01*
X15231667Y-12441143D01*
X15269762Y-12441143D01*
X15288809Y-12450667D01*
X15298333Y-12469714D01*
X15298333Y-12488762D01*
X15203095Y-12507809D01*
X15374524Y-12564952D02*
X15393571Y-12574476D01*
X15431667Y-12574476D01*
X15450714Y-12564952D01*
X15460238Y-12545905D01*
X15460238Y-12536381D01*
X15450714Y-12517333D01*
X15431667Y-12507809D01*
X15403095Y-12507809D01*
X15384048Y-12498286D01*
X15374524Y-12479238D01*
X15374524Y-12469714D01*
X15384048Y-12450667D01*
X15403095Y-12441143D01*
X15431667Y-12441143D01*
X15450714Y-12450667D01*
X15526905Y-12650667D02*
X15536428Y-12641143D01*
X15555476Y-12612571D01*
X15565000Y-12593524D01*
X15574524Y-12564952D01*
X15584048Y-12517333D01*
X15584048Y-12479238D01*
X15574524Y-12431619D01*
X15565000Y-12403048D01*
X15555476Y-12384000D01*
X15536428Y-12355428D01*
X15526905Y-12345905D01*
X15888809Y-12650667D02*
X15879286Y-12641143D01*
X15860238Y-12612571D01*
X15850714Y-12593524D01*
X15841190Y-12564952D01*
X15831667Y-12517333D01*
X15831667Y-12479238D01*
X15841190Y-12431619D01*
X15850714Y-12403048D01*
X15860238Y-12384000D01*
X15879286Y-12355428D01*
X15888809Y-12345905D01*
X15965000Y-12441143D02*
X15965000Y-12574476D01*
X15965000Y-12460190D02*
X15974524Y-12450667D01*
X15993571Y-12441143D01*
X16022143Y-12441143D01*
X16041190Y-12450667D01*
X16050714Y-12469714D01*
X16050714Y-12574476D01*
X16174524Y-12574476D02*
X16155476Y-12564952D01*
X16145952Y-12555428D01*
X16136428Y-12536381D01*
X16136428Y-12479238D01*
X16145952Y-12460190D01*
X16155476Y-12450667D01*
X16174524Y-12441143D01*
X16203095Y-12441143D01*
X16222143Y-12450667D01*
X16231667Y-12460190D01*
X16241190Y-12479238D01*
X16241190Y-12536381D01*
X16231667Y-12555428D01*
X16222143Y-12564952D01*
X16203095Y-12574476D01*
X16174524Y-12574476D01*
X16298333Y-12441143D02*
X16374524Y-12441143D01*
X16326905Y-12374476D02*
X16326905Y-12545905D01*
X16336428Y-12564952D01*
X16355476Y-12574476D01*
X16374524Y-12574476D01*
X16593571Y-12441143D02*
X16593571Y-12641143D01*
X16593571Y-12450667D02*
X16612619Y-12441143D01*
X16650714Y-12441143D01*
X16669762Y-12450667D01*
X16679286Y-12460190D01*
X16688809Y-12479238D01*
X16688809Y-12536381D01*
X16679286Y-12555428D01*
X16669762Y-12564952D01*
X16650714Y-12574476D01*
X16612619Y-12574476D01*
X16593571Y-12564952D01*
X16803095Y-12574476D02*
X16784048Y-12564952D01*
X16774524Y-12545905D01*
X16774524Y-12374476D01*
X16965000Y-12574476D02*
X16965000Y-12469714D01*
X16955476Y-12450667D01*
X16936429Y-12441143D01*
X16898333Y-12441143D01*
X16879286Y-12450667D01*
X16965000Y-12564952D02*
X16945952Y-12574476D01*
X16898333Y-12574476D01*
X16879286Y-12564952D01*
X16869762Y-12545905D01*
X16869762Y-12526857D01*
X16879286Y-12507809D01*
X16898333Y-12498286D01*
X16945952Y-12498286D01*
X16965000Y-12488762D01*
X17031667Y-12441143D02*
X17107857Y-12441143D01*
X17060238Y-12374476D02*
X17060238Y-12545905D01*
X17069762Y-12564952D01*
X17088810Y-12574476D01*
X17107857Y-12574476D01*
X17250714Y-12564952D02*
X17231667Y-12574476D01*
X17193571Y-12574476D01*
X17174524Y-12564952D01*
X17165000Y-12545905D01*
X17165000Y-12469714D01*
X17174524Y-12450667D01*
X17193571Y-12441143D01*
X17231667Y-12441143D01*
X17250714Y-12450667D01*
X17260238Y-12469714D01*
X17260238Y-12488762D01*
X17165000Y-12507809D01*
X17431667Y-12574476D02*
X17431667Y-12374476D01*
X17431667Y-12564952D02*
X17412619Y-12574476D01*
X17374524Y-12574476D01*
X17355476Y-12564952D01*
X17345952Y-12555428D01*
X17336429Y-12536381D01*
X17336429Y-12479238D01*
X17345952Y-12460190D01*
X17355476Y-12450667D01*
X17374524Y-12441143D01*
X17412619Y-12441143D01*
X17431667Y-12450667D01*
X17507857Y-12650667D02*
X17517381Y-12641143D01*
X17536429Y-12612571D01*
X17545952Y-12593524D01*
X17555476Y-12564952D01*
X17565000Y-12517333D01*
X17565000Y-12479238D01*
X17555476Y-12431619D01*
X17545952Y-12403048D01*
X17536429Y-12384000D01*
X17517381Y-12355428D01*
X17507857Y-12345905D01*
M02*
