G04 #@! TF.GenerationSoftware,KiCad,Pcbnew,6.0.2+dfsg-1*
G04 #@! TF.CreationDate,2024-05-15T15:08:28+02:00*
G04 #@! TF.ProjectId,PowerPolePCB,506f7765-7250-46f6-9c65-5043422e6b69,rev?*
G04 #@! TF.SameCoordinates,Original*
G04 #@! TF.FileFunction,Copper,L4,Bot*
G04 #@! TF.FilePolarity,Positive*
%FSLAX46Y46*%
G04 Gerber Fmt 4.6, Leading zero omitted, Abs format (unit mm)*
G04 Created by KiCad (PCBNEW 6.0.2+dfsg-1) date 2024-05-15 15:08:28*
%MOMM*%
%LPD*%
G01*
G04 APERTURE LIST*
G04 #@! TA.AperFunction,ComponentPad*
%ADD10R,0.800000X0.800000*%
G04 #@! TD*
G04 #@! TA.AperFunction,ComponentPad*
%ADD11O,0.800000X0.800000*%
G04 #@! TD*
G04 #@! TA.AperFunction,ComponentPad*
%ADD12C,0.800000*%
G04 #@! TD*
G04 #@! TA.AperFunction,ComponentPad*
%ADD13C,0.600000*%
G04 #@! TD*
G04 #@! TA.AperFunction,ViaPad*
%ADD14C,0.600000*%
G04 #@! TD*
G04 #@! TA.AperFunction,Conductor*
%ADD15C,0.100000*%
G04 #@! TD*
G04 #@! TA.AperFunction,Conductor*
%ADD16C,0.300000*%
G04 #@! TD*
G04 APERTURE END LIST*
D10*
X124861300Y-109662700D03*
D11*
X123845300Y-109662700D03*
X122829300Y-109662700D03*
D12*
X121813300Y-109662700D03*
D10*
X112495000Y-111200000D03*
D12*
X113511000Y-111200000D03*
X114527000Y-111200000D03*
X115543000Y-111200000D03*
D13*
X112300000Y-106450000D03*
X116650000Y-106750000D03*
X122100000Y-106500000D03*
X120950000Y-107050000D03*
D14*
X119400000Y-107761923D03*
X116520000Y-110890000D03*
X124050000Y-104950000D03*
X117544450Y-107761923D03*
X119000000Y-101700000D03*
X118520000Y-109730000D03*
X116181389Y-100711000D03*
X112776270Y-108099699D03*
X111800000Y-102350000D03*
X120150000Y-106450000D03*
X117754400Y-98501200D03*
X124100000Y-101100000D03*
X116154200Y-98526600D03*
X111800500Y-104078859D03*
X119366444Y-110493556D03*
X111750000Y-98450000D03*
X122150000Y-98550000D03*
X117729000Y-100685600D03*
X125000000Y-99100000D03*
X117650000Y-103050000D03*
X125100890Y-103275978D03*
X116400000Y-102900000D03*
X124304551Y-103024502D03*
X124137701Y-98862299D03*
X117000000Y-102137502D03*
X122100000Y-100529124D03*
X119150000Y-103300000D03*
X114850000Y-106400000D03*
X114977567Y-98472433D03*
X114900000Y-99700000D03*
X114288543Y-107111457D03*
X119148720Y-106363403D03*
X124900000Y-107300000D03*
X111800000Y-103250000D03*
X114400237Y-108000263D03*
X114611444Y-100661444D03*
X115549989Y-102850000D03*
X123350000Y-103050000D03*
X115888056Y-103610944D03*
X122561444Y-103361444D03*
X118350000Y-103600000D03*
X122100000Y-101350000D03*
X121725500Y-110949411D03*
X118250000Y-106350000D03*
D15*
X119400000Y-107761923D02*
X119788077Y-108150000D01*
D16*
X113150489Y-110450489D02*
X112495000Y-111105978D01*
X112495000Y-111105978D02*
X112495000Y-111200000D01*
X116292970Y-110890000D02*
X115853459Y-110450489D01*
D15*
X117544450Y-107761923D02*
X117188077Y-107761923D01*
X116540000Y-108410000D02*
X116540000Y-110870000D01*
X119788077Y-108150000D02*
X123250000Y-108150000D01*
X117188077Y-107761923D02*
X116540000Y-108410000D01*
X123250000Y-108150000D02*
X124050000Y-107350000D01*
X124050000Y-107350000D02*
X124050000Y-104950000D01*
D16*
X115853459Y-110450489D02*
X113150489Y-110450489D01*
X116520000Y-110890000D02*
X116292970Y-110890000D01*
D15*
X125350000Y-103026868D02*
X125350000Y-99450000D01*
X124120376Y-99979624D02*
X119270376Y-99979624D01*
X117750000Y-101500000D02*
X117750000Y-102950000D01*
X119270376Y-99979624D02*
X117750000Y-101500000D01*
X125100890Y-103275978D02*
X125350000Y-103026868D01*
X125350000Y-99450000D02*
X125000000Y-99100000D01*
X117750000Y-102950000D02*
X117650000Y-103050000D01*
X125000000Y-99100000D02*
X124120376Y-99979624D01*
X115000489Y-102399511D02*
X115299511Y-102100489D01*
X115299511Y-102100489D02*
X115800489Y-102100489D01*
X124304551Y-103024502D02*
X122529533Y-104799520D01*
X115800489Y-102100489D02*
X116400000Y-102700000D01*
X115649520Y-104799520D02*
X115000489Y-104150489D01*
X116400000Y-102700000D02*
X116400000Y-102900000D01*
X122529533Y-104799520D02*
X115649520Y-104799520D01*
X115000489Y-104150489D02*
X115000489Y-102399511D01*
X117000000Y-100637473D02*
X117000000Y-102137502D01*
X124137701Y-98862299D02*
X123700000Y-99300000D01*
X118337473Y-99300000D02*
X117000000Y-100637473D01*
X123700000Y-99300000D02*
X118337473Y-99300000D01*
X119150000Y-102510512D02*
X119150000Y-103300000D01*
X122100000Y-100529124D02*
X121131388Y-100529124D01*
X121131388Y-100529124D02*
X119150000Y-102510512D01*
X114850000Y-106400000D02*
X114700000Y-106250000D01*
X115600000Y-101300000D02*
X115600000Y-99094866D01*
X114700000Y-106250000D02*
X114700000Y-102200000D01*
X114700000Y-102200000D02*
X115600000Y-101300000D01*
X115600000Y-99094866D02*
X114977567Y-98472433D01*
X115160955Y-99960955D02*
X115160955Y-100889045D01*
X114070758Y-101979242D02*
X114070758Y-106893672D01*
X114900000Y-99700000D02*
X115160955Y-99960955D01*
X115160955Y-100889045D02*
X114070758Y-101979242D01*
X114070758Y-106893672D02*
X114288543Y-107111457D01*
X118449520Y-108199520D02*
X118449520Y-107270480D01*
X118449520Y-107270480D02*
X119148720Y-106571280D01*
X119148720Y-106571280D02*
X119148720Y-106363403D01*
X123400000Y-108800000D02*
X119050000Y-108800000D01*
X124900000Y-107300000D02*
X123400000Y-108800000D01*
X119050000Y-108800000D02*
X118449520Y-108199520D01*
X112350000Y-103800000D02*
X111800000Y-103250000D01*
X112300000Y-105150000D02*
X112350000Y-105100000D01*
X112350000Y-105100000D02*
X112350000Y-103800000D01*
X112300000Y-106450000D02*
X112300000Y-105150000D01*
X113521247Y-101778753D02*
X114611444Y-100688556D01*
X114400237Y-108000263D02*
X113521247Y-107121273D01*
X114611444Y-100688556D02*
X114611444Y-100661444D01*
X113521247Y-107121273D02*
X113521247Y-101778753D01*
X122200000Y-104500000D02*
X116000000Y-104500000D01*
X115338545Y-103838545D02*
X115338545Y-103061444D01*
X116000000Y-104500000D02*
X115338545Y-103838545D01*
X123350000Y-103350000D02*
X122200000Y-104500000D01*
X123350000Y-103050000D02*
X123350000Y-103350000D01*
X115338545Y-103061444D02*
X115549989Y-102850000D01*
X118049511Y-104199511D02*
X116476623Y-104199511D01*
X118050480Y-104200480D02*
X118049511Y-104199511D01*
X122561444Y-103375500D02*
X121736464Y-104200480D01*
X122561444Y-103361444D02*
X122561444Y-103375500D01*
X116476623Y-104199511D02*
X115888056Y-103610944D01*
X121736464Y-104200480D02*
X118050480Y-104200480D01*
X122100000Y-101350000D02*
X119600489Y-103849511D01*
X118599511Y-103849511D02*
X118350000Y-103600000D01*
X119600489Y-103849511D02*
X118599511Y-103849511D01*
X119799520Y-109099520D02*
X118925935Y-109099520D01*
X121649411Y-110949411D02*
X119799520Y-109099520D01*
X118925935Y-109099520D02*
X118150000Y-108323585D01*
X121725500Y-110949411D02*
X121649411Y-110949411D01*
X118150000Y-106450000D02*
X118250000Y-106350000D01*
X118150000Y-108323585D02*
X118150000Y-106450000D01*
M02*
