G04 #@! TF.GenerationSoftware,KiCad,Pcbnew,6.0.2+dfsg-1*
G04 #@! TF.CreationDate,2024-05-15T15:08:28+02:00*
G04 #@! TF.ProjectId,PowerPolePCB,506f7765-7250-46f6-9c65-5043422e6b69,rev?*
G04 #@! TF.SameCoordinates,Original*
G04 #@! TF.FileFunction,Legend,Bot*
G04 #@! TF.FilePolarity,Positive*
%FSLAX46Y46*%
G04 Gerber Fmt 4.6, Leading zero omitted, Abs format (unit mm)*
G04 Created by KiCad (PCBNEW 6.0.2+dfsg-1) date 2024-05-15 15:08:28*
%MOMM*%
%LPD*%
G01*
G04 APERTURE LIST*
%ADD10C,0.150000*%
%ADD11C,0.120000*%
%ADD12C,0.896000*%
%ADD13C,1.448000*%
%ADD14R,0.800000X0.800000*%
%ADD15O,0.800000X0.800000*%
%ADD16C,0.800000*%
%ADD17C,0.600000*%
G04 APERTURE END LIST*
D10*
X122300000Y-99700000D02*
X122500000Y-99500000D01*
X125365685Y-100800000D02*
G75*
G03*
X125365685Y-100800000I-565685J0D01*
G01*
X125200000Y-101200000D02*
X124400000Y-100400000D01*
X122550000Y-101600000D02*
X122750000Y-101400000D01*
X122750000Y-101400000D02*
X122950000Y-101600000D01*
X122750000Y-102800000D02*
X122750000Y-101400000D01*
X125200000Y-100400000D02*
X124400000Y-101200000D01*
X123700000Y-99700000D02*
X122300000Y-99700000D01*
X122750000Y-101400000D02*
X122550000Y-101600000D01*
X122300000Y-99700000D02*
X122500000Y-99900000D01*
X124585714Y-101638095D02*
X124585714Y-102161904D01*
X125252380Y-101638095D01*
X125252380Y-102161904D01*
X123752380Y-101938095D02*
X123085714Y-102461904D01*
X123085714Y-101938095D02*
X123752380Y-102461904D01*
X122074297Y-110229761D02*
X121424297Y-110229761D01*
X121424297Y-110477380D01*
X121455250Y-110539285D01*
X121486202Y-110570238D01*
X121548107Y-110601190D01*
X121640964Y-110601190D01*
X121702869Y-110570238D01*
X121733821Y-110539285D01*
X121764773Y-110477380D01*
X121764773Y-110229761D01*
X123089845Y-110214285D02*
X123120797Y-110307142D01*
X123120797Y-110461904D01*
X123089845Y-110523809D01*
X123058892Y-110554761D01*
X122996988Y-110585714D01*
X122935083Y-110585714D01*
X122873178Y-110554761D01*
X122842226Y-110523809D01*
X122811273Y-110461904D01*
X122780321Y-110338095D01*
X122749369Y-110276190D01*
X122718416Y-110245238D01*
X122656511Y-110214285D01*
X122594607Y-110214285D01*
X122532702Y-110245238D01*
X122501750Y-110276190D01*
X122470797Y-110338095D01*
X122470797Y-110492857D01*
X122501750Y-110585714D01*
X124136345Y-110214285D02*
X124167297Y-110307142D01*
X124167297Y-110461904D01*
X124136345Y-110523809D01*
X124105392Y-110554761D01*
X124043488Y-110585714D01*
X123981583Y-110585714D01*
X123919678Y-110554761D01*
X123888726Y-110523809D01*
X123857773Y-110461904D01*
X123826821Y-110338095D01*
X123795869Y-110276190D01*
X123764916Y-110245238D01*
X123703011Y-110214285D01*
X123641107Y-110214285D01*
X123579202Y-110245238D01*
X123548250Y-110276190D01*
X123517297Y-110338095D01*
X123517297Y-110492857D01*
X123548250Y-110585714D01*
X124594750Y-110570238D02*
X124563797Y-110508333D01*
X124563797Y-110415476D01*
X124594750Y-110322619D01*
X124656654Y-110260714D01*
X124718559Y-110229761D01*
X124842369Y-110198809D01*
X124935226Y-110198809D01*
X125059035Y-110229761D01*
X125120940Y-110260714D01*
X125182845Y-110322619D01*
X125213797Y-110415476D01*
X125213797Y-110477380D01*
X125182845Y-110570238D01*
X125151892Y-110601190D01*
X124935226Y-110601190D01*
X124935226Y-110477380D01*
X122385714Y-107673809D02*
X122423809Y-107635714D01*
X122461904Y-107521428D01*
X122461904Y-107445238D01*
X122423809Y-107330952D01*
X122347619Y-107254761D01*
X122271428Y-107216666D01*
X122119047Y-107178571D01*
X122004761Y-107178571D01*
X121852380Y-107216666D01*
X121776190Y-107254761D01*
X121700000Y-107330952D01*
X121661904Y-107445238D01*
X121661904Y-107521428D01*
X121700000Y-107635714D01*
X121738095Y-107673809D01*
X122461904Y-108397619D02*
X122461904Y-108016666D01*
X121661904Y-108016666D01*
X122461904Y-108664285D02*
X121661904Y-108664285D01*
X122461904Y-109121428D02*
X122004761Y-108778571D01*
X121661904Y-109121428D02*
X122119047Y-108664285D01*
X112483821Y-110446428D02*
X112514773Y-110539285D01*
X112545726Y-110570238D01*
X112607630Y-110601190D01*
X112700488Y-110601190D01*
X112762392Y-110570238D01*
X112793345Y-110539285D01*
X112824297Y-110477380D01*
X112824297Y-110229761D01*
X112174297Y-110229761D01*
X112174297Y-110446428D01*
X112205250Y-110508333D01*
X112236202Y-110539285D01*
X112298107Y-110570238D01*
X112360011Y-110570238D01*
X112421916Y-110539285D01*
X112452869Y-110508333D01*
X112483821Y-110446428D01*
X112483821Y-110229761D01*
X113251750Y-110570238D02*
X113220797Y-110508333D01*
X113220797Y-110415476D01*
X113251750Y-110322619D01*
X113313654Y-110260714D01*
X113375559Y-110229761D01*
X113499369Y-110198809D01*
X113592226Y-110198809D01*
X113716035Y-110229761D01*
X113777940Y-110260714D01*
X113839845Y-110322619D01*
X113870797Y-110415476D01*
X113870797Y-110477380D01*
X113839845Y-110570238D01*
X113808892Y-110601190D01*
X113592226Y-110601190D01*
X113592226Y-110477380D01*
X114298250Y-110570238D02*
X114267297Y-110508333D01*
X114267297Y-110415476D01*
X114298250Y-110322619D01*
X114360154Y-110260714D01*
X114422059Y-110229761D01*
X114545869Y-110198809D01*
X114638726Y-110198809D01*
X114762535Y-110229761D01*
X114824440Y-110260714D01*
X114886345Y-110322619D01*
X114917297Y-110415476D01*
X114917297Y-110477380D01*
X114886345Y-110570238D01*
X114855392Y-110601190D01*
X114638726Y-110601190D01*
X114638726Y-110477380D01*
X115313797Y-110554761D02*
X115313797Y-110245238D01*
X115623321Y-110214285D01*
X115592369Y-110245238D01*
X115561416Y-110307142D01*
X115561416Y-110461904D01*
X115592369Y-110523809D01*
X115623321Y-110554761D01*
X115685226Y-110585714D01*
X115839988Y-110585714D01*
X115901892Y-110554761D01*
X115932845Y-110523809D01*
X115963797Y-110461904D01*
X115963797Y-110307142D01*
X115932845Y-110245238D01*
X115901892Y-110214285D01*
X122885714Y-99961904D02*
X123552380Y-100200000D01*
X122885714Y-100438095D02*
X123552380Y-100200000D01*
X123790476Y-100104761D01*
X123838095Y-100057142D01*
X123885714Y-99961904D01*
X121311904Y-107780952D02*
X120511904Y-107780952D01*
X120511904Y-107971428D01*
X120550000Y-108085714D01*
X120626190Y-108161904D01*
X120702380Y-108200000D01*
X120854761Y-108238095D01*
X120969047Y-108238095D01*
X121121428Y-108200000D01*
X121197619Y-108161904D01*
X121273809Y-108085714D01*
X121311904Y-107971428D01*
X121311904Y-107780952D01*
X121311904Y-108580952D02*
X120511904Y-108580952D01*
X120511904Y-109114285D02*
X120511904Y-109266666D01*
X120550000Y-109342857D01*
X120626190Y-109419047D01*
X120778571Y-109457142D01*
X121045238Y-109457142D01*
X121197619Y-109419047D01*
X121273809Y-109342857D01*
X121311904Y-109266666D01*
X121311904Y-109114285D01*
X121273809Y-109038095D01*
X121197619Y-108961904D01*
X121045238Y-108923809D01*
X120778571Y-108923809D01*
X120626190Y-108961904D01*
X120550000Y-109038095D01*
X120511904Y-109114285D01*
X111711904Y-107014285D02*
X112511904Y-107280952D01*
X111711904Y-107547619D01*
X112511904Y-107814285D02*
X111978571Y-107814285D01*
X112130952Y-107814285D02*
X112054761Y-107852380D01*
X112016666Y-107890476D01*
X111978571Y-107966666D01*
X111978571Y-108042857D01*
X112473809Y-108614285D02*
X112511904Y-108538095D01*
X112511904Y-108385714D01*
X112473809Y-108309523D01*
X112397619Y-108271428D01*
X112092857Y-108271428D01*
X112016666Y-108309523D01*
X111978571Y-108385714D01*
X111978571Y-108538095D01*
X112016666Y-108614285D01*
X112092857Y-108652380D01*
X112169047Y-108652380D01*
X112245238Y-108271428D01*
X111978571Y-108880952D02*
X111978571Y-109185714D01*
X112511904Y-108995238D02*
X111826190Y-108995238D01*
X111750000Y-109033333D01*
X111711904Y-109109523D01*
X111711904Y-109185714D01*
X114102380Y-98159523D02*
X113102380Y-98159523D01*
X113102380Y-98540476D01*
X113150000Y-98635714D01*
X113197619Y-98683333D01*
X113292857Y-98730952D01*
X113435714Y-98730952D01*
X113530952Y-98683333D01*
X113578571Y-98635714D01*
X113626190Y-98540476D01*
X113626190Y-98159523D01*
X113102380Y-99350000D02*
X113102380Y-99540476D01*
X113150000Y-99635714D01*
X113245238Y-99730952D01*
X113435714Y-99778571D01*
X113769047Y-99778571D01*
X113959523Y-99730952D01*
X114054761Y-99635714D01*
X114102380Y-99540476D01*
X114102380Y-99350000D01*
X114054761Y-99254761D01*
X113959523Y-99159523D01*
X113769047Y-99111904D01*
X113435714Y-99111904D01*
X113245238Y-99159523D01*
X113150000Y-99254761D01*
X113102380Y-99350000D01*
X113102380Y-100111904D02*
X114102380Y-100350000D01*
X113388095Y-100540476D01*
X114102380Y-100730952D01*
X113102380Y-100969047D01*
X113578571Y-101350000D02*
X113578571Y-101683333D01*
X114102380Y-101826190D02*
X114102380Y-101350000D01*
X113102380Y-101350000D01*
X113102380Y-101826190D01*
X114102380Y-102826190D02*
X113626190Y-102492857D01*
X114102380Y-102254761D02*
X113102380Y-102254761D01*
X113102380Y-102635714D01*
X113150000Y-102730952D01*
X113197619Y-102778571D01*
X113292857Y-102826190D01*
X113435714Y-102826190D01*
X113530952Y-102778571D01*
X113578571Y-102730952D01*
X113626190Y-102635714D01*
X113626190Y-102254761D01*
X114102380Y-103254761D02*
X113102380Y-103254761D01*
X113102380Y-103635714D01*
X113150000Y-103730952D01*
X113197619Y-103778571D01*
X113292857Y-103826190D01*
X113435714Y-103826190D01*
X113530952Y-103778571D01*
X113578571Y-103730952D01*
X113626190Y-103635714D01*
X113626190Y-103254761D01*
X113102380Y-104445238D02*
X113102380Y-104635714D01*
X113150000Y-104730952D01*
X113245238Y-104826190D01*
X113435714Y-104873809D01*
X113769047Y-104873809D01*
X113959523Y-104826190D01*
X114054761Y-104730952D01*
X114102380Y-104635714D01*
X114102380Y-104445238D01*
X114054761Y-104350000D01*
X113959523Y-104254761D01*
X113769047Y-104207142D01*
X113435714Y-104207142D01*
X113245238Y-104254761D01*
X113150000Y-104350000D01*
X113102380Y-104445238D01*
X114102380Y-105778571D02*
X114102380Y-105302380D01*
X113102380Y-105302380D01*
X113578571Y-106111904D02*
X113578571Y-106445238D01*
X114102380Y-106588095D02*
X114102380Y-106111904D01*
X113102380Y-106111904D01*
X113102380Y-106588095D01*
X117011904Y-107961904D02*
X116630952Y-107695238D01*
X117011904Y-107504761D02*
X116211904Y-107504761D01*
X116211904Y-107809523D01*
X116250000Y-107885714D01*
X116288095Y-107923809D01*
X116364285Y-107961904D01*
X116478571Y-107961904D01*
X116554761Y-107923809D01*
X116592857Y-107885714D01*
X116630952Y-107809523D01*
X116630952Y-107504761D01*
X116973809Y-108266666D02*
X117011904Y-108380952D01*
X117011904Y-108571428D01*
X116973809Y-108647619D01*
X116935714Y-108685714D01*
X116859523Y-108723809D01*
X116783333Y-108723809D01*
X116707142Y-108685714D01*
X116669047Y-108647619D01*
X116630952Y-108571428D01*
X116592857Y-108419047D01*
X116554761Y-108342857D01*
X116516666Y-108304761D01*
X116440476Y-108266666D01*
X116364285Y-108266666D01*
X116288095Y-108304761D01*
X116250000Y-108342857D01*
X116211904Y-108419047D01*
X116211904Y-108609523D01*
X116250000Y-108723809D01*
X116211904Y-108952380D02*
X116211904Y-109409523D01*
X117011904Y-109180952D02*
X116211904Y-109180952D01*
D11*
X112759676Y-106459676D02*
G75*
G03*
X112759676Y-106459676I-459676J0D01*
G01*
X117109676Y-106759676D02*
G75*
G03*
X117109676Y-106759676I-459676J0D01*
G01*
X122559676Y-106509676D02*
G75*
G03*
X122559676Y-106509676I-459676J0D01*
G01*
X121409676Y-107059676D02*
G75*
G03*
X121409676Y-107059676I-459676J0D01*
G01*
%LPC*%
D12*
X117170000Y-112050000D03*
X118970000Y-112050000D03*
X118070000Y-112050000D03*
X119870000Y-112050000D03*
X120770000Y-112050000D03*
D13*
X119000000Y-114150000D03*
X109050000Y-94950000D03*
D12*
X111050000Y-90550000D03*
X111050000Y-89650000D03*
X111050000Y-91450000D03*
X125750000Y-95500000D03*
X125750000Y-94600000D03*
X125750000Y-96400000D03*
X111050000Y-95500000D03*
X111050000Y-94600000D03*
X111050000Y-96400000D03*
X125750000Y-90550000D03*
X125750000Y-89650000D03*
X125750000Y-91450000D03*
D14*
X124861300Y-109662700D03*
D15*
X123845300Y-109662700D03*
X122829300Y-109662700D03*
D16*
X121813300Y-109662700D03*
D13*
X127750000Y-94900000D03*
D12*
X125750000Y-114250000D03*
X125750000Y-113350000D03*
X125750000Y-115150000D03*
D14*
X112495000Y-111200000D03*
D16*
X113511000Y-111200000D03*
X114527000Y-111200000D03*
X115543000Y-111200000D03*
D12*
X111100000Y-114250000D03*
X111100000Y-113350000D03*
X111100000Y-115150000D03*
D17*
X112300000Y-106450000D03*
X116650000Y-106750000D03*
X122100000Y-106500000D03*
X120950000Y-107050000D03*
X119400000Y-107761923D03*
X116520000Y-110890000D03*
X124050000Y-104950000D03*
X117544450Y-107761923D03*
X119000000Y-101700000D03*
X118520000Y-109730000D03*
X116181389Y-100711000D03*
X112776270Y-108099699D03*
X111800000Y-102350000D03*
X120150000Y-106450000D03*
X117754400Y-98501200D03*
X124100000Y-101100000D03*
X116154200Y-98526600D03*
X111800500Y-104078859D03*
X119366444Y-110493556D03*
X111750000Y-98450000D03*
X122150000Y-98550000D03*
X117729000Y-100685600D03*
X125000000Y-99100000D03*
X117650000Y-103050000D03*
X125100890Y-103275978D03*
X116400000Y-102900000D03*
X124304551Y-103024502D03*
X124137701Y-98862299D03*
X117000000Y-102137502D03*
X122100000Y-100529124D03*
X119150000Y-103300000D03*
X114850000Y-106400000D03*
X114977567Y-98472433D03*
X114900000Y-99700000D03*
X114288543Y-107111457D03*
X119148720Y-106363403D03*
X124900000Y-107300000D03*
X111800000Y-103250000D03*
X114400237Y-108000263D03*
X114611444Y-100661444D03*
X115549989Y-102850000D03*
X123350000Y-103050000D03*
X115888056Y-103610944D03*
X122561444Y-103361444D03*
X118350000Y-103600000D03*
X122100000Y-101350000D03*
X121725500Y-110949411D03*
X118250000Y-106350000D03*
M02*
