G04 #@! TF.GenerationSoftware,KiCad,Pcbnew,6.0.2+dfsg-1*
G04 #@! TF.CreationDate,2024-05-15T15:08:28+02:00*
G04 #@! TF.ProjectId,PowerPolePCB,506f7765-7250-46f6-9c65-5043422e6b69,rev?*
G04 #@! TF.SameCoordinates,Original*
G04 #@! TF.FileFunction,Paste,Top*
G04 #@! TF.FilePolarity,Positive*
%FSLAX46Y46*%
G04 Gerber Fmt 4.6, Leading zero omitted, Abs format (unit mm)*
G04 Created by KiCad (PCBNEW 6.0.2+dfsg-1) date 2024-05-15 15:08:28*
%MOMM*%
%LPD*%
G01*
G04 APERTURE LIST*
G04 Aperture macros list*
%AMRoundRect*
0 Rectangle with rounded corners*
0 $1 Rounding radius*
0 $2 $3 $4 $5 $6 $7 $8 $9 X,Y pos of 4 corners*
0 Add a 4 corners polygon primitive as box body*
4,1,4,$2,$3,$4,$5,$6,$7,$8,$9,$2,$3,0*
0 Add four circle primitives for the rounded corners*
1,1,$1+$1,$2,$3*
1,1,$1+$1,$4,$5*
1,1,$1+$1,$6,$7*
1,1,$1+$1,$8,$9*
0 Add four rect primitives between the rounded corners*
20,1,$1+$1,$2,$3,$4,$5,0*
20,1,$1+$1,$4,$5,$6,$7,0*
20,1,$1+$1,$6,$7,$8,$9,0*
20,1,$1+$1,$8,$9,$2,$3,0*%
%AMOutline5P*
0 Free polygon, 5 corners , with rotation*
0 The origin of the aperture is its center*
0 number of corners: always 5*
0 $1 to $10 corner X, Y*
0 $11 Rotation angle, in degrees counterclockwise*
0 create outline with 5 corners*
4,1,5,$1,$2,$3,$4,$5,$6,$7,$8,$9,$10,$1,$2,$11*%
%AMOutline6P*
0 Free polygon, 6 corners , with rotation*
0 The origin of the aperture is its center*
0 number of corners: always 6*
0 $1 to $12 corner X, Y*
0 $13 Rotation angle, in degrees counterclockwise*
0 create outline with 6 corners*
4,1,6,$1,$2,$3,$4,$5,$6,$7,$8,$9,$10,$11,$12,$1,$2,$13*%
%AMOutline7P*
0 Free polygon, 7 corners , with rotation*
0 The origin of the aperture is its center*
0 number of corners: always 7*
0 $1 to $14 corner X, Y*
0 $15 Rotation angle, in degrees counterclockwise*
0 create outline with 7 corners*
4,1,7,$1,$2,$3,$4,$5,$6,$7,$8,$9,$10,$11,$12,$13,$14,$1,$2,$15*%
%AMOutline8P*
0 Free polygon, 8 corners , with rotation*
0 The origin of the aperture is its center*
0 number of corners: always 8*
0 $1 to $16 corner X, Y*
0 $17 Rotation angle, in degrees counterclockwise*
0 create outline with 8 corners*
4,1,8,$1,$2,$3,$4,$5,$6,$7,$8,$9,$10,$11,$12,$13,$14,$15,$16,$1,$2,$17*%
G04 Aperture macros list end*
%ADD10RoundRect,0.150000X0.275000X0.000000X0.275000X0.000000X-0.275000X0.000000X-0.275000X0.000000X0*%
%ADD11R,1.750000X1.550000*%
%ADD12Outline5P,-0.287500X0.150000X0.197500X0.150000X0.287500X0.060000X0.287500X-0.150000X-0.287500X-0.150000X90.000000*%
%ADD13R,0.300000X0.575000*%
%ADD14R,0.575000X0.300000*%
%ADD15RoundRect,0.200000X-0.200000X-0.275000X0.200000X-0.275000X0.200000X0.275000X-0.200000X0.275000X0*%
%ADD16RoundRect,0.225000X0.225000X0.250000X-0.225000X0.250000X-0.225000X-0.250000X0.225000X-0.250000X0*%
%ADD17R,0.800000X0.550000*%
%ADD18RoundRect,0.200000X0.200000X0.275000X-0.200000X0.275000X-0.200000X-0.275000X0.200000X-0.275000X0*%
%ADD19RoundRect,0.225000X-0.225000X-0.250000X0.225000X-0.250000X0.225000X0.250000X-0.225000X0.250000X0*%
%ADD20R,0.700000X0.400000*%
%ADD21R,0.400000X0.700000*%
%ADD22R,1.000000X0.700000*%
%ADD23R,1.250000X1.900000*%
G04 APERTURE END LIST*
D10*
X117475000Y-109350000D03*
X117475000Y-109850000D03*
X117475000Y-110350000D03*
X117475000Y-110850000D03*
X120475000Y-110850000D03*
X120475000Y-110350000D03*
X120475000Y-109850000D03*
X120475000Y-109350000D03*
D11*
X118975000Y-110100000D03*
D12*
X123350000Y-102237500D03*
D13*
X123850000Y-102237500D03*
X124350000Y-102237500D03*
X124850000Y-102237500D03*
D14*
X125012500Y-101575000D03*
X125012500Y-101075000D03*
X125012500Y-100575000D03*
D13*
X124850000Y-99912500D03*
X124350000Y-99912500D03*
X123850000Y-99912500D03*
X123350000Y-99912500D03*
D14*
X123187500Y-100575000D03*
X123187500Y-101075000D03*
X123187500Y-101575000D03*
D15*
X123225000Y-104250000D03*
X124875000Y-104250000D03*
D16*
X124875000Y-98100000D03*
X123325000Y-98100000D03*
D17*
X124868837Y-105650000D03*
X124868837Y-106550000D03*
X123268837Y-106550000D03*
X123268837Y-105650000D03*
D18*
X124275000Y-110950000D03*
X122625000Y-110950000D03*
D16*
X124825000Y-108300000D03*
X123275000Y-108300000D03*
D19*
X111825000Y-109850000D03*
X113375000Y-109850000D03*
X114625000Y-109850000D03*
X116175000Y-109850000D03*
D20*
X112717000Y-97638000D03*
X112717000Y-98338000D03*
X112717000Y-99038000D03*
X112717000Y-99738000D03*
X112717000Y-100438000D03*
X112717000Y-101138000D03*
X112717000Y-101838000D03*
X112717000Y-102538000D03*
X112717000Y-103238000D03*
X112717000Y-103938000D03*
X112717000Y-104638000D03*
D21*
X114167000Y-105488000D03*
X114867000Y-105488000D03*
X115567000Y-105488000D03*
X116267000Y-105488000D03*
X116967000Y-105488000D03*
X117667000Y-105488000D03*
X118367000Y-105488000D03*
X119067000Y-105488000D03*
X119767000Y-105488000D03*
D20*
X121217000Y-104638000D03*
X121217000Y-103938000D03*
X121217000Y-103238000D03*
X121217000Y-102538000D03*
X121217000Y-101838000D03*
X121217000Y-101138000D03*
X121217000Y-100438000D03*
X121217000Y-99738000D03*
X121217000Y-99038000D03*
X121217000Y-98338000D03*
X121217000Y-97638000D03*
X113717000Y-97638000D03*
X113717000Y-98338000D03*
X113717000Y-99038000D03*
X113717000Y-99738000D03*
X113717000Y-100438000D03*
X113717000Y-101138000D03*
X113717000Y-101838000D03*
X113717000Y-102538000D03*
X113717000Y-103238000D03*
X113717000Y-103938000D03*
X113717000Y-104638000D03*
D21*
X114867000Y-104488000D03*
X115567000Y-104488000D03*
X116267000Y-104488000D03*
X116967000Y-104488000D03*
X117667000Y-104488000D03*
X118367000Y-104488000D03*
X119067000Y-104488000D03*
D20*
X120217000Y-104638000D03*
X120217000Y-103938000D03*
X120217000Y-103238000D03*
X120217000Y-102538000D03*
X120217000Y-101838000D03*
X120217000Y-101138000D03*
X120217000Y-100438000D03*
X120217000Y-99738000D03*
X120217000Y-99038000D03*
X120217000Y-98338000D03*
X120217000Y-97638000D03*
D22*
X112867000Y-105488000D03*
X121067000Y-105488000D03*
D23*
X116197000Y-100688000D03*
X116197000Y-98488000D03*
X117747000Y-98488000D03*
X117747000Y-100688000D03*
M02*
