M48
; DRILL file {KiCad 6.0.2+dfsg-1} date ons 15 maj 2024 15:08:57
; FORMAT={-:-/ absolute / metric / decimal}
; #@! TF.CreationDate,2024-05-15T15:08:57+02:00
; #@! TF.GenerationSoftware,Kicad,Pcbnew,6.0.2+dfsg-1
; #@! TF.FileFunction,Plated,1,4,PTH
FMAT,2
METRIC
; #@! TA.AperFunction,Plated,PTH,ViaDrill
T1C0.300
; #@! TA.AperFunction,Plated,PTH,ComponentDrill
T2C0.300
; #@! TA.AperFunction,Plated,PTH,ComponentDrill
T3C0.500
%
G90
G05
T1
X111.75Y-98.45
X111.8Y-102.35
X111.8Y-103.25
X111.8Y-104.079
X112.776Y-108.1
X114.289Y-107.111
X114.4Y-108.0
X114.611Y-100.661
X114.85Y-106.4
X114.9Y-99.7
X114.978Y-98.472
X115.55Y-102.85
X115.888Y-103.611
X116.154Y-98.527
X116.181Y-100.711
X116.4Y-102.9
X116.52Y-110.89
X117.0Y-102.138
X117.544Y-107.762
X117.65Y-103.05
X117.729Y-100.686
X117.754Y-98.501
X118.25Y-106.35
X118.35Y-103.6
X118.52Y-109.73
X119.0Y-101.7
X119.149Y-106.363
X119.15Y-103.3
X119.366Y-110.494
X119.4Y-107.762
X120.15Y-106.45
X121.725Y-110.949
X122.1Y-100.529
X122.1Y-101.35
X122.15Y-98.55
X122.561Y-103.361
X123.35Y-103.05
X124.05Y-104.95
X124.1Y-101.1
X124.138Y-98.862
X124.305Y-103.025
X124.9Y-107.3
X125.0Y-99.1
X125.101Y-103.276
T2
X112.3Y-106.45
X116.65Y-106.75
X120.95Y-107.05
X122.1Y-106.5
T3
X112.495Y-111.2
X113.511Y-111.2
X114.527Y-111.2
X115.543Y-111.2
X121.813Y-109.663
X122.829Y-109.663
X123.845Y-109.663
X124.861Y-109.663
T0
M30
